<ttFont>
          <CharString index="0">
            rmoveto
            208 118 161 194 41 48 callgsubr
            -113 hlineto
            -76 -26 callsubr
            -127 -27 -69 -127 -138 hhcurveto
            -101 -35 68 89 30 4 33 7 34 48 callgsubr
            -113 hlineto
            -76 -26 callsubr
            -9 -40 -5 -40 -37 vvcurveto
            -133 62 -105 168 vhcurveto
            return
          </CharString>
          <CharString index="1">
            181 141 158 165 120 -73 99 -134 -179 -141 -157 -167 -119 72 -99 133 hvcurveto
            21 94 rmoveto
            -68 -44 58 80 117 94 99 92 68 44 -59 -80 -117 -93 -98 -93 hvcurveto
            return
          </CharString>
          <CharString index="2">
            -33 23 -19 42 -52 callsubr
            vhcurveto
            -97 callsubr
            84 392 rlineto
            -111 hlineto
            -21 -98 -55 callgsubr
            return
          </CharString>
          <CharString index="3">
            -73 -45 -64 -40 -58 hhcurveto
            -45 -24 27 54 17 2 20 5 23 hvcurveto
            64 298 rlineto
            -109 hlineto
            -69 -320 rlineto
            -7 -32 -3 -27 -24 vvcurveto
            -85 41 -45 81 vhcurveto
            return
          </CharString>
          <CharString index="4">
            -50 hmoveto
            -20 callsubr
            109 193 rlineto
            255 hlineto
            28 -193 rlineto
            -20 callsubr
            -114 710 rlineto
            -99 hlineto
            -151 -434 rmoveto
            174 305 40 -305 rlineto
            return
          </CharString>
          <CharString index="5">
            rmoveto
            94 63 67 -63 64 28 -78 95 rlineto
            -80 hlineto
            -119 -95 rlineto
            return
          </CharString>
          <CharString index="6">
            108 hlineto
            31 38 52 82 27 38 33 -158 rcurveline
            98 hlineto
            140 174 105 175 53 174 rrcurveto
            -102 hlineto
            -44 -146 -67 -122 -107 -146 -34 145 rcurveline
            55 88 41 88 29 93 rrcurveto
            -96 hlineto
            -12 -44 -34 -78 -22 -44 -33 166 rcurveline
            -104 hlineto
            64 -272 -27 -43 -42 -67 -33 -43 rlinecurve
            -73 425 -84 callgsubr
            return
          </CharString>
          <CharString index="7">
            6 1 6 1 6 vhcurveto
            -61 hlineto
            -2 -9 -2 -10 -10 vvcurveto
            -55 37 -38 57 66 61 52 70 15 vhcurveto
            -61 hlineto
            return
          </CharString>
          <CharString index="8">
            101 461 rmoveto
            55 35 -21 -45 -53 -48 -36 -141 -26 -28 1 2 -31 hvcurveto
            80 26 61 72 97 hhcurveto
            return
          </CharString>
          <CharString index="9">
            -48 callsubr
            -103 callgsubr
            return
          </CharString>
          <CharString index="10">
            13 callgsubr
            -16 1 -7 6 14 vvcurveto
            4 1 5 1 6 vhcurveto
            return
          </CharString>
          <CharString index="11">
            rmoveto
            155 142 74 169 -7 callsubr
            hvcurveto
            -92 25 -50 18 53 vvcurveto
            68 48 48 101 80 70 -43 -29 17 vhcurveto
            70 92 rlineto
            45 -48 -73 35 -92 hhcurveto
            -159 -137 -94 -160 -83 57 -38 106 -31 hvcurveto
            96 -28 63 -21 -58 vvcurveto
            -69 callgsubr
            return
          </CharString>
          <CharString index="12">
            rmoveto
            60 19 -25 110 rlineto
            -87 hlineto
            -92 -129 rmoveto
            61 19 -24 110 rlineto
            -89 hlineto
            return
          </CharString>
          <CharString index="13">
            95 hlineto
            192 318 56 -318 rlineto
            95 hlineto
            429 710 24 callgsubr
            -329 -580 -41 261 182 316 rlineto
            -105 hlineto
            -133 -241 -30 241 rlineto
            -105 hlineto
            48 -316 -153 -261 -83 580 rlineto
            -121 hlineto
            return
          </CharString>
          <CharString index="14">
            rlineto
            62 -21 -53 46 -76 hhcurveto
            -152 -136 -156 -170 return
          </CharString>
          <CharString index="15">
            -7 -15 -31 -14 -30 hhcurveto
            -23 -18 11 27 5 1 5 1 5 hvcurveto
            62 292 rlineto
            107 hlineto
            18 85 rlineto
            -108 hlineto
            37 172 -84 callgsubr
            -37 -172 rlineto
            -65 hlineto
            -19 -85 rlineto
            67 hlineto
            -70 -327 rlineto
            -3 -12 -1 -11 -10 vvcurveto
            return
          </CharString>
          <CharString index="16">
            -213 rmoveto
            50 77 19 88 rlineto
            -94 hlineto
            -19 -88 rlineto
            32 hlineto
            -39 -77 rlineto
            return
          </CharString>
          <CharString index="17">
            rmoveto
            108 137 59 106 64 hvcurveto
            -82 53 rlineto
            -83 -52 -84 -34 -65 hhcurveto
            -104 -60 95 112 139 109 172 162 64 68 -27 -86 18 hvcurveto
            100 59 rlineto
            91 -24 -78 64 -122 hhcurveto
            -237 -175 -224 -195 -154 92 -147 161 hvcurveto
            return
          </CharString>
          <CharString index="18">
            rmoveto
            -36 28 -23 45 59 44 35 52 37 -26 22 -46 -58 -46 -34 -53 vhcurveto
            96 51 rmoveto
            19 13 -12 -18 -25 -25 -19 -22 -19 -12 14 17 25 22 18 24 hvcurveto
            return
          </CharString>
          <CharString index="19">
            rmoveto
            24 116 rlineto
            -99 hlineto
            -25 -116 rlineto
            return
          </CharString>
          <CharString index="20">
            -1 callsubr
            106 500 267 -500 rlineto
            -70 callgsubr
            return
          </CharString>
          <CharString index="21">
            241 hlineto
            238 178 185 251 154 -84 120 -181 hvcurveto
            -241 hlineto
            return
          </CharString>
          <CharString index="22">
            182 hmoveto
            -1 callsubr
            54 254 347 456 rlineto
            -122 hlineto
            -260 -356 -106 356 24 callgsubr
            152 -454 rlineto
            return
          </CharString>
          <CharString index="23">
            hlineto
            151 709 rlineto
            -113 hlineto
            return
          </CharString>
          <CharString index="24">
            -20 -91 callgsubr
            return
          </CharString>
          <CharString index="25">
            rmoveto
            85 82 40 76 60 hvcurveto
            -7 -36 -2 -14 -11 vvcurveto
            return
          </CharString>
          <CharString index="26">
            rmoveto
            76 352 rlineto
            -68 hlineto
            -3 -1 -61 -54 -40 hhcurveto
            -14 -66 rlineto
            30 53 32 18 18 hvcurveto
            -59 -279 rlineto
            -75 hlineto
            -15 -66 rlineto
            211 -12 callgsubr
            return
          </CharString>
          <CharString index="27">
            -54 -21 -53 -35 -63 vvcurveto
            -60 56 -48 83 vhcurveto
            16 66 rmoveto
            -43 -43 22 34 45 58 29 54 44 41 -21 -36 -43 -59 -30 -52 hvcurveto
            38 185 rmoveto
            return
          </CharString>
          <CharString index="28">
            297 -5 rmoveto
            -106 callgsubr
            return
          </CharString>
          <CharString index="29">
            hlineto
            21 99 rlineto
            return
          </CharString>
          <CharString index="30">
            -104 callsubr
            endchar
          </CharString>
          <CharString index="31">
            224 -10 rmoveto
            -106 callsubr
            return
          </CharString>
          <CharString index="32">
            rmoveto
            24 115 rlineto
            -98 hlineto
            -25 -115 rlineto
            return
          </CharString>
          <CharString index="33">
            -43 -10 94 302 88 145 96 hstem
            45 103 284 107 vstem
            237 -10 rmoveto
            157 145 133 156 111 -75 84 -114 -69 -66 -38 -59 -40 hvcurveto
            153 35 78 89 92 hhcurveto
            61 46 -35 -56 17 hvcurveto
            79 68 rlineto
            75 -30 -65 44 -85 hhcurveto
            -212 -146 -227 -268 -143 70 -87 122 hvcurveto
            21 94 rmoveto
            -65 -45 56 69 94 86 83 87 66 45 -54 -69 -95 -89 -84 -85 hvcurveto
            endchar
          </CharString>
          <CharString index="34">
            174 0 90 524 101 hstem
            58 112 440 113 vstem
            48 hmoveto
            297 90 hlineto
            -107 37 -68 124 116 vvcurveto
            122 84 125 136 136 84 -125 -122 -116 -68 -124 -107 -37 vhcurveto
            -90 298 90 -173 vlineto
            100 56 63 102 119 vvcurveto
            183 -143 165 -190 -190 -142 -165 -183 -119 62 -102 100 -56 vhcurveto
            -172 hlineto
            endchar
          </CharString>
          <CharString index="35">
            rmoveto
            64 101 31 80 62 hvcurveto
            -67 30 65 -44 93 hhcurveto
            105 97 56 78 51 hvcurveto
            -89 27 rlineto
            -48 -28 -61 -32 -55 hhcurveto
            -70 -52 50 77 10 1 8 2 9 hvcurveto
            401 hlineto
            5 12 12 28 48 vvcurveto
            121 -72 98 -133 -77 -70 -34 -51 -53 vhcurveto
            54 -23 -52 31 -79 hhcurveto
            -71 -71 -23 -45 -74 hvcurveto
            19 -70 rlineto
            39 63 54 21 52 hhcurveto
            64 33 -33 -45 -27 -14 -20 -8 -30 hvcurveto
            return
          </CharString>
          <CharString index="36">
            hmoveto
            -69 callsubr
            return
          </CharString>
          <CharString index="37">
            -51 -45 -33 -68 -59 -53 24 45 -49 vhcurveto
            -59 -70 rlineto
            -51 46 79 -28 81 hhcurveto
            return
          </CharString>
          <CharString index="38">
            -75 callgsubr
            -21 -99 rlineto
            392 hlineto
            -514 -525 rlineto
            return
          </CharString>
          <CharString index="39">
            -212 rmoveto
            -67 callgsubr
            51 270 rlineto
            -38 4 25 -30 51 hhcurveto
            69 82 59 57 37 hvcurveto
            -9 -37 -1 -15 -10 vvcurveto
            hintmask 10111000
            -31 24 -18 40 12 16 2 3 20 vhcurveto
            21 94 rlineto
            -18 1 -8 6 14 vvcurveto
            5 1 4 1 -81 callgsubr
            hintmask 11011000
            -73 -45 -65 -40 -55 hhcurveto
            -47 -25 27 54 18 3 20 5 22 hvcurveto
            return
          </CharString>
          <CharString index="40">
            rmoveto
            -89 hlineto
            -71 -110 54 -17 rlineto
            249 127 rmoveto
            -89 hlineto
            -70 -110 53 -17 rlineto
            return
          </CharString>
          <CharString index="41">
            rmoveto
            15 70 rlineto
            -283 hlineto
            -14 -70 rlineto
            return
          </CharString>
          <CharString index="42">
            69 13 42 37 54 vvcurveto
            56 -55 42 -81 -62 -67 -22 -39 -35 vhcurveto
            32 -53 rlineto
            31 28 41 21 50 hhcurveto
            39 37 -17 -31 -44 -57 -21 -85 hvcurveto
            -22 hlineto
            -12 -61 rlineto
            22 hlineto
            return
          </CharString>
          <CharString index="43">
            130 611 rlineto
            222 -78 callsubr
            -557 -30 callgsubr
            222 hlineto
            endchar
          </CharString>
          <CharString index="44">
            -55 0 99 217 93 202 99 return
          </CharString>
          <CharString index="45">
            48 16 40 33 47 vvcurveto
            58 -63 37 -66 -77 -96 -49 -73 -34 23 -23 29 -12 vhcurveto
            return
          </CharString>
          <CharString index="46">
            15 21 -50 callgsubr
            return
          </CharString>
          <CharString index="47">
            -26 callgsubr
            106 121 -33 callgsubr
            18 86 rmoveto
            -67 callgsubr
            25 -31 callsubr
            return
          </CharString>
          <CharString index="48">
            121 hlineto
            150 193 rlineto
            225 hlineto
            -42 -193 rlineto
            453 -78 callsubr
            -341 hlineto
            46 213 rlineto
            281 -78 callsubr
            -281 hlineto
            42 200 rlineto
            332 hlineto
            22 99 rlineto
            -475 hlineto
            -234 -417 rmoveto
            229 288 -62 -288 rlineto
            endchar
          </CharString>
          <CharString index="49">
            -89 -10 81 153 72 155 81 return
          </CharString>
          <CharString index="50">
            -35 -37 17 28 36 46 22 48 39 34 -17 -28 -36 -53 -22 -42 hvcurveto
            return
          </CharString>
          <CharString index="51">
            42 16 -43 57 hhcurveto
            endchar
          </CharString>
          <CharString index="52">
            hstem
            -2 callsubr
            435 115 vstem
            return
          </CharString>
          <CharString index="53">
            -189 -88 callsubr
            return
          </CharString>
          <CharString index="54">
            -49 -31 -58 -31 -57 hhcurveto
            return
          </CharString>
          <CharString index="55">
            11 15 2 3 19 return
          </CharString>
          <CharString index="56">
            -3 callsubr
            0 223 return
          </CharString>
          <CharString index="57">
            vvcurveto
            -33 27 -28 55 -9 vhcurveto
            return
          </CharString>
          <CharString index="58">
            21 97 rlineto
            57 hlineto
            14 65 rlineto
            -58 hlineto
            54 252 rlineto
            -46 hlineto
            -286 -253 -14 -64 rlineto
            212 hlineto
            return
          </CharString>
          <CharString index="59">
            hstem
            20 112 288 102 vstem
            return
          </CharString>
          <CharString index="60">
            66 -36 callsubr
            return
          </CharString>
          <CharString index="61">
            -21 313 100 297 -20 hstem
            15 hmoveto
            -33 callsubr
            112 hlineto
            151 710 rlineto
            -112 hlineto
            -63 -297 rlineto
            -332 hlineto
            63 297 rlineto
            -113 hlineto
            return
          </CharString>
          <CharString index="62">
            80 48 -19 -37 -40 -53 -25 -61 -69 -32 40 23 -1 hvcurveto
            -47 -47 rlineto
            -53 4 53 -30 79 hhcurveto
            endchar
          </CharString>
          <CharString index="63">
            -10 -35 callgsubr
            return
          </CharString>
          <CharString index="64">
            8 callsubr
            -6 -25 -2 -14 -10 vvcurveto
            return
          </CharString>
          <CharString index="65">
            rmoveto
            -86 callsubr
            return
          </CharString>
          <CharString index="66">
            -40 callsubr
            -15 callgsubr
            hstem
            return
          </CharString>
          <CharString index="67">
            21 -26 callgsubr
            return
          </CharString>
          <CharString index="68">
            523 -84 callgsubr
            return
          </CharString>
          <CharString index="69">
            91 -5 101 517 102 return
          </CharString>
          <CharString index="70">
            607 -92 callgsubr
            -200 -702 rmoveto
            412 hlineto
            17 78 rlineto
            -290 hlineto
            367 376 15 69 rlineto
            -399 hlineto
            return
          </CharString>
          <CharString index="71">
            -23 67 5 -20 hstemhm
            return
          </CharString>
          <CharString index="72">
            -29 callgsubr
            endchar
          </CharString>
          <CharString index="73">
            -58 callsubr
            198 -20 -48 callsubr
            return
          </CharString>
          <CharString index="74">
            -1 callsubr
            67 313 rlineto
            332 hlineto
            -67 -313 rlineto
            return
          </CharString>
          <CharString index="75">
            57 -5 101 -75 -21 276 83 255 101 return
          </CharString>
          <CharString index="76">
            121 -84 callgsubr
            return
          </CharString>
          <CharString index="77">
            -21 247 99 265 99 return
          </CharString>
          <CharString index="78">
            -12 callgsubr
            -225 hlineto
            -20 -53 -59 -127 -26 -64 rrcurveto
            59 hlineto
            27 23 return
          </CharString>
          <CharString index="79">
            -1 callsubr
            45 214 123 113 154 -327 rlineto
            126 hlineto
            -195 396 331 314 rlineto
            -125 hlineto
            -386 -366 rlineto
            return
          </CharString>
          <CharString index="80">
            69 -14 66 145 67 -45 45 -45 69 return
          </CharString>
          <CharString index="81">
            -360 rlineto
            return
          </CharString>
          <CharString index="82">
            rmoveto
            29 137 rlineto
            -91 hlineto
            -29 -22 callsubr
            endchar
          </CharString>
          <CharString index="83">
            hlineto
            -90 -425 rlineto
            -67 callgsubr
            return
          </CharString>
          <CharString index="84">
            51 -51 122 hstemhm
            return
          </CharString>
          <CharString index="85">
            -137 rlineto
            return
          </CharString>
          <CharString index="86">
            22 105 rlineto
            -99 hlineto
            endchar
          </CharString>
          <CharString index="87">
            118 hlineto
            return
          </CharString>
          <CharString index="88">
            hstem
            21 119 -119 215 vstem
            return
          </CharString>
          <CharString index="89">
            -60 -4 callsubr
            return
          </CharString>
          <CharString index="90">
            94 -68 -21 return
          </CharString>
          <CharString index="91">
            -53 -18 -3 -21 -5 return
          </CharString>
          <CharString index="92">
            rlineto
            -97 hlineto
            -20 -95 rlineto
            hintmask 11101000
            61 -23 -54 43 -77 hhcurveto
            -152 -146 -152 -178 -117 62 -95 108 return
          </CharString>
          <CharString index="93">
            rmoveto
            -73 -45 61 79 104 86 110 100 55 52 -49 -64 8 hvcurveto
            -28 -22 callsubr
            -59 -29 -73 -45 -53 hhcurveto
            endchar
          </CharString>
          <CharString index="94">
            hstemhm
            -17 callgsubr
            return
          </CharString>
          <CharString index="95">
            -99 callsubr
            endchar
          </CharString>
          <CharString index="96">
            92 123 199 126 return
          </CharString>
          <CharString index="97">
            rmoveto
            54 55 16 19 31 hvcurveto
            -4 87 rlineto
            return
          </CharString>
          <CharString index="98">
            -124 -205 -21 749 -20 return
          </CharString>
          <CharString index="99">
            -20 -51 callsubr
            return
          </CharString>
          <CharString index="100">
            98 -72 39 -111 30 return
          </CharString>
          <CharString index="101">
            hvcurveto
            -64 -74 rlineto
            -31 26 return
          </CharString>
          <CharString index="102">
            -66 hlineto
            -18 -85 rlineto
            return
          </CharString>
          <CharString index="103">
            21 2 callgsubr
            return
          </CharString>
          <CharString index="104">
            hstemhm
            28 117 return
          </CharString>
          <CharString index="105">
            41 115 return
          </CharString>
          <CharString index="106">
            113 hlineto
            return
          </CharString>
          <CharString index="107">
            rmoveto
            -208 185 -18 -91 133 -119 -183 -115 -20 -90 284 175 rlineto
            endchar
          </CharString>
          <CharString index="108">
            -30 callsubr
            hstem
            511 116 vstem
            return
          </CharString>
          <CharString index="109">
            -21 523 return
          </CharString>
          <CharString index="110">
            -55 -8 99 243 84 194 98 hstemhm
            22 115 -25 25 -25 111 181 111 -68 return
          </CharString>
          <CharString index="111">
            280 224 rmoveto
            91 26 74 65 81 hhcurveto
            72 45 -51 -76 -10 -1 -9 -2 -10 hvcurveto
            endchar
          </CharString>
          <CharString index="112">
            -46 callgsubr
            226 -20 hstem
            return
          </CharString>
          <CharString index="113">
            -268 21 -21 428 98 -3 -20 return
          </CharString>
          <CharString index="114">
            451 0 78 -67 -21 26 -21 450 78 9 -20 218 -20 -22 callgsubr
            hintmask 10010110
            return
          </CharString>
          <CharString index="115">
            rmoveto
            69 78 38 67 51 hvcurveto
            return
          </CharString>
          <CharString index="116">
            -363 21 -21 return
          </CharString>
          <CharString index="117">
            181 730 rmoveto
            -57 -117 -27 -125 rlineto
            109 hlineto
            26 124 rlineto
            -34 hlineto
            return
          </CharString>
          <CharString index="118">
            -70 callsubr
            endchar
          </CharString>
          <CharString index="119">
            19 116 return
          </CharString>
          <CharString index="120">
            24 -33 -42 15 -50 hhcurveto
            -179 -142 -157 -167 -56 16 -51 31 -39 hvcurveto
            return
          </CharString>
          <CharString index="121">
            rmoveto
            95 99 45 89 43 -29 36 -50 8 hvcurveto
            return
          </CharString>
          <CharString index="122">
            0 99 512 31 callgsubr
            return
          </CharString>
          <CharString index="123">
            hvcurveto
            -2 -8 17 callgsubr
            return
          </CharString>
          <CharString index="124">
            67 -42 42 -42 73 return
          </CharString>
          <CharString index="125">
            -20 21 -20 hstemhm
            return
          </CharString>
          <CharString index="126">
            124 hlineto
            488 710 rlineto
            -496 hlineto
            -21 -101 rlineto
            322 hlineto
            endchar
          </CharString>
          <CharString index="127">
            -188 -19 callgsubr
            return
          </CharString>
          <CharString index="128">
            99 512 99 hstem
            556 116 vstem
            return
          </CharString>
          <CharString index="129">
            -20 7 callgsubr
            return
          </CharString>
          <CharString index="130">
            -2 callgsubr
            hstem
            return
          </CharString>
          <CharString index="131">
            -20 -10 -54 callgsubr
            -2 callgsubr
            -7 callgsubr
            return
          </CharString>
          <CharString index="132">
            48 callsubr
            115 return
          </CharString>
          <CharString index="133">
            598 rmoveto
            115 132 rlineto
            -129 hlineto
            -4 -42 -48 -68 rlineto
            return
          </CharString>
          <CharString index="134">
            92 -89 callgsubr
            return
          </CharString>
          <CharString index="135">
            -46 callgsubr
            111 -47 callsubr
            hintmask 11101000
            return
          </CharString>
          <CharString index="136">
            112 81 -46 93 -109 -137 -109 -133 -113 return
          </CharString>
          <CharString index="137">
            -21 709 18 callsubr
            return
          </CharString>
          <CharString index="138">
            24 -57 hhcurveto
            -138 -95 -122 -158 -89 50 -53 84 return
          </CharString>
          <CharString index="139">
            -95 -92 -80 -94 -69 50 -54 74 hvcurveto
            12 57 rmoveto
            -34 return
          </CharString>
          <CharString index="140">
            14 rmoveto
            186 483 186 -483 rlineto
            endchar
          </CharString>
          <CharString index="141">
            -38 -50 callsubr
            return
          </CharString>
          <CharString index="142">
            43 41 -22 -35 vhcurveto
            hintmask 11101010
            -144 157 rmoveto
            return
          </CharString>
          <CharString index="143">
            -56 -52 39 61 84 83 59 75 57 52 -37 -63 return
          </CharString>
          <CharString index="144">
            69 67 45 65 51 41 -30 -49 -74 -76 -41 -57 return
          </CharString>
          <CharString index="145">
            -21 440 91 199 -20 hstem
            424 100 vstem
            return
          </CharString>
          <CharString index="146">
            -191 -21 202 -31 callgsubr
            hstemhm
            return
          </CharString>
          <CharString index="147">
            48 hhcurveto
            23 27 -9 -12 16 hvcurveto
            41 82 rlineto
            20 return
          </CharString>
          <CharString index="148">
            -40 callsubr
            hstem
            return
          </CharString>
          <CharString index="149">
            292 0 99 94 100 19 99 200 99 return
          </CharString>
          <CharString index="150">
            2 callgsubr
            -9 22 callsubr
            return
          </CharString>
          <CharString index="151">
            -68 -30 -87 -70 -107 vvcurveto
            -105 82 -76 118 return
          </CharString>
          <CharString index="152">
            -67 callgsubr
            67 311 rlineto
            return
          </CharString>
          <CharString index="153">
            -164 0 78 367 78 return
          </CharString>
          <CharString index="154">
            -10 94 -63 -21 438 94 return
          </CharString>
          <CharString index="155">
            -17 callgsubr
            298 return
          </CharString>
          <CharString index="156">
            608 rmoveto
            60 hlineto
            return
          </CharString>
          <CharString index="157">
            -40 callsubr
            112 110 hstem
            return
          </CharString>
          <CharString index="158">
            108 236 109 313 108 return
          </CharString>
          <CharString index="159">
            -10 81 154 70 -39 63 135 78 return
          </CharString>
          <CharString index="160">
            -52 -10 94 -66 -21 441 94 -6 -20 return
          </CharString>
          <CharString index="161">
            47 220 rlineto
            -94 hlineto
            -47 -220 rlineto
            return
          </CharString>
          <CharString index="162">
            93 68 93 65 -51 45 -76 hvcurveto
            endchar
          </CharString>
          <CharString index="163">
            -155 -171 return
          </CharString>
        <CharString name=".notdef">
          -634 endchar
        </CharString>
        <CharString name="A">
          -61 callsubr
          hstem
          -103 callsubr
          endchar
        </CharString>
        <CharString name="A.sc">
          -64 21 -21 144 86 325 -20 hstem
          -50 hmoveto
          107 hlineto
          89 144 rlineto
          218 hlineto
          29 -144 rlineto
          104 hlineto
          -114 555 rlineto
          -82 hlineto
          -115 -325 rmoveto
          130 203 43 -203 rlineto
          endchar
        </CharString>
        <CharString name="AE">
          42 callsubr
          hstem
          -80 hmoveto
          -59 callsubr
        </CharString>
        <CharString name="AEacute">
          42 callsubr
          206 -20 hstem
          716 916 -96 callgsubr
          -685 -788 rmoveto
          -59 callsubr
        </CharString>
        <CharString name="Aacute">
          -61 callsubr
          226 -20 hstem
          -103 callsubr
          121 640 -49 callgsubr
        </CharString>
        <CharString name="Abreve">
          -61 callsubr
          104 -23 callsubr
          330 63 hintmask 11110100
          -103 callsubr
          7 569 -47 callgsubr
          hintmask 11101100
          -100 callsubr
          hintmask 11110100
          -57 callgsubr
        </CharString>
        <CharString name="Acircumflex">
          -61 callsubr
          226 -20 hstem
          -103 callsubr
          -76 517 -62 callgsubr
        </CharString>
        <CharString name="Adblgrave">
          -61 callsubr
          228 -20 hstem
          -103 callsubr
          58 513 -39 callgsubr
        </CharString>
        <CharString name="Adieresis">
          -61 callsubr
          112 110 hstem
          -103 callsubr
          -45 526 -73 callgsubr
        </CharString>
        <CharString name="Agrave">
          -61 callsubr
          -15 callgsubr
          hstem
          -103 callsubr
          -38 512 -77 callgsubr
        </CharString>
        <CharString name="Ainvertedbreve">
          -61 callsubr
          104 -27 callgsubr
          488 61 hintmask 11110100
          -103 callsubr
          -114 518 rmoveto
          60 hlineto
          hintmask 11101100
          -74 callgsubr
          hintmask 11110100
          -45 callgsubr
        </CharString>
        <CharString name="Amacron">
          -61 callsubr
          138 70 hstem
          -103 callsubr
          149 552 -66 callsubr
          endchar
        </CharString>
        <CharString name="Aogonek">
          15 -167 -21 209 -50 callgsubr
          hstem
          413 70 vstem
          495 20 callsubr
          -114 710 rlineto
          -99 hlineto
          -415 -710 rlineto
          -20 callsubr
          109 193 rlineto
          255 hlineto
          28 -193 rlineto
          52 hlineto
          -68 -40 -31 -39 -39 -50 callsubr
          -281 464 rmoveto
          174 305 40 -305 rlineto
          endchar
        </CharString>
        <CharString name="Aring">
          -61 callsubr
          80 36 74 36 hstem
          352 50 78 48 vstem
          -103 callsubr
          -76 553 -89 callsubr
          endchar
        </CharString>
        <CharString name="Aringacute">
          -61 callsubr
          230 -20 hstem
          333 50 78 48 vstem
          586 920 rmoveto
          -105 hlineto
          -76 -104 rlineto
          -42 -10 -30 -30 -43 vvcurveto
          -19 7 -14 13 -11 vhcurveto
          -403 -689 rlineto
          -20 callsubr
          109 193 rlineto
          255 hlineto
          28 -193 rlineto
          -20 callsubr
          -111 689 rlineto
          26 15 16 26 31 vvcurveto
          21 -9 17 -16 10 vhcurveto
          -270 -533 rmoveto
          174 305 40 -305 rlineto
          1 508 rmoveto
          19 13 -12 -18 -25 -25 -19 -22 -19 -12 14 17 25 22 18 24 hvcurveto
          endchar
        </CharString>
        <CharString name="Atilde">
          -61 callsubr
          111 -47 callsubr
          hintmask 11110100
          -103 callsubr
          64 525 -89 callgsubr
          hintmask 11101000
          -93 callgsubr
          hintmask 11110100
          -56 callsubr
        </CharString>
        <CharString name="B">
          17 0 97 217 90 209 97 hstemhm
          481 111 -73 73 -73 118 hintmask 11110000
          15 hmoveto
          324 hlineto
          130 123 84 138 69 -33 53 -59 20 hvcurveto
          hintmask 11100100
          83 35 54 83 83 vvcurveto
          74 -41 71 -79 vhcurveto
          -351 hlineto
          -17 -613 rmoveto
          45 217 rlineto
          218 hlineto
          hintmask 11110000
          42 27 -40 -47 -70 -60 -60 -62 hvcurveto
          -146 307 rmoveto
          45 209 rlineto
          197 hlineto
          hintmask 11101000
          39 25 -34 -47 -72 -56 -56 -59 hvcurveto
          endchar
        </CharString>
        <CharString name="B.sc">
          -65 0 85 156 79 148 87 hstemhm
          402 99 -71 71 -71 103 hintmask 11110000
          9 hmoveto
          277 hlineto
          112 103 62 110 56 -30 41 -51 16 hvcurveto
          hintmask 11100100
          69 26 44 64 64 vvcurveto
          59 -35 57 -69 vhcurveto
          -302 hlineto
          -470 vmoveto
          32 156 rlineto
          184 hlineto
          hintmask 11110000
          36 23 -30 -35 -49 -48 -42 -51 hvcurveto
          -127 235 rmoveto
          32 148 rlineto
          165 hlineto
          hintmask 11101000
          34 23 -23 -35 -54 -45 -36 -47 hvcurveto
          endchar
        </CharString>
        <CharString name="C">
          23 callgsubr
          hstem
          -2 callsubr
          vstem
          294 -6 -90 callsubr
          endchar
        </CharString>
        <CharString name="C.sc">
          -64 -5 89 385 89 hstem
          27 102 vstem
          247 -5 rmoveto
          90 115 46 83 54 hvcurveto
          -71 48 rlineto
          -62 -42 -70 -26 -54 hhcurveto
          -89 -51 73 84 104 87 124 133 52 58 -21 -64 17 hvcurveto
          87 53 rlineto
          72 -20 -69 49 -103 hhcurveto
          -200 -144 -173 -151 -122 80 -117 140 hvcurveto
          endchar
        </CharString>
        <CharString name="CR">
          -634 endchar
        </CharString>
        <CharString name="Cacute">
          23 callgsubr
          202 -20 hstem
          -2 callsubr
          vstem
          595 916 -96 callgsubr
          -190 -794 -90 callsubr
          endchar
        </CharString>
        <CharString name="Ccaron">
          23 callgsubr
          0 79 19 callgsubr
          -2 callsubr
          hintmask 10111000
          433 793 -92 callgsubr
          -61 -894 rmoveto
          108 137 59 106 64 hvcurveto
          -82 53 rlineto
          -83 -52 -84 -34 -65 hhcurveto
          -104 -60 95 112 hvcurveto
          hintmask 11011000
          139 109 172 162 64 68 -27 -86 18 vhcurveto
          100 59 rlineto
          91 -24 -78 64 -122 hhcurveto
          -237 -175 -224 -195 -154 92 -147 161 hvcurveto
          endchar
        </CharString>
        <CharString name="Ccedilla">
          18 18 callgsubr
          36 100 518 101 hstem
          38 115 171 54 vstem
          149 -169 rmoveto
          -76 callgsubr
          33 40 104 7 123 58 60 99 rlinecurve
          -82 53 rlineto
          -83 -52 -84 -34 -65 hhcurveto
          -104 -60 95 112 139 109 172 162 64 68 -27 -86 18 hvcurveto
          100 59 rlineto
          91 -24 -78 64 -122 hhcurveto
          -237 -175 -224 -195 -145 81 -139 144 -15 hvcurveto
          -61 -86 -78 callgsubr
          endchar
        </CharString>
        <CharString name="Ccircumflex">
          23 callgsubr
          202 -20 hstem
          -2 callsubr
          vstem
          397 793 -102 callsubr
          -51 -827 -90 callsubr
          endchar
        </CharString>
        <CharString name="Cdotaccent">
          23 callgsubr
          87 115 hstem
          -2 callsubr
          vstem
          294 -6 -90 callsubr
          234 807 -75 callsubr
          endchar
        </CharString>
        <CharString name="D">
          58 0 21 callsubr
          15 hmoveto
          -86 callsubr
          -79 callgsubr
        </CharString>
        <CharString name="D.sc">
          -25 0 88 379 88 hstem
          468 103 vstem
          9 hmoveto
          209 hlineto
          202 151 140 195 124 -75 96 -160 hvcurveto
          -209 hlineto
          -467 vmoveto
          81 379 rlineto
          109 hlineto
          99 52 -60 -87 -124 -89 -108 -142 hvcurveto
          endchar
        </CharString>
        <CharString name="Dcaron">
          58 15 callsubr
          556 116 hintmask 10111000
          375 793 -92 callgsubr
          -282 -888 -42 callsubr
          -17 -611 rmoveto
          hintmask 11011000
          109 512 -83 callgsubr
        </CharString>
        <CharString name="Dcroat">
          64 0 99 216 84 212 99 hstem
          562 116 vstem
          39 315 rmoveto
          49 hlineto
          -67 -315 rlineto
          -86 callsubr
          -66 -311 rlineto
          -49 hlineto
          98 -300 rmoveto
          46 216 rlineto
          141 hlineto
          17 84 rlineto
          -140 hlineto
          45 212 -83 callgsubr
        </CharString>
        <CharString name="Ddotbelow">
          58 -37 callgsubr
          73 21 callsubr
          275 -54 callsubr
          -160 189 -42 callsubr
          -79 callgsubr
        </CharString>
        <CharString name="Delta">
          23 0 99 611 -20 hstem
          350 710 rmoveto
          -92 hlineto
          -259 -625 rlineto
          -85 608 85 vlineto
          -489 33 callsubr
        </CharString>
        <CharString name="E">
          -63 callsubr
          hstem
          15 hmoveto
          464 -78 callsubr
          -351 hlineto
          46 217 rlineto
          297 hlineto
          19 93 rlineto
          -296 hlineto
          43 202 rlineto
          342 -78 callsubr
          -455 hlineto
          endchar
        </CharString>
        <CharString name="E.sc">
          -121 0 88 154 81 144 88 hstem
          9 hmoveto
          402 hlineto
          19 88 rlineto
          -303 hlineto
          33 154 rlineto
          256 hlineto
          17 81 rlineto
          -256 hlineto
          31 144 rlineto
          295 hlineto
          19 88 rlineto
          -395 hlineto
          endchar
        </CharString>
        <CharString name="Eacute">
          -63 callsubr
          206 -20 hstem
          543 916 -96 callgsubr
          -417 -788 rmoveto
          464 -78 callsubr
          -351 hlineto
          46 217 rlineto
          297 hlineto
          19 93 rlineto
          -296 hlineto
          43 202 rlineto
          342 -78 callsubr
          -455 hlineto
          endchar
        </CharString>
        <CharString name="Ebreve">
          -63 callsubr
          84 -23 callsubr
          308 63 hintmask 11110100
          15 hmoveto
          464 -78 callsubr
          -351 hlineto
          46 217 rlineto
          297 hlineto
          19 93 rlineto
          -296 hlineto
          43 202 rlineto
          342 -78 callsubr
          -455 hlineto
          247 135 -47 callgsubr
          hintmask 11101100
          -100 callsubr
          hintmask 11110100
          -57 callgsubr
        </CharString>
        <CharString name="Ecaron">
          -63 callsubr
          0 83 123 -20 hstemhm
          hintmask 11011000
          366 793 -92 callgsubr
          -273 -888 rmoveto
          464 -78 callsubr
          -351 hlineto
          46 217 rlineto
          297 hlineto
          19 93 rlineto
          -296 hlineto
          hintmask 11101000
          43 202 rlineto
          342 -78 callsubr
          -455 hlineto
          endchar
        </CharString>
        <CharString name="Ecircumflex">
          -63 callsubr
          206 -20 hstem
          337 793 -102 callsubr
          -270 -821 rmoveto
          464 -78 callsubr
          -351 hlineto
          46 217 rlineto
          297 hlineto
          19 93 rlineto
          -296 hlineto
          43 202 rlineto
          342 -78 callsubr
          -455 hlineto
          endchar
        </CharString>
        <CharString name="Edblgrave">
          -63 callsubr
          208 -20 hstem
          479 789 -95 callsubr
          -268 -918 rmoveto
          464 -78 callsubr
          -351 hlineto
          46 217 rlineto
          297 hlineto
          19 93 rlineto
          -296 hlineto
          43 202 rlineto
          342 -78 callsubr
          -455 hlineto
          endchar
        </CharString>
        <CharString name="Edieresis">
          -63 callsubr
          92 110 hstem
          374 802 -100 callgsubr
          -439 -802 rmoveto
          464 -78 callsubr
          -351 hlineto
          46 217 rlineto
          297 hlineto
          19 93 rlineto
          -296 hlineto
          43 202 rlineto
          342 -78 callsubr
          -455 hlineto
          endchar
        </CharString>
        <CharString name="Edotaccent">
          -63 callsubr
          91 115 hstem
          15 hmoveto
          464 -78 callsubr
          -351 hlineto
          46 217 rlineto
          297 hlineto
          19 93 rlineto
          -296 hlineto
          43 202 rlineto
          342 -78 callsubr
          -455 hlineto
          297 91 -75 callsubr
          endchar
        </CharString>
        <CharString name="Edotbelow">
          -55 -37 callgsubr
          73 99 217 93 202 99 hstem
          15 hmoveto
          464 -78 callsubr
          -351 hlineto
          46 217 rlineto
          297 hlineto
          19 93 rlineto
          -296 hlineto
          43 202 rlineto
          342 -78 callsubr
          -455 hlineto
          87 -899 -88 callsubr
          endchar
        </CharString>
        <CharString name="Egrave">
          -63 callsubr
          207 -20 hstem
          15 hmoveto
          464 -78 callsubr
          -351 hlineto
          46 217 rlineto
          297 hlineto
          19 93 rlineto
          -296 hlineto
          43 202 rlineto
          342 -78 callsubr
          -455 hlineto
          230 78 -77 callgsubr
        </CharString>
        <CharString name="Einvertedbreve">
          -63 callsubr
          84 -27 callgsubr
          473 61 hintmask 11110100
          299 794 rmoveto
          60 hlineto
          hintmask 11101100
          -74 callgsubr
          hintmask 11110100
          -97 callgsubr
          -284 -794 rmoveto
          464 -78 callsubr
          -351 hlineto
          46 217 rlineto
          297 hlineto
          19 93 rlineto
          -296 hlineto
          43 202 rlineto
          342 -78 callsubr
          -455 hlineto
          endchar
        </CharString>
        <CharString name="Emacron">
          -63 callsubr
          118 70 hstem
          15 hmoveto
          464 -78 callsubr
          -351 hlineto
          46 217 rlineto
          297 hlineto
          19 93 rlineto
          -296 hlineto
          43 202 rlineto
          342 -78 callsubr
          -455 hlineto
          393 118 -66 callsubr
          endchar
        </CharString>
        <CharString name="Eng">
          92 -191 96 116 30 callsubr
          hintmask 11100000
          376 -191 rmoveto
          88 93 71 105 22 hvcurveto
          154 724 rlineto
          -112 hlineto
          -108 -505 rlineto
          hintmask 11010000
          -260 506 rlineto
          -87 hlineto
          -151 -710 rlineto
          -1 callsubr
          106 498 243 -477 -9 -40 rlineto
          -44 -9 -39 -32 -37 hhcurveto
          -21 -21 7 16 -12 -6 callsubr
          40 -14 45 hhcurveto
          endchar
        </CharString>
        <CharString name="Eogonek">
          -55 -167 -21 188 99 217 93 202 99 hstem
          121 70 vstem
          15 hmoveto
          205 hlineto
          -68 -40 -31 -39 -39 -50 callsubr
          -36 callgsubr
          193 -78 callsubr
          -351 hlineto
          46 217 rlineto
          297 hlineto
          19 93 rlineto
          -296 hlineto
          43 202 rlineto
          342 -78 callsubr
          -455 hlineto
          endchar
        </CharString>
        <CharString name="Eth">
          64 0 99 216 84 212 99 hstem
          562 116 vstem
          39 315 rmoveto
          49 hlineto
          -67 -315 rlineto
          -86 callsubr
          -66 -311 rlineto
          -49 hlineto
          98 -300 rmoveto
          46 216 rlineto
          141 hlineto
          17 84 rlineto
          -140 hlineto
          45 212 -83 callgsubr
        </CharString>
        <CharString name="Etilde">
          -63 callsubr
          91 -47 callsubr
          hintmask 11110100
          15 hmoveto
          464 -78 callsubr
          -351 hlineto
          46 217 rlineto
          297 hlineto
          19 93 rlineto
          -296 hlineto
          43 202 rlineto
          342 -78 callsubr
          -455 hlineto
          302 91 -89 callgsubr
          hintmask 11101000
          -93 callgsubr
          hintmask 11110100
          -56 callsubr
        </CharString>
        <CharString name="Euro">
          125 -6 101 156 62 56 62 182 101 hstem
          104 431 rmoveto
          -39 -62 rlineto
          66 hlineto
          -4 -19 -3 -19 -1 -18 rrcurveto
          -60 hlineto
          -40 -62 rlineto
          102 hlineto
          -137 16 89 -120 146 hhcurveto
          108 137 59 106 64 hvcurveto
          -82 53 rlineto
          -83 -52 -85 -34 -65 hhcurveto
          -87 -57 67 89 -16 hvcurveto
          199 hlineto
          39 62 rlineto
          -242 hlineto
          18 3 19 5 19 vhcurveto
          252 hlineto
          39 62 rlineto
          -271 hlineto
          98 42 89 84 113 hhcurveto
          63 69 -27 -86 18 hvcurveto
          100 59 rlineto
          91 -24 -78 64 -123 hhcurveto
          -182 -145 -133 -150 -58 hvcurveto
          endchar
        </CharString>
        <CharString name="F">
          -73 21 -21 306 93 212 99 hstem
          15 hmoveto
          -1 callsubr
          65 306 54 callgsubr
          45 212 rlineto
          337 -78 callsubr
          -450 hlineto
          endchar
        </CharString>
        <CharString name="F.sc">
          -139 21 -21 233 82 152 88 hstem
          57 callgsubr
          50 233 rlineto
          243 hlineto
          18 82 rlineto
          -244 hlineto
          33 152 rlineto
          290 hlineto
          19 88 rlineto
          -390 hlineto
          endchar
        </CharString>
        <CharString name="G">
          -32 callsubr
          hstemhm
          -2 callsubr
          hintmask 01111000
          487 hmoveto
          -66 callgsubr
          hintmask 10111000
          -98 callgsubr
          endchar
        </CharString>
        <CharString name="G.alt">
          62 -5 101 170 100 248 101 hstem
          42 114 vstem
          301 -5 rmoveto
          175 151 145 168 44 hvcurveto
          3 11 8 37 3 10 rrcurveto
          -284 hlineto
          -21 -100 rlineto
          161 hlineto
          -87 -36 -93 -83 -99 hhcurveto
          -106 -51 98 103 149 116 168 152 92 42 -71 -49 15 hvcurveto
          104 71 rlineto
          92 -33 -79 58 -114 hhcurveto
          -224 -185 -214 -209 -157 95 -140 164 hvcurveto
          endchar
        </CharString>
        <CharString name="G.sc">
          -38 -4 89 -64 -21 210 73 187 89 hstemhm
          28 101 hintmask 01111000
          403 hmoveto
          83 hlineto
          60 283 rlineto
          -203 hlineto
          -15 -73 rlineto
          119 hlineto
          -10 -47 rlineto
          hintmask 10111000
          -52 -57 -56 -26 -55 hhcurveto
          -86 -54 67 87 117 97 114 118 62 50 -30 -58 17 hvcurveto
          87 56 rlineto
          72 -22 -65 49 -107 hhcurveto
          -177 -161 56 callsubr
          -126 84 -111 130 60 57 22 46 57 hvcurveto
          endchar
        </CharString>
        <CharString name="Gacute">
          -32 callsubr
          201 -20 hstemhm
          -2 callsubr
          hintmask 01111100
          581 916 -96 callgsubr
          17 -788 rmoveto
          -66 callgsubr
          hintmask 10111100
          -98 callgsubr
          endchar
        </CharString>
        <CharString name="Gbreve">
          -32 callsubr
          79 -23 callsubr
          -2 callsubr
          209 63 hintmask 01111011
          487 hmoveto
          -66 callgsubr
          hintmask 10111011
          -98 callgsubr
          hintmask 01111011
          -35 758 -47 callgsubr
          hintmask 10110111
          -100 callsubr
          hintmask 10111011
          -57 callgsubr
        </CharString>
        <CharString name="Gcircumflex">
          -32 callsubr
          201 -20 hstemhm
          -2 callsubr
          hintmask 01111100
          385 793 -102 callsubr
          154 -821 rmoveto
          -66 callgsubr
          hintmask 10111100
          -98 callgsubr
          endchar
        </CharString>
        <CharString name="Gcommaaccent">
          57 -3 callgsubr
          43 0 101 -75 -21 276 83 255 101 hstemhm
          -2 callsubr
          hintmask 11011110
          266 -91 callsubr
          272 213 rmoveto
          -66 callgsubr
          hintmask 10101110
          -98 callgsubr
          endchar
        </CharString>
        <CharString name="Gdotaccent">
          -32 callsubr
          86 115 hstemhm
          -2 callsubr
          hintmask 01111100
          487 hmoveto
          -66 callgsubr
          hintmask 10111100
          -98 callgsubr
          hintmask 01111100
          16 714 -75 callsubr
          endchar
        </CharString>
        <CharString name="H">
          81 21 -46 callsubr
          endchar
        </CharString>
        <CharString name="H.sc">
          -6 21 -21 240 88 -15 callgsubr
          hstem
          57 callgsubr
          51 240 rlineto
          284 hlineto
          -50 -240 rlineto
          99 hlineto
          118 555 rlineto
          -100 hlineto
          -47 -227 rlineto
          -285 hlineto
          48 227 rlineto
          -99 hlineto
          endchar
        </CharString>
        <CharString name="Hbar">
          90 21 -21 313 100 133 56 -56 164 hstemhm
          hintmask 11100000
          89 546 rmoveto
          47 hlineto
          -116 -546 rlineto
          -33 callsubr
          -1 callsubr
          116 546 rlineto
          47 hlineto
          12 56 rlineto
          -47 hlineto
          hintmask 11010000
          23 108 rlineto
          -113 hlineto
          hintmask 11100000
          -23 -108 rlineto
          -332 hlineto
          hintmask 11010000
          23 108 rlineto
          -113 hlineto
          hintmask 11100000
          -23 -108 rlineto
          -47 hlineto
          120 -189 rmoveto
          28 133 rlineto
          332 hlineto
          -28 -133 rlineto
          endchar
        </CharString>
        <CharString name="Hcircumflex">
          81 21 -21 313 100 297 -20 226 -20 hstem
          379 793 -102 callsubr
          -312 -821 rmoveto
          -33 callsubr
          112 hlineto
          151 710 rlineto
          -112 hlineto
          -63 -297 rlineto
          -332 hlineto
          63 297 rlineto
          -113 hlineto
          endchar
        </CharString>
        <CharString name="Hdotbelow">
          81 -37 callgsubr
          94 -46 callsubr
          138 -899 -88 callsubr
          endchar
        </CharString>
        <CharString name="I">
          9 callsubr
          709 -20 hstem
          15 hmoveto
          113 -84 callsubr
          endchar
        </CharString>
        <CharString name="I.sc">
          -389 -18 callgsubr
          57 callgsubr
          118 555 rlineto
          -99 hlineto
          endchar
        </CharString>
        <CharString name="IJ">
          112 -11 101 -69 -21 709 -20 hstemhm
          hintmask 01100000
          15 hmoveto
          113 -84 callsubr
          hintmask 10100000
          201 -720 rmoveto
          215 57 144 216 46 48 callgsubr
          -112 hlineto
          -77 -26 callsubr
          -171 -37 -33 -88 -115 hhcurveto
          -54 -41 19 16 -17 hvcurveto
          -46 -92 rlineto
          -29 34 45 -15 58 hhcurveto
          endchar
        </CharString>
        <CharString name="Iacute">
          9 callsubr
          916 -20 hstem
          15 hmoveto
          113 -84 callsubr
          187 207 -49 callgsubr
        </CharString>
        <CharString name="Ibreve">
          9 callsubr
          794 -23 callsubr
          136 63 hintmask 11010000
          15 hmoveto
          113 -84 callsubr
          75 136 -47 callgsubr
          hintmask 10110000
          -100 callsubr
          hintmask 11010000
          -57 callgsubr
        </CharString>
        <CharString name="Icircumflex">
          9 callsubr
          916 -20 hstem
          15 hmoveto
          113 -84 callsubr
          -8 84 -62 callgsubr
        </CharString>
        <CharString name="Idblgrave">
          9 callsubr
          918 -20 hstem
          15 hmoveto
          113 -84 callsubr
          133 80 -39 callgsubr
        </CharString>
        <CharString name="Idieresis">
          9 callsubr
          802 110 hstem
          15 hmoveto
          113 -84 callsubr
          36 93 -73 callgsubr
        </CharString>
        <CharString name="Idotaccent">
          9 callsubr
          801 115 hstem
          15 hmoveto
          113 -84 callsubr
          125 92 -75 callsubr
          endchar
        </CharString>
        <CharString name="Idotbelow">
          -363 -37 callgsubr
          94 -21 709 -20 hstem
          15 hmoveto
          113 -84 callsubr
          -86 -898 -88 callsubr
          endchar
        </CharString>
        <CharString name="Igrave">
          9 callsubr
          917 -20 hstem
          15 hmoveto
          113 -84 callsubr
          54 79 -77 callgsubr
        </CharString>
        <CharString name="Iinvertedbreve">
          9 callsubr
          794 -27 callgsubr
          299 61 hintmask 11010000
          15 hmoveto
          113 -84 callsubr
          -41 85 rmoveto
          60 hlineto
          hintmask 10110000
          -74 callgsubr
          hintmask 11010000
          -45 callgsubr
        </CharString>
        <CharString name="Imacron">
          9 callsubr
          828 70 hstem
          15 hmoveto
          113 -84 callsubr
          223 119 -66 callsubr
          endchar
        </CharString>
        <CharString name="Iogonek">
          -363 -167 -21 209 -21 709 -20 hstem
          -38 70 vstem
          15 hmoveto
          46 -1 callgsubr
          68 38 vhcurveto
          151 709 rlineto
          -113 hlineto
          endchar
        </CharString>
        <CharString name="Itilde">
          9 callsubr
          801 -47 callsubr
          hintmask 11010000
          15 hmoveto
          113 -84 callsubr
          139 27 callsubr
          hintmask 10100000
          -93 callgsubr
          hintmask 11010000
          -56 callsubr
        </CharString>
        <CharString name="J">
          -159 -11 101 619 -20 hstem
          96 -11 rmoveto
          215 57 144 216 46 48 callgsubr
          -112 hlineto
          -77 -26 callsubr
          -171 -37 -33 -88 -115 hhcurveto
          -54 -41 19 16 -17 hvcurveto
          -46 -92 rlineto
          -29 34 45 -15 58 hhcurveto
          endchar
        </CharString>
        <CharString name="J.sc">
          -212 -8 88 475 -20 hstem
          81 -8 rmoveto
          187 46 112 169 36 hvcurveto
          61 282 rlineto
          -100 hlineto
          -60 -282 rlineto
          -129 -27 -26 -64 -98 hhcurveto
          -48 -36 15 12 -14 hvcurveto
          -41 -82 rlineto
          -22 30 39 -11 51 hhcurveto
          endchar
        </CharString>
        <CharString name="Jcircumflex">
          -159 -11 101 826 -20 hstem
          371 793 -102 callsubr
          -223 -832 rmoveto
          215 57 144 216 46 48 callgsubr
          -112 hlineto
          -77 -26 callsubr
          -171 -37 -33 -88 -115 hhcurveto
          -54 -41 19 16 -17 hvcurveto
          -46 -92 rlineto
          -29 34 45 -15 58 hhcurveto
          endchar
        </CharString>
        <CharString name="K">
          0 21 30 callsubr
          hintmask 10100000
          15 hmoveto
          -28 callsubr
          hintmask 11000000
          78 365 rlineto
          -113 hlineto
          endchar
        </CharString>
        <CharString name="K.sc">
          -73 -18 callgsubr
          57 callgsubr
          36 168 104 84 142 -252 rlineto
          106 hlineto
          -175 309 279 246 rlineto
          -105 hlineto
          -328 -279 59 279 rlineto
          -99 hlineto
          endchar
        </CharString>
        <CharString name="Kcommaaccent">
          0 -192 -21 234 30 callsubr
          hintmask 11010000
          251 -91 callsubr
          -185 213 rmoveto
          -28 callsubr
          hintmask 11100000
          78 365 rlineto
          -113 hlineto
          endchar
        </CharString>
        <CharString name="L">
          -74 0 99 611 -20 hstem
          15 hmoveto
          -56 callgsubr
          endchar
        </CharString>
        <CharString name="L.sc">
          -168 0 88 467 -20 hstem
          9 hmoveto
          383 hlineto
          18 88 rlineto
          -283 hlineto
          99 467 rlineto
          -99 hlineto
          endchar
        </CharString>
        <CharString name="Lacute">
          -74 0 99 611 -20 226 -20 hstem
          366 916 -96 callgsubr
          -240 -788 rmoveto
          -56 callgsubr
          endchar
        </CharString>
        <CharString name="Lcaron">
          -74 0 99 631 -20 hstem
          396 -48 callgsubr
          -315 -620 rmoveto
          -56 callgsubr
          endchar
        </CharString>
        <CharString name="Lcommaaccent">
          -74 -3 callgsubr
          48 20 callgsubr
          hstemhm
          223 -91 callsubr
          -157 213 rmoveto
          470 hlineto
          hintmask 11100000
          21 99 rlineto
          -357 hlineto
          130 611 rlineto
          -113 hlineto
          endchar
        </CharString>
        <CharString name="Ldot">
          -74 0 99 242 137 232 -20 hstem
          15 hmoveto
          -56 callgsubr
          256 -369 -25 callsubr
        </CharString>
        <CharString name="Lslash">
          -67 0 99 611 -20 hstem
          22 237 rmoveto
          59 38 -58 -275 rlineto
          469 -78 callsubr
          -357 hlineto
          55 258 168 107 -16 60 -135 -85 58 271 rlineto
          -112 hlineto
          -75 -353 -93 -59 rlineto
          endchar
        </CharString>
        <CharString name="M">
          200 9 callgsubr
          15 hmoveto
          -1 callsubr
          109 511 112 -387 rlineto
          62 hlineto
          276 387 -109 -511 rlineto
          -1 callsubr
          151 710 rlineto
          -119 hlineto
          -311 -434 -126 434 rlineto
          -120 hlineto
          endchar
        </CharString>
        <CharString name="M.sc">
          97 -18 callgsubr
          57 callgsubr
          81 380 106 -285 rlineto
          54 hlineto
          227 285 -81 -380 rlineto
          99 hlineto
          118 555 rlineto
          -106 hlineto
          -255 -325 -117 325 rlineto
          -107 hlineto
          endchar
        </CharString>
        <CharString name="N">
          102 21 30 callsubr
          hintmask 11000000
          15 hmoveto
          -87 callsubr
          rlineto
          hintmask 10100000
          -35 callsubr
        </CharString>
        <CharString name="N.sc">
          12 -18 callgsubr
          57 callgsubr
          79 370 241 -370 rlineto
          82 hlineto
          118 555 rlineto
          -100 hlineto
          -80 -378 -244 378 rlineto
          -77 hlineto
          endchar
        </CharString>
        <CharString name="NULL">
          -634 endchar
        </CharString>
        <CharString name="Nacute">
          102 5 callsubr
          596 916 -96 callgsubr
          -470 -788 rmoveto
          -87 callsubr
          -35 callsubr
        </CharString>
        <CharString name="Ncaron">
          102 5 callsubr
          422 793 -92 callgsubr
          -329 -888 rmoveto
          -87 callsubr
          -35 callsubr
        </CharString>
        <CharString name="Ncommaaccent">
          102 -192 -21 234 30 callsubr
          hintmask 11100000
          275 -91 callsubr
          -209 213 rmoveto
          -87 callsubr
          rlineto
          hintmask 11010000
          -35 callsubr
        </CharString>
        <CharString name="Ndotaccent">
          102 -46 callgsubr
          111 115 hstem
          519 801 -75 callsubr
          -405 -801 rmoveto
          -87 callsubr
          -35 callsubr
        </CharString>
        <CharString name="Ntilde">
          102 28 callsubr
          15 hmoveto
          -87 callsubr
          -29 callgsubr
          369 91 -89 callgsubr
          hintmask 11010000
          -93 callgsubr
          hintmask 11101000
          -56 callsubr
        </CharString>
        <CharString name="O">
          -38 callsubr
          -55 callsubr
          -79 callsubr
          endchar
        </CharString>
        <CharString name="O.sc">
          -7 -4 89 384 89 hstem
          26 102 360 102 vstem
          248 -4 rmoveto
          181 161 161 166 121 -78 114 -143 -180 -163 -161 -167 -122 80 -112 142 hvcurveto
          21 89 rmoveto
          -93 -48 73 82 108 94 121 127 90 49 -72 -83 -106 -92 -123 -127 hvcurveto
          endchar
        </CharString>
        <CharString name="OE">
          421 0 99 -83 -21 317 99 203 96 5 -20 hstemhm
          -2 callsubr
          hintmask 01110100
          292 -5 rmoveto
          90 89 59 78 60 hvcurveto
          hintmask 10110100
          -29 -132 rlineto
          454 -78 callsubr
          -341 hlineto
          46 213 rlineto
          281 -78 callsubr
          -281 hlineto
          42 200 rlineto
          333 -78 callsubr
          -446 hlineto
          -27 -132 rlineto
          hintmask 01101100
          77 -26 -61 60 -92 hhcurveto
          -211 -195 -210 -217 -153 90 -140 161 hvcurveto
          22 101 rmoveto
          -104 -54 93 108 hvcurveto
          hintmask 10110100
          148 116 169 152 102 56 -94 -107 -147 -115 -170 -153 vhcurveto
          endchar
        </CharString>
        <CharString name="Oacute">
          -38 callsubr
          201 -20 -55 callsubr
          595 916 -96 callgsubr
          -187 -793 rmoveto
          -106 callgsubr
          endchar
        </CharString>
        <CharString name="Obreve">
          -38 callsubr
          79 -23 callsubr
          -2 callsubr
          214 63 158 115 hintmask 11101110
          -79 callsubr
          156 749 -47 callgsubr
          hintmask 11011110
          -100 callsubr
          hintmask 11101110
          -57 callgsubr
        </CharString>
        <CharString name="Ocircumflex">
          -38 callsubr
          201 -20 -55 callsubr
          393 793 -102 callsubr
          -44 -826 rmoveto
          -106 callgsubr
          endchar
        </CharString>
        <CharString name="Odblgrave">
          -38 callsubr
          203 -20 -55 callsubr
          550 789 -95 callsubr
          -57 -923 rmoveto
          -106 callgsubr
          endchar
        </CharString>
        <CharString name="Odieresis">
          -38 callsubr
          87 110 -55 callsubr
          431 802 -100 callgsubr
          -214 -807 rmoveto
          -106 callgsubr
          endchar
        </CharString>
        <CharString name="Odotbelow">
          91 -37 callgsubr
          68 101 517 102 -55 callsubr
          314 -54 callsubr
          83 184 rmoveto
          -106 callgsubr
          endchar
        </CharString>
        <CharString name="Ograve">
          -38 callsubr
          202 -20 -55 callsubr
          -79 callsubr
          147 692 -77 callgsubr
        </CharString>
        <CharString name="Ohungarumlaut">
          -38 callsubr
          197 -20 -55 callsubr
          511 912 -67 callsubr
          -251 -790 rmoveto
          -106 callgsubr
          endchar
        </CharString>
        <CharString name="Oinvertedbreve">
          -38 callsubr
          79 -27 callgsubr
          -2 callsubr
          381 61 -7 115 hintmask 11101100
          363 794 rmoveto
          60 hlineto
          hintmask 11011100
          -74 callgsubr
          hintmask 11101100
          -97 callgsubr
          -66 -799 rmoveto
          hintmask 11101010
          -106 callgsubr
          endchar
        </CharString>
        <CharString name="Omacron">
          -38 callsubr
          113 70 -55 callsubr
          619 828 -66 callsubr
          -40 -833 rmoveto
          -106 callgsubr
          endchar
        </CharString>
        <CharString name="Omega">
          -73 callsubr
        </CharString>
        <CharString name="Oogonek">
          90 -167 -21 801 102 hstem
          -2 callsubr
          12 70 353 115 vstem
          27 callgsubr
          29 62 36 vhcurveto
          202 17 178 201 204 vvcurveto
          152 -89 144 -165 -213 -198 -210 -216 -143 78 -131 143 -17 vhcurveto
          -64 44 callgsubr
          69 284 rmoveto
          -108 -55 94 108 148 117 167 156 106 56 -94 -108 -146 -116 -169 -156 hvcurveto
          endchar
        </CharString>
        <CharString name="Oslash">
          91 -5 101 -75 -21 613 102 -5 -20 hstemhm
          -2 callsubr
          435 115 hintmask 10011100
          623 710 rmoveto
          -33 -38 rlineto
          hintmask 01101100
          27 -37 -47 16 -54 hhcurveto
          -213 -198 -210 -216 -70 18 -67 36 -52 hvcurveto
          -87 -100 rlineto
          122 hlineto
          30 35 rlineto
          hintmask 10011100
          -25 37 46 -15 54 hhcurveto
          213 196 210 214 67 -18 66 -34 53 hvcurveto
          91 105 rlineto
          -589 -412 rmoveto
          hintmask 10101100
          45 callgsubr
          -17 24 vhcurveto
          -341 -393 rlineto
          -13 31 -6 36 38 vvcurveto
          163 -202 rmoveto
          -34 -28 9 15 -23 hvcurveto
          338 391 rlineto
          12 -30 7 -34 -36 vvcurveto
          -146 -116 -169 -156 vhcurveto
          endchar
        </CharString>
        <CharString name="Oslashacute">
          91 -5 101 -75 -21 613 102 -5 -20 226 -20 hstemhm
          -2 callsubr
          435 115 hintmask 10011110
          622 710 rmoveto
          -32 -37 rlineto
          hintmask 01101110
          26 -38 -46 16 -54 hhcurveto
          -213 -198 -210 -216 -70 18 -66 35 -52 hvcurveto
          -87 -101 rlineto
          122 hlineto
          30 35 rlineto
          hintmask 10011110
          -25 38 46 -15 54 hhcurveto
          213 196 210 214 68 -18 66 -34 53 hvcurveto
          90 104 rlineto
          -588 -412 rmoveto
          hintmask 10101110
          45 callgsubr
          -16 23 vhcurveto
          -340 -393 rlineto
          -13 31 -6 36 37 vvcurveto
          163 -202 rmoveto
          -34 -28 9 16 -24 hvcurveto
          339 391 rlineto
          13 -30 6 -35 -36 vvcurveto
          -146 -116 -169 -156 vhcurveto
          281 820 -49 callgsubr
        </CharString>
        <CharString name="Otilde">
          -38 callsubr
          86 -47 callsubr
          -2 callsubr
          435 115 hintmask 11101110
          -79 callsubr
          214 705 -89 callgsubr
          hintmask 11010110
          -93 callgsubr
          hintmask 11101110
          -56 callsubr
        </CharString>
        <CharString name="P">
          -33 -8 callgsubr
          hstem
          501 116 vstem
          15 hmoveto
          -1 callsubr
          52 247 rlineto
          176 hlineto
          142 119 140 131 98 -62 94 -105 hvcurveto
          -284 hlineto
          35 -364 rmoveto
          57 265 rlineto
          163 hlineto
          46 34 -41 -61 -87 -61 -76 -69 hvcurveto
          endchar
        </CharString>
        <CharString name="P.sc">
          -103 21 -21 189 87 191 88 hstem
          418 102 vstem
          57 callgsubr
          40 189 rlineto
          151 hlineto
          122 99 108 104 78 -55 76 -92 hvcurveto
          -246 hlineto
          40 -279 rmoveto
          41 191 rlineto
          140 hlineto
          40 30 -29 -47 -65 -48 -50 -58 hvcurveto
          endchar
        </CharString>
        <CharString name="Q">
          90 -5 101 -75 -21 614 101 hstemhm
          40 116 435 115 hintmask 01111000
          514 hmoveto
          109 hlineto
          -66 103 rlineto
          89 81 60 117 118 vvcurveto
          152 -90 144 -164 -213 -199 -210 -216 vhcurveto
          hintmask 10111000
          -154 92 -140 165 65 64 20 33 57 vhcurveto
          hintmask 01111000
          hintmask 10111000
          -164 48 rmoveto
          -108 -55 94 108 148 117 168 155 107 56 -95 -108 -78 -33 -84 -55 -62 hvcurveto
          -38 60 rlineto
          -107 hlineto
          75 -119 rlineto
          -20 -35 -38 -12 -41 hhcurveto
          endchar
        </CharString>
        <CharString name="Q.sc">
          -7 -4 89 -89 204 -179 -21 470 89 hstemhm
          26 102 360 102 hintmask 00111100
          436 hmoveto
          95 hlineto
          -59 84 rlineto
          71 62 47 88 89 vvcurveto
          121 -78 115 -143 -180 -163 -162 -167 vhcurveto
          hintmask 10011100
          -122 80 -112 142 57 55 16 27 48 vhcurveto
          hintmask 00111100
          hintmask 10011100
          -139 46 rmoveto
          -93 -48 73 82 108 94 122 127 90 49 -73 -82 -56 -25 -59 -41 -45 hvcurveto
          hintmask 01011100
          -31 45 rlineto
          -96 hlineto
          65 -93 rlineto
          hintmask 10011100
          -14 -28 -30 -8 -33 hhcurveto
          endchar
        </CharString>
        <CharString name="R">
          3 21 1 callsubr
          128 hmoveto
          -95 callgsubr
          endchar
        </CharString>
        <CharString name="R.sc">
          -69 21 -21 189 87 191 88 hstem
          427 102 vstem
          57 callgsubr
          40 189 rlineto
          128 hlineto
          85 -189 rlineto
          114 hlineto
          -94 209 rlineto
          85 29 63 80 83 vvcurveto
          78 -54 76 -93 vhcurveto
          -255 hlineto
          40 -279 rmoveto
          41 191 rlineto
          149 hlineto
          41 29 -33 -45 -58 -50 -55 -56 hvcurveto
          endchar
        </CharString>
        <CharString name="Racute">
          6 callgsubr
          208 -20 hstem
          511 116 vstem
          533 918 -96 callgsubr
          -294 -790 rmoveto
          -95 callgsubr
          endchar
        </CharString>
        <CharString name="Rcaron">
          6 callgsubr
          0 85 19 callgsubr
          511 116 hintmask 11011100
          374 795 -92 callgsubr
          -168 -890 rmoveto
          52 247 rlineto
          149 hlineto
          92 -247 rlineto
          127 hlineto
          -100 270 rlineto
          101 33 78 108 107 vvcurveto
          98 -61 94 -105 vhcurveto
          -295 hlineto
          -151 -710 rlineto
          186 346 rmoveto
          hintmask 11101100
          21 callgsubr
        </CharString>
        <CharString name="Rcommaaccent">
          3 -192 -21 234 1 callsubr
          225 -91 callsubr
          -46 213 rmoveto
          -95 callgsubr
          endchar
        </CharString>
        <CharString name="Rdblgrave">
          6 callgsubr
          208 -20 hstem
          511 116 vstem
          470 789 -95 callsubr
          -146 -918 rmoveto
          -95 callgsubr
          endchar
        </CharString>
        <CharString name="Rdotbelow">
          3 -37 callgsubr
          94 1 callsubr
          128 hmoveto
          -95 callgsubr
          -115 -535 -88 callsubr
          endchar
        </CharString>
        <CharString name="Rinvertedbreve">
          6 callgsubr
          84 -27 callgsubr
          473 61 -23 116 hintmask 11110100
          299 794 rmoveto
          60 hlineto
          hintmask 11101100
          -74 callgsubr
          hintmask 11110100
          -97 callgsubr
          -171 -794 rmoveto
          52 247 rlineto
          149 hlineto
          92 -247 rlineto
          127 hlineto
          -100 270 rlineto
          hintmask 11110010
          101 33 78 108 107 vvcurveto
          98 -61 94 -105 vhcurveto
          -295 hlineto
          -151 -710 rlineto
          186 346 rmoveto
          21 callgsubr
        </CharString>
        <CharString name="S">
          -44 -7 101 521 100 hstem
          -11 callsubr
          vstem
          243 -7 -96 callsubr
          endchar
        </CharString>
        <CharString name="S.sc">
          -121 -6 89 388 88 hstem
          68 108 163 112 vstem
          202 -6 rmoveto
          130 119 57 135 79 -62 29 -94 25 hvcurveto
          -78 20 -41 14 38 vvcurveto
          47 37 33 81 68 55 -31 -25 19 vhcurveto
          60 81 rlineto
          36 -41 -62 27 -78 hhcurveto
          -132 -115 -73 -125 -68 47 -32 90 -24 hvcurveto
          82 -22 52 -14 -43 vvcurveto
          -48 -43 -27 -73 -87 -69 38 32 -23 vhcurveto
          -64 -86 rlineto
          -46 55 82 -27 85 hhcurveto
          endchar
        </CharString>
        <CharString name="Sacute">
          -44 -7 101 521 100 215 -20 hstem
          -11 callsubr
          vstem
          533 930 -96 callgsubr
          -179 -809 -96 callsubr
          endchar
        </CharString>
        <CharString name="Scaron">
          -44 -7 101 521 100 0 92 19 callgsubr
          -11 callsubr
          hintmask 10111100
          361 807 -92 callgsubr
          -40 -909 rmoveto
          155 142 74 169 -7 callsubr
          hvcurveto
          -92 25 -50 18 53 vvcurveto
          hintmask 11011100
          68 48 48 101 80 70 -43 -29 17 vhcurveto
          70 92 rlineto
          45 -48 -73 35 -92 hhcurveto
          -159 -137 -94 -160 -83 57 -38 106 -31 hvcurveto
          96 -28 63 -21 -58 vvcurveto
          12 callgsubr
        </CharString>
        <CharString name="Schwa">
          78 -5 100 209 92 217 102 hstem
          24 114 434 121 vstem
          285 -5 rmoveto
          219 189 206 224 158 -94 132 -159 -126 -128 -73 -108 -73 hvcurveto
          103 -43 rlineto
          72 35 84 50 78 hhcurveto
          93 66 -74 -109 -11 -1 -12 -1 -11 hvcurveto
          -523 hlineto
          -8 -17 -15 -40 -57 vvcurveto
          -154 99 -133 162 vhcurveto
          23 100 rmoveto
          -107 -63 72 92 15 1 15 3 15 hvcurveto
          408 hlineto
          -121 -35 -100 -88 -107 hhcurveto
          endchar
        </CharString>
        <CharString name="Scircumflex">
          -44 -7 101 521 100 215 -20 hstem
          -11 callsubr
          vstem
          329 807 -102 callsubr
          -34 -842 -96 callsubr
          endchar
        </CharString>
        <CharString name="Sdotbelow">
          -44 -37 callgsubr
          66 101 521 100 hstem
          -11 callsubr
          vstem
          243 -7 -96 callsubr
          7 -182 -88 callsubr
          endchar
        </CharString>
        <CharString name="T">
          -45 21 -21 611 99 hstem
          174 hmoveto
          112 hlineto
          -64 callsubr
        </CharString>
        <CharString name="T.sc">
          -113 21 -21 467 88 hstem
          147 hmoveto
          100 hlineto
          99 467 rlineto
          191 hlineto
          18 88 rlineto
          -482 hlineto
          -19 -88 rlineto
          193 hlineto
          endchar
        </CharString>
        <CharString name="Tbar">
          -16 21 -21 332 56 223 99 hstem
          69 332 rmoveto
          188 hlineto
          -70 -332 rlineto
          -1 callsubr
          70 332 rlineto
          189 hlineto
          12 56 rlineto
          -189 hlineto
          48 223 rlineto
          222 -78 callsubr
          -557 -30 callgsubr
          222 hlineto
          -48 -223 rlineto
          -188 hlineto
          endchar
        </CharString>
        <CharString name="Tcaron">
          -45 21 -21 611 31 callgsubr
          hintmask 10110000
          353 793 -92 callgsubr
          -101 -888 rmoveto
          112 hlineto
          hintmask 11010000
          -64 callsubr
        </CharString>
        <CharString name="Tdotbelow">
          -45 -37 callgsubr
          94 -21 611 99 hstem
          239 -54 callsubr
          35 189 rmoveto
          112 hlineto
          -64 callsubr
        </CharString>
        <CharString name="Thorn">
          -52 21 -21 114 100 264 99 -99 232 hstemhm
          457 115 hintmask 11101000
          15 hmoveto
          -1 callsubr
          24 114 rlineto
          160 hlineto
          141 119 139 133 97 -62 94 -105 hvcurveto
          -154 hlineto
          hintmask 11011000
          28 133 rlineto
          -113 hlineto
          7 -496 rmoveto
          56 264 rlineto
          149 hlineto
          47 32 -45 -59 -79 -60 -81 -69 hvcurveto
          endchar
        </CharString>
        <CharString name="U">
          88 -5 101 614 -83 callsubr
          endchar
        </CharString>
        <CharString name="U.sc">
          -8 -4 89 470 -20 hstem
          48 102 vstem
          249 -4 rmoveto
          177 99 125 152 32 hvcurveto
          60 282 rlineto
          -100 hlineto
          -59 -282 rlineto
          -96 -20 -55 -92 -116 hhcurveto
          -86 -31 54 69 21 3 21 5 23 hvcurveto
          59 282 rlineto
          -99 hlineto
          -60 -282 rlineto
          -6 -29 -4 -28 -27 vvcurveto
          -108 55 -85 146 vhcurveto
          endchar
        </CharString>
        <CharString name="Uacute">
          -38 callgsubr
          226 -20 -4 callgsubr
          583 916 -96 callgsubr
          -176 -793 -107 callsubr
          endchar
        </CharString>
        <CharString name="Ubreve">
          -38 callgsubr
          104 -23 callsubr
          66 115 176 63 hintmask 11101100
          -102 callgsubr
          166 850 -47 callgsubr
          hintmask 11011100
          -100 callsubr
          hintmask 11101100
          -57 callgsubr
        </CharString>
        <CharString name="Ucircumflex">
          -38 callgsubr
          226 -20 -4 callgsubr
          379 793 -102 callsubr
          -31 -826 -107 callsubr
          endchar
        </CharString>
        <CharString name="Udblgrave">
          -38 callgsubr
          228 -20 -4 callgsubr
          525 789 -95 callsubr
          -33 -923 -107 callsubr
          endchar
        </CharString>
        <CharString name="Udieresis">
          -38 callgsubr
          112 110 -4 callgsubr
          421 802 -100 callgsubr
          -205 -807 -107 callsubr
          endchar
        </CharString>
        <CharString name="Udotbelow">
          87 -37 callgsubr
          68 101 614 -83 callsubr
          6 -184 -88 callsubr
          endchar
        </CharString>
        <CharString name="Ugrave">
          -38 callgsubr
          227 -83 callsubr
          152 793 -77 callgsubr
        </CharString>
        <CharString name="Uhungarumlaut">
          -38 callgsubr
          227 -83 callsubr
          194 922 -67 callsubr
          endchar
        </CharString>
        <CharString name="Uinvertedbreve">
          -38 callgsubr
          104 -27 callgsubr
          66 115 344 61 hintmask 11101100
          351 794 rmoveto
          60 hlineto
          hintmask 11011100
          -74 callgsubr
          hintmask 11101100
          -97 callgsubr
          -55 -799 -107 callsubr
          endchar
        </CharString>
        <CharString name="Umacron">
          -38 callgsubr
          138 70 -91 callgsubr
          312 833 -66 callsubr
          endchar
        </CharString>
        <CharString name="Uogonek">
          87 -167 -21 184 100 614 -20 hstemhm
          66 115 -13 70 hintmask 11101000
          27 callgsubr
          28 61 36 vhcurveto
          190 14 109 155 39 185 -25 callgsubr
          rcurveline
          -113 hlineto
          -76 -26 callsubr
          -127 -27 -69 -127 -138 hhcurveto
          hintmask 11110000
          -101 -35 68 89 30 4 33 7 34 48 callgsubr
          -113 hlineto
          -76 -26 callsubr
          -9 -40 -5 -40 -37 vvcurveto
          -124 53 -99 142 -13 vhcurveto
          hintmask 11101000
          -64 -39 -29 -38 34 callsubr
          endchar
        </CharString>
        <CharString name="Uring">
          -38 callgsubr
          80 36 74 36 hstem
          66 115 203 50 78 48 vstem
          384 829 -89 callsubr
          -184 -885 -107 callsubr
          endchar
        </CharString>
        <CharString name="Utilde">
          -38 callgsubr
          111 -47 callsubr
          66 115 hintmask 11101100
          -102 callgsubr
          225 806 -89 callgsubr
          hintmask 11010100
          -93 callgsubr
          hintmask 11101100
          -56 callsubr
        </CharString>
        <CharString name="V">
          14 9 callgsubr
          209 hmoveto
          96 hlineto
          419 710 rlineto
          -119 hlineto
          -318 -569 -77 569 rlineto
          -119 hlineto
          endchar
        </CharString>
        <CharString name="V.sc">
          -67 -18 callgsubr
          174 hmoveto
          85 hlineto
          349 555 rlineto
          -105 hlineto
          -256 -415 -82 415 rlineto
          -105 hlineto
          endchar
        </CharString>
        <CharString name="W">
          368 9 callgsubr
          214 hmoveto
          -94 callsubr
          endchar
        </CharString>
        <CharString name="W.alt">
          407 9 callgsubr
          156 hmoveto
          117 hlineto
          289 526 68 -526 rlineto
          -20 callsubr
          363 710 rlineto
          -127 hlineto
          -270 -542 -52 542 24 callgsubr
          -279 -542 -39 542 rlineto
          -127 hlineto
          endchar
        </CharString>
        <CharString name="W.sc">
          242 -18 callgsubr
          180 hmoveto
          85 hlineto
          157 239 56 -239 rlineto
          83 hlineto
          359 555 rlineto
          -109 hlineto
          -273 -435 -40 182 152 250 rlineto
          -92 hlineto
          -110 -185 -30 185 rlineto
          -92 hlineto
          46 -250 -116 -182 -90 435 rlineto
          -107 hlineto
          endchar
        </CharString>
        <CharString name="Wacute">
          368 5 callsubr
          713 916 -96 callgsubr
          -388 -788 rmoveto
          -94 callsubr
          endchar
        </CharString>
        <CharString name="Wcircumflex">
          368 5 callsubr
          518 793 -102 callsubr
          -252 -821 rmoveto
          -94 callsubr
          endchar
        </CharString>
        <CharString name="Wdieresis">
          368 -46 callgsubr
          112 110 hstem
          554 802 -100 callgsubr
          -420 -802 rmoveto
          -94 callsubr
          endchar
        </CharString>
        <CharString name="Wgrave">
          368 -46 callgsubr
          -15 callgsubr
          hstem
          214 hmoveto
          -94 callsubr
          479 78 -77 callgsubr
        </CharString>
        <CharString name="X">
          -19 9 callgsubr
          -55 hmoveto
          124 hlineto
          232 270 117 -270 rlineto
          123 hlineto
          -163 350 322 360 24 callgsubr
          -242 -280 -123 280 rlineto
          -124 hlineto
          170 -26 callsubr
          endchar
        </CharString>
        <CharString name="X.sc">
          -89 -18 callgsubr
          -50 hmoveto
          109 hlineto
          193 203 107 -203 rlineto
          109 hlineto
          -148 274 272 281 rlineto
          -109 hlineto
          -201 -211 -112 211 rlineto
          -109 hlineto
          153 -281 rlineto
          endchar
        </CharString>
        <CharString name="Y">
          -19 9 callgsubr
          -85 callsubr
          endchar
        </CharString>
        <CharString name="Y.sc">
          -95 -18 callgsubr
          151 hmoveto
          100 hlineto
          41 196 293 359 rlineto
          -109 hlineto
          -215 -272 -98 272 rlineto
          -108 hlineto
          139 -358 rlineto
          endchar
        </CharString>
        <CharString name="Yacute">
          -19 5 callsubr
          -85 callsubr
          287 660 -49 callgsubr
        </CharString>
        <CharString name="Ycircumflex">
          -19 5 callsubr
          -85 callsubr
          81 537 -62 callgsubr
        </CharString>
        <CharString name="Ydieresis">
          -19 -46 callgsubr
          112 110 hstem
          -85 callsubr
          130 546 -73 callgsubr
        </CharString>
        <CharString name="Ygrave">
          -19 -46 callgsubr
          -15 callgsubr
          hstem
          -85 callsubr
          148 532 -77 callgsubr
        </CharString>
        <CharString name="Ytilde">
          -19 28 callsubr
          -85 callsubr
          224 545 -89 callgsubr
          hintmask 11010000
          -93 callgsubr
          hintmask 11101000
          -56 callsubr
        </CharString>
        <CharString name="Z">
          -36 0 99 512 99 hstem
          -35 -71 callsubr
          endchar
        </CharString>
        <CharString name="Z.sc">
          -100 0 88 379 88 hstem
          -30 hmoveto
          463 hlineto
          19 88 rlineto
          -338 hlineto
          420 391 16 76 rlineto
          -453 hlineto
          -18 -88 rlineto
          336 hlineto
          -428 -391 rlineto
          endchar
        </CharString>
        <CharString name="Zacute">
          -36 0 99 512 99 206 -20 hstem
          516 916 -96 callgsubr
          -440 -788 rmoveto
          -69 callsubr
          endchar
        </CharString>
        <CharString name="Zcaron">
          -36 15 callsubr
          hintmask 10110000
          352 793 -92 callgsubr
          -309 -888 rmoveto
          -75 callgsubr
          hintmask 11010000
          -21 -99 rlineto
          392 hlineto
          -514 -525 rlineto
          endchar
        </CharString>
        <CharString name="Zdotaccent">
          -36 0 99 512 99 91 115 hstem
          -35 -71 callsubr
          462 715 -75 callsubr
          endchar
        </CharString>
        <CharString name="Zdotbelow">
          -36 -37 callgsubr
          73 99 512 99 hstem
          -35 -71 callsubr
          265 -275 -88 callsubr
          endchar
        </CharString>
        <CharString name="a">
          -40 callgsubr
          -22 callgsubr
          hintmask 10110000
          205 -10 8 callsubr
          -5 -23 -2 -15 -10 vvcurveto
          hintmask 01110000
          -105 callsubr
          hintmask 10110000
          -104 callgsubr
          endchar
        </CharString>
        <CharString name="a.alt">
          -27 47 callsubr
          -22 callgsubr
          hintmask 10110000
          204 -10 rmoveto
          74 64 39 64 47 hvcurveto
          hintmask 01110000
          -20 -93 rlineto
          -67 callgsubr
          110 517 -84 callgsubr
          -21 -93 rlineto
          64 -19 -54 44 -76 hhcurveto
          -149 -141 -153 -174 hvcurveto
          hintmask 10110000
          -119 68 -96 117 vhcurveto
          47 94 rmoveto
          -73 -43 62 77 103 89 112 98 61 44 -48 -67 11 hvcurveto
          -30 -136 rlineto
          -60 -39 -56 -43 -62 hhcurveto
          endchar
        </CharString>
        <CharString name="a.alt2">
          -99 0 71 -60 -21 266 63 135 78 hstemhm
          -8 108 277 110 hintmask 01111100
          130 -10 rmoveto
          70 70 28 58 52 hvcurveto
          hintmask 10111100
          -15 -76 rlineto
          106 hlineto
          68 319 rlineto
          4 20 2 20 19 vvcurveto
          96 -61 58 -119 -75 -72 -27 -41 -69 vhcurveto
          19 -70 rlineto
          39 63 54 21 53 hhcurveto
          63 34 -33 -55 -11 -1 -11 -3 -13 hvcurveto
          -8 -36 rlineto
          12 -23 -43 12 -57 hhcurveto
          -123 -127 -67 -127 hvcurveto
          hintmask 01111100
          -77 55 -58 83 vhcurveto
          hintmask 10111100
          48 81 rmoveto
          -45 -33 30 46 75 79 34 67 35 38 -8 -15 32 hvcurveto
          -14 -69 -3 -12 -11 -13 -13 -13 rlinecurve
          -37 -35 -54 -18 -43 hhcurveto
          endchar
        </CharString>
        <CharString name="aacute">
          -40 callgsubr
          -2 callgsubr
          -7 callgsubr
          205 -10 8 callsubr
          -5 -23 -2 -15 -10 vvcurveto
          hintmask 01111000
          -105 callsubr
          hintmask 10111000
          -104 callgsubr
          216 646 -49 callgsubr
        </CharString>
        <CharString name="abreve">
          -40 callgsubr
          76 -23 callsubr
          19 116 104 63 hintmask 10110110
          205 -10 8 callsubr
          -5 -23 -2 -15 -10 vvcurveto
          hintmask 01110110
          -105 callsubr
          hintmask 10110110
          -104 callgsubr
          91 575 -47 callgsubr
          hintmask 10101110
          -100 callsubr
          hintmask 10110110
          -57 callgsubr
        </CharString>
        <CharString name="acircumflex">
          -40 callgsubr
          -2 callgsubr
          -7 callgsubr
          205 -10 8 callsubr
          -5 -23 -2 -15 -10 vvcurveto
          hintmask 01111000
          -105 callsubr
          hintmask 10111000
          -104 callgsubr
          7 523 -62 callgsubr
        </CharString>
        <CharString name="acute">
          -401 623 -21 128 -20 hstem
          207 730 -49 callgsubr
        </CharString>
        <CharString name="adblgrave">
          -40 callgsubr
          -2 callgsubr
          -7 callgsubr
          205 -10 8 callsubr
          -5 -23 -2 -15 -10 vvcurveto
          hintmask 01111000
          -105 callsubr
          hintmask 10111000
          -104 callgsubr
          140 517 -39 callgsubr
        </CharString>
        <CharString name="adieresis">
          -40 callgsubr
          83 110 -7 callgsubr
          205 -10 8 callsubr
          -5 -23 -2 -15 -10 vvcurveto
          hintmask 01111000
          -105 callsubr
          hintmask 10111000
          -104 callgsubr
          50 531 -73 callgsubr
        </CharString>
        <CharString name="ae">
          257 52 callsubr
          hstemhm
          -8 51 callsubr
          hintmask 11011110
          132 -10 -72 callsubr
          hintmask 10111110
          -52 callgsubr
          hintmask 11011110
          4 callsubr
        </CharString>
        <CharString name="aeacute">
          255 52 callsubr
          -2 callgsubr
          hstemhm
          -10 51 callsubr
          hintmask 11011111
          630 730 -96 callgsubr
          -389 -612 -72 callsubr
          hintmask 10111111
          -52 callgsubr
          hintmask 11011111
          4 callsubr
        </CharString>
        <CharString name="afii61352">
          467 21 -21 342 72 225 73 -2 -20 hstemhm
          776 86 189 86 hintmask 11011100
          501 hmoveto
          -70 callgsubr
          -29 callgsubr
          -151 -710 rlineto
          -1 callsubr
          106 500 rlineto
          683 -158 rmoveto
          126 94 109 112 hvcurveto
          hintmask 11101100
          82 -50 67 -91 -126 -94 -107 -115 -80 49 -68 92 vhcurveto
          -55 159 rmoveto
          76 58 62 61 41 29 -37 -50 -75 -59 -63 -60 -42 -28 36 51 vhcurveto
          endchar
        </CharString>
        <CharString name="agrave">
          -40 callgsubr
          -2 callgsubr
          -7 callgsubr
          205 -10 8 callsubr
          -5 -23 -2 -15 -10 vvcurveto
          hintmask 01111000
          -105 callsubr
          hintmask 10111000
          -104 callgsubr
          55 517 -77 callgsubr
        </CharString>
        <CharString name="ainvertedbreve">
          -40 callgsubr
          76 -27 callgsubr
          19 116 261 65 hintmask 10110110
          205 -10 8 callsubr
          -5 -23 -2 -15 -10 vvcurveto
          hintmask 01110110
          -105 callsubr
          hintmask 10110110
          -104 callgsubr
          -27 524 rmoveto
          60 hlineto
          hintmask 10101110
          -74 callgsubr
          hintmask 10110110
          -45 callgsubr
        </CharString>
        <CharString name="amacron">
          -40 callgsubr
          110 70 -7 callgsubr
          205 -10 8 callsubr
          -5 -23 -2 -15 -10 vvcurveto
          hintmask 01111000
          -105 callsubr
          hintmask 10111000
          -104 callgsubr
          245 558 -66 callsubr
          endchar
        </CharString>
        <CharString name="ampersand">
          50 -10 86 -55 -21 334 82 221 82 hstemhm
          16 107 17 103 hintmask 01111100
          457 hmoveto
          139 hlineto
          -119 170 33 47 27 55 20 62 rlinecurve
          90 hlineto
          15 82 rlineto
          -179 hlineto
          -11 -65 -20 -58 -26 -50 -122 177 rcurveline
          -47 67 -14 32 27 vvcurveto
          49 47 42 53 45 41 -35 -52 17 vhcurveto
          76 53 rlineto
          75 -26 -64 41 -75 hhcurveto
          -115 -102 -83 -108 -40 16 -40 35 -56 hvcurveto
          -92 -58 -83 -65 -110 vvcurveto
          hintmask 10111100
          -95 67 -74 107 71 75 33 59 65 vhcurveto
          hintmask 01111100
          hintmask 10111100
          -185 -6 rmoveto
          -52 -41 34 61 62 43 44 72 45 hvcurveto
          119 -176 rlineto
          -44 -43 -50 -26 -48 hhcurveto
          endchar
        </CharString>
        <CharString name="aogonek">
          -19 -167 -21 178 -35 callgsubr
          hstem
          12 callsubr
          206 70 vstem
          423 20 callsubr
          -97 callsubr
          84 392 rlineto
          -111 hlineto
          -21 -98 -93 callsubr
          -120 69 -96 117 69 78 38 67 51 hvcurveto
          -5 -23 -2 -15 -10 vvcurveto
          -26 14 -17 26 -6 vhcurveto
          -65 44 callgsubr
          -170 272 -14 callsubr
        </CharString>
        <CharString name="apostrophe">
          -105 619 -21 132 -20 hstem
          326 26 callsubr
          endchar
        </CharString>
        <CharString name="approxequal">
          -186 146 73 -30 30 -30 75 25 73 -30 30 -30 75 hstemhm
          hintmask 10001000
          332 386 rmoveto
          -12 -9 -16 -12 -28 hhcurveto
          hintmask 10000100
          14 callgsubr
          hintmask 01010000
          43 27 -43 60 hhcurveto
          49 31 27 30 19 hvcurveto
          -49 -104 rmoveto
          -12 -9 -16 -11 -28 hhcurveto
          hintmask 00110000
          14 callgsubr
          hintmask 10010000
          43 27 -43 60 hhcurveto
          49 31 25 27 19 hvcurveto
          endchar
        </CharString>
        <CharString name="aring">
          -40 callgsubr
          52 36 74 36 -22 callgsubr
          125 50 86 40 hintmask 10111111
          205 -10 8 callsubr
          -5 -23 -2 -15 -10 vvcurveto
          hintmask 01111111
          -105 callsubr
          hintmask 10111111
          -104 callgsubr
          7 559 -89 callsubr
          endchar
        </CharString>
        <CharString name="aringacute">
          -40 callgsubr
          52 36 74 36 156 -20 -22 callgsubr
          123 50 88 38 hintmask 1011111110000000
          205 -10 8 callsubr
          -5 -23 -2 -15 -10 vvcurveto
          hintmask 0111111110000000
          -105 callsubr
          hintmask 1011111110000000
          -104 callgsubr
          250 802 -96 callgsubr
          -134 -115 -89 callsubr
          endchar
        </CharString>
        <CharString name="asciicircum">
          -62 324 -21 407 -20 hstem
          139 303 rmoveto
          155 312 151 -312 rlineto
          92 hlineto
          -197 407 rlineto
          -93 hlineto
          -198 -407 rlineto
          endchar
        </CharString>
        <CharString name="asciitilde">
          -105 232 67 -12 67 hstemhm
          hintmask 10000000
          45 232 rmoveto
          63 hlineto
          hintmask 01000000
          2 20 53 51 vhcurveto
          hintmask 10000000
          52 35 -55 67 hhcurveto
          99 47 108 10 2 hvcurveto
          -62 hlineto
          -4 -1 -22 -47 -52 hhcurveto
          hintmask 01000000
          -56 -33 55 -66 hhcurveto
          hintmask 10000000
          -94 -47 -102 -20 -3 hvcurveto
          endchar
        </CharString>
        <CharString name="asterisk">
          -305 521 -21 216 -20 hstem
          163 500 rmoveto
          58 71 27 -71 50 30 -29 67 71 22 -4 50 -75 -29 20 76 rlineto
          -60 hlineto
          -12 -76 -61 29 -26 -50 61 -22 -57 -67 rlineto
          endchar
        </CharString>
        <CharString name="at">
          177 -146 46 84 52 -38 58 342 62 97 46 hstemhm
          22 49 91 70 251 58 162 49 hintmask 1101111110000000
          573 36 rmoveto
          -21 -11 12 26 8 1 12 3 13 hvcurveto
          72 343 rlineto
          -62 hlineto
          -16 -81 rlineto
          52 -17 -45 39 -69 hhcurveto
          -127 -119 -133 -145 hvcurveto
          hintmask 1011111110000000
          -102 60 -82 99 58 60 28 44 46 vhcurveto
          -2 -7 0 -7 -6 vvcurveto
          hintmask 1101111110000000
          -47 31 -19 41 141 56 218 111 156 -106 134 -182 -215 -227 -184 -260 -183 113 -122 165 54 58 13 27 57 vhcurveto
          -5 44 rlineto
          -23 -54 -47 -15 -53 hhcurveto
          -149 -90 112 152 220 187 173 194 164 87 -123 -134 -102 -51 -162 -79 hvcurveto
          hintmask 1011111110000000
          -224 20 rmoveto
          -68 -49 59 81 112 92 90 81 50 43 -34 -67 17 hvcurveto
          -22 -133 rlineto
          -59 -23 -60 -49 -61 hhcurveto
          endchar
        </CharString>
        <CharString name="atilde">
          -40 callgsubr
          83 -47 callsubr
          19 116 hintmask 10110110
          205 -10 8 callsubr
          -5 -23 -2 -15 -10 vvcurveto
          hintmask 01110110
          -105 callsubr
          hintmask 10110110
          -104 callgsubr
          145 531 -89 callgsubr
          hintmask 10101010
          -93 callgsubr
          hintmask 10110110
          -56 callsubr
        </CharString>
        <CharString name="b">
          -29 47 callsubr
          -2 callgsubr
          hstemhm
          453 116 hintmask 10111000
          272 -10 rmoveto
          152 145 151 179 114 -59 98 -113 -75 -70 -43 -65 -51 hvcurveto
          64 306 -84 callgsubr
          hintmask 01111000
          -155 -730 rlineto
          97 hlineto
          20 95 rlineto
          hintmask 10111000
          -63 22 53 -42 80 hhcurveto
          -6 94 rmoveto
          -63 -49 45 58 -4 hvcurveto
          30 138 rlineto
          62 39 63 51 61 hhcurveto
          71 39 -65 -74 -112 -91 -103 -96 hvcurveto
          endchar
        </CharString>
        <CharString name="backslash">
          -55 9 callgsubr
          108 710 rmoveto
          263 -710 rlineto
          122 hlineto
          -262 710 rlineto
          endchar
        </CharString>
        <CharString name="bar">
          -320 -109 -21 905 -20 hstem
          115 94 vstem
          209 -130 rmoveto
          905 -94 -905 vlineto
          endchar
        </CharString>
        <CharString name="braceleft">
          -349 -10 -21 771 -20 hstem
          314 651 rmoveto
          20 89 rlineto
          -130 hlineto
          -7 -17 -5 -25 -5 hvcurveto
          -52 -249 rlineto
          -24 -5 -26 -37 -27 hhcurveto
          -17 -78 rlineto
          20 -4 12 -19 -25 vvcurveto
          -5 0 -5 -1 -5 vhcurveto
          -55 -260 rlineto
          -1 -4 0 -4 -3 vvcurveto
          -14 9 -5 8 vhcurveto
          130 hlineto
          18 89 rlineto
          -52 hlineto
          50 235 rlineto
          1 6 0 5 5 vvcurveto
          19 -6 19 -12 13 vhcurveto
          24 19 16 25 5 23 48 224 rcurveline
          endchar
        </CharString>
        <CharString name="braceright">
          -348 -10 -21 771 -20 hstem
          173 651 rmoveto
          -47 -224 rlineto
          -2 -6 0 -5 -6 vvcurveto
          -18 6 -18 11 -14 vhcurveto
          -22 -18 -17 -27 -5 -22 -50 -235 rcurveline
          -52 hlineto
          -19 -89 rlineto
          129 hlineto
          9 15 7 23 5 hvcurveto
          55 260 7 32 25 26 26 5 rlinecurve
          17 78 rlineto
          -23 -11 26 22 5 1 4 1 4 hvcurveto
          53 249 rlineto
          1 3 0 3 3 vvcurveto
          17 -11 4 -6 vhcurveto
          -129 hlineto
          -19 -89 rlineto
          endchar
        </CharString>
        <CharString name="bracketleft">
          -352 -19 -21 780 -20 hstem
          166 -40 rmoveto
          19 89 rlineto
          -59 hlineto
          128 602 rlineto
          59 hlineto
          18 89 rlineto
          -159 hlineto
          -166 -780 rlineto
          endchar
        </CharString>
        <CharString name="bracketright">
          -351 -19 -21 780 -20 hstem
          133 -40 rmoveto
          165 780 rlineto
          -160 hlineto
          -19 -89 rlineto
          58 hlineto
          -128 -602 rlineto
          -58 hlineto
          -19 -89 rlineto
          endchar
        </CharString>
        <CharString name="breve">
          -334 608 -23 callsubr
          55 63 hintmask 10100000
          160 659 -47 callgsubr
          hintmask 01100000
          -100 callsubr
          hintmask 10100000
          -57 callgsubr
        </CharString>
        <CharString name="brokenbar">
          -326 -109 -21 905 -20 hstem
          112 94 vstem
          112 269 rmoveto
          -399 94 399 vlineto
          -94 506 rmoveto
          -399 94 399 vlineto
          endchar
        </CharString>
        <CharString name="bullet">
          -285 249 198 hstem
          85 196 vstem
          281 365 rmoveto
          46 -31 36 -46 -59 -60 -54 -62 -46 32 -36 45 60 59 54 62 vhcurveto
          endchar
        </CharString>
        <CharString name="c">
          -98 -44 callsubr
          hstem
          -17 callgsubr
          vstem
          227 -10 -87 callgsubr
          endchar
        </CharString>
        <CharString name="c_t">
          251 -8 92 -73 -21 448 94 -9 -20 186 52 -13 callsubr
          326 48 71 120 -13 111 hintmask 0110111100000000
          226 -10 rmoveto
          99 99 51 83 51 hvcurveto
          -100 32 rlineto
          hintmask 1010111010000000
          -45 -25 -61 -27 -43 hhcurveto
          -69 -44 61 78 107 84 108 100 49 36 -23 -47 16 hvcurveto
          113 34 rlineto
          -5 27 -19 70 55 vvcurveto
          68 31 67 79 51 17 -24 -42 vhcurveto
          hintmask 1001111100000000
          -27 -7 -34 -9 -39 vhcurveto
          -65 hlineto
          hintmask 1010111100000000
          -19 -85 rlineto
          67 hlineto
          -70 -327 rlineto
          -3 -12 -1 -11 -10 vvcurveto
          -60 44 -26 57 54 55 22 13 31 vhcurveto
          -4 87 rlineto
          -6 -15 -31 -15 -30 hhcurveto
          -23 -18 12 26 5 0 5 2 5 hvcurveto
          61 292 rlineto
          107 hlineto
          hintmask 1001111010000000
          18 85 rlineto
          -107 hlineto
          9 40 8 39 33 vvcurveto
          62 -28 44 -109 -127 -73 -74 -102 -26 6 -29 6 -20 vhcurveto
          hintmask 0110111100000000
          27 -34 -34 15 -62 hhcurveto
          -190 -132 -163 -159 -117 71 -103 136 hvcurveto
          endchar
        </CharString>
        <CharString name="cacute">
          -98 -44 callsubr
          23 callsubr
          -17 callgsubr
          vstem
          466 730 -96 callgsubr
          -128 -612 -87 callgsubr
          endchar
        </CharString>
        <CharString name="caron">
          -294 628 -21 123 -20 hstem
          141 607 -92 callgsubr
          endchar
        </CharString>
        <CharString name="caron.alt">
          -401 619 -21 132 -20 hstem
          116 -48 callgsubr
          endchar
        </CharString>
        <CharString name="ccaron">
          -98 -44 callsubr
          0 75 123 49 callgsubr
          hintmask 10111000
          311 607 -92 callgsubr
          -6 -712 rmoveto
          105 94 56 78 49 hvcurveto
          -101 32 rlineto
          -40 -23 -56 -32 -50 hhcurveto
          -67 -45 59 80 hvcurveto
          hintmask 11011000
          120 91 95 95 48 36 -26 -44 14 vhcurveto
          114 34 rlineto
          78 -21 -65 52 -104 hhcurveto
          -183 -139 -155 -167 -120 74 -100 134 hvcurveto
          endchar
        </CharString>
        <CharString name="ccedilla">
          -98 18 callgsubr
          32 93 354 94 hstem
          -17 callgsubr
          128 54 vstem
          86 -169 rmoveto
          -76 callgsubr
          30 36 97 7 85 53 46 73 rlinecurve
          -101 32 rlineto
          -40 -23 -56 -32 -50 hhcurveto
          -67 -45 59 80 120 91 95 95 48 36 -26 -44 14 hvcurveto
          114 34 rlineto
          78 -21 -65 52 -104 hhcurveto
          -183 -139 -155 -167 -111 63 -94 115 -13 hvcurveto
          -58 -82 -78 callgsubr
          endchar
        </CharString>
        <CharString name="ccircumflex">
          -98 -44 callsubr
          23 callsubr
          -17 callgsubr
          vstem
          276 607 -102 callsubr
          3 -645 -87 callgsubr
          endchar
        </CharString>
        <CharString name="cdotaccent">
          -98 -44 callsubr
          83 115 hstem
          -17 callgsubr
          vstem
          227 -10 -87 callgsubr
          179 625 -75 callsubr
          endchar
        </CharString>
        <CharString name="cedilla">
          -337 18 callgsubr
          65 -20 hstem
          159 54 vstem
          -16 -169 rmoveto
          -76 callgsubr
          45 54 -42 15 -81 -114 -78 callgsubr
          endchar
        </CharString>
        <CharString name="cent">
          -75 -99 -21 131 -21 655 -20 hstem
          27 114 vstem
          228 -120 rmoveto
          23 110 rlineto
          66 114 45 89 54 hvcurveto
          -101 32 -19 -38 -54 -26 -39 -5 rlinecurve
          74 347 38 -3 31 -22 12 -41 rlinecurve
          114 34 -23 80 -62 46 -90 3 rlinecurve
          24 114 rlineto
          -50 hlineto
          -25 -114 rlineto
          -172 -23 -116 -150 -147 vvcurveto
          -107 64 -104 110 -9 vhcurveto
          -24 -111 rlineto
          -36 342 rmoveto
          89 66 104 87 15 vhcurveto
          -72 -338 rlineto
          -51 13 -30 56 61 vvcurveto
          endchar
        </CharString>
        <CharString name="circumflex">
          -294 628 -21 123 -20 hstem
          104 607 -62 callgsubr
        </CharString>
        <CharString name="colon">
          -414 0 128 263 38 callgsubr
          -91 hlineto
          -27 -127 rlineto
          8 -391 rmoveto
          27 128 rlineto
          -90 hlineto
          -28 -128 rlineto
          endchar
        </CharString>
        <CharString name="colonmonetary">
          -92 -120 204 -94 94 -72 -21 447 207 -114 18 callsubr
          21 114 hintmask 10010010
          120 -120 rmoveto
          52 hlineto
          24 112 rlineto
          hintmask 01010010
          -1 10 11 -1 12 hhcurveto
          hintmask 00110010
          8 8 1 8 hhcurveto
          hintmask 10010010
          -24 -111 rlineto
          53 hlineto
          25 120 72 20 62 46 37 58 rlinecurve
          -101 32 rlineto
          -40 -23 -57 -32 -50 hhcurveto
          -67 -45 59 80 120 91 95 96 48 36 -26 -44 14 hvcurveto
          114 34 -16 57 -39 43 -61 19 rlinecurve
          27 124 rlineto
          -53 hlineto
          hintmask 10001010
          -25 -114 rlineto
          hintmask 10000110
          -8 -8 1 -8 hhcurveto
          -11 -11 -1 -1 -11 hvcurveto
          hintmask 10010010
          25 115 rlineto
          -53 hlineto
          -26 -126 rlineto
          -138 -39 -97 -131 -139 vvcurveto
          -92 44 -81 81 -32 vhcurveto
          endchar
        </CharString>
        <CharString name="comma">
          -416 -76 -21 225 -20 hstem
          40 -97 rmoveto
          57 103 25 28 callgsubr
        </CharString>
        <CharString name="commaaccent">
          -455 -3 callgsubr
          -20 hstem
          72 -91 callsubr
          endchar
        </CharString>
        <CharString name="copyright">
          218 -7 44 82 94 284 95 79 44 hstem
          63 47 88 112 454 48 vstem
          435 -7 rmoveto
          216 37 callgsubr
          -216 -214 36 callgsubr
          214 hvcurveto
          44 vmoveto
          -187 -138 138 179 180 139 137 186 189 140 -137 -181 -187 -144 -129 -185 hvcurveto
          8 82 rmoveto
          109 77 64 61 26 hvcurveto
          -107 32 rlineto
          -40 -19 -46 -23 -42 hhcurveto
          -61 -70 51 91 73 46 69 83 35 47 -13 -48 23 hvcurveto
          106 34 rlineto
          76 -34 -77 46 -100 hhcurveto
          -161 -80 -119 -118 -137 106 -99 139 hvcurveto
          endchar
        </CharString>
        <CharString name="currency">
          -63 138 -21 35 72 226 73 39 -20 hstem
          106 85 204 85 vstem
          115 562 rmoveto
          -48 -47 70 -71 rlineto
          -21 -30 -10 -37 -40 vvcurveto
          -39 11 -37 21 -31 vhcurveto
          -71 -71 43 -42 72 68 rlineto
          -20 30 37 -13 44 hhcurveto
          43 37 13 20 29 hvcurveto
          73 -68 43 42 -71 70 rlineto
          21 31 12 37 40 vvcurveto
          40 -12 38 -20 30 vhcurveto
          70 70 -48 47 -70 -71 rlineto
          20 -30 -36 12 -41 hhcurveto
          -43 -36 -12 -20 -29 hvcurveto
          6 -155 rmoveto
          66 45 48 57 57 45 -47 -65 -65 -45 -49 -57 -57 -45 49 63 vhcurveto
          endchar
        </CharString>
        <CharString name="d">
          24 callsubr
          205 -10 -43 callsubr
          hintmask 01111000
          -32 25 -19 41 -52 callsubr
          vhcurveto
          -86 callgsubr
          hintmask 10111000
          -104 callgsubr
          endchar
        </CharString>
        <CharString name="d.alt">
          -28 47 callsubr
          -2 callgsubr
          -7 callgsubr
          205 -10 rmoveto
          69 65 37 60 47 hvcurveto
          hintmask 01111000
          -18 -87 rlineto
          109 hlineto
          155 730 -84 callgsubr
          -65 -306 rlineto
          62 -23 -51 46 -77 hhcurveto
          -150 -137 56 callsubr
          hvcurveto
          hintmask 10111000
          -120 69 -96 117 vhcurveto
          47 94 rmoveto
          -71 -46 61 79 103 86 111 99 56 53 -48 -65 7 hvcurveto
          -28 -22 callsubr
          -59 -27 -74 -45 -55 hhcurveto
          endchar
        </CharString>
        <CharString name="dagger">
          -205 -109 -21 351 100 454 -20 hstem
          176 -130 rmoveto
          74 351 rlineto
          125 hlineto
          21 100 rlineto
          -125 hlineto
          97 454 rlineto
          -105 hlineto
          -97 -454 rlineto
          -125 hlineto
          -21 -100 rlineto
          125 hlineto
          -74 -351 rlineto
          endchar
        </CharString>
        <CharString name="daggerdbl">
          -200 -109 -21 253 99 112 99 342 -20 hstem
          179 -130 rmoveto
          53 253 rlineto
          125 -78 callsubr
          -125 hlineto
          24 112 rlineto
          124 -78 callsubr
          -124 hlineto
          73 342 rlineto
          -105 hlineto
          -73 -342 rlineto
          -125 -30 callgsubr
          125 hlineto
          -24 -112 rlineto
          -125 -30 callgsubr
          125 hlineto
          -53 -253 rlineto
          endchar
        </CharString>
        <CharString name="dcaron">
          24 callsubr
          720 -48 callgsubr
          -449 -630 -43 callsubr
          hintmask 01111000
          -32 25 -19 41 -52 callsubr
          vhcurveto
          -86 callgsubr
          hintmask 10111000
          -104 callgsubr
          endchar
        </CharString>
        <CharString name="dcroat">
          -20 -10 -54 callgsubr
          64 68 -68 134 -22 callgsubr
          hintmask 10110100
          407 596 rmoveto
          86 hlineto
          -36 -172 -93 callsubr
          -120 69 -96 117 69 78 38 67 51 hvcurveto
          -6 -24 -1 -17 -8 vvcurveto
          hintmask 01110100
          -31 22 -20 43 -52 callsubr
          vhcurveto
          -97 callsubr
          99 466 rlineto
          74 hlineto
          14 68 rlineto
          -73 hlineto
          hintmask 10101100
          14 66 rlineto
          -111 hlineto
          hintmask 10110100
          -14 -66 rlineto
          -87 hlineto
          -168 -580 -14 callsubr
        </CharString>
        <CharString name="ddotbelow">
          -20 -37 callgsubr
          63 -54 callgsubr
          -2 callgsubr
          -22 callgsubr
          hintmask 11011100
          253 -54 callsubr
          52 179 -43 callsubr
          hintmask 10111100
          -32 25 -19 41 -52 callsubr
          vhcurveto
          -86 callgsubr
          hintmask 11011100
          -104 callgsubr
          endchar
        </CharString>
        <CharString name="degree">
          -363 533 56 79 56 hstem
          108 56 77 57 vstem
          182 533 rmoveto
          63 53 51 64 43 -29 33 -46 -64 -51 -58 -58 -44 30 -31 44 hvcurveto
          12 56 rmoveto
          -18 -12 13 20 24 25 22 22 18 12 -12 -20 -25 -25 -22 -22 hvcurveto
          endchar
        </CharString>
        <CharString name="dieresis">
          -234 615 110 hstem
          165 615 -73 callgsubr
        </CharString>
        <CharString name="divide">
          -107 58 114 76 88 75 115 hstem
          214 94 vstem
          308 411 rmoveto
          115 -94 -115 vlineto
          94 -353 rmoveto
          114 -94 -114 vlineto
          248 190 rmoveto
          88 -403 -88 vlineto
          endchar
        </CharString>
        <CharString name="dollar">
          -31 -91 -21 105 101 520 100 101 -20 hstem
          98 124 198 126 vstem
          607 635 rmoveto
          -44 41 -64 33 -82 5 22 101 rcurveline
          -51 hlineto
          -22 -101 rlineto
          -146 -11 -122 -92 -150 vvcurveto
          -103 109 -37 78 -19 vhcurveto
          -44 -207 -88 10 -71 48 -20 32 rlinecurve
          -73 -96 56 -55 80 -33 89 -6 rlinecurve
          -23 -107 rlineto
          51 hlineto
          22 105 rlineto
          149 5 133 74 164 vvcurveto
          121 -117 23 -85 28 vhcurveto
          44 206 72 -5 61 -39 16 -27 rlinecurve
          -117 -341 rmoveto
          -66 -51 -41 -91 -1 vhcurveto
          41 197 rlineto
          62 -21 39 -23 -45 vvcurveto
          -198 297 rmoveto
          64 41 46 89 5 vhcurveto
          -42 -196 rlineto
          -58 19 -30 20 42 vvcurveto
          endchar
        </CharString>
        <CharString name="dotaccent">
          -440 615 115 hstem
          150 615 -75 callsubr
          endchar
        </CharString>
        <CharString name="dotbelow">
          -440 -37 callgsubr
          hstem
          107 -54 callsubr
          endchar
        </CharString>
        <CharString name="dotlessi">
          21 -21 523 -20 -33 callgsubr
          endchar
        </CharString>
        <CharString name="dotlessj">
          -191 96 618 -43 callgsubr
          endchar
        </CharString>
        <CharString name="e">
          -58 callsubr
          -98 callsubr
          endchar
        </CharString>
        <CharString name="eacute">
          -34 callsubr
          468 730 -96 callgsubr
          -128 -612 -107 callgsubr
          endchar
        </CharString>
        <CharString name="ebreve">
          -58 callsubr
          76 -23 callsubr
          20 112 120 63 105 102 hintmask 11110111
          -103 callgsubr
          27 208 -47 callgsubr
          hintmask 11101111
          -100 callsubr
          hintmask 11110111
          -57 callgsubr
        </CharString>
        <CharString name="ecaron">
          -89 -10 81 153 72 0 155 81 75 19 callgsubr
          20 112 288 102 hintmask 11011110
          312 607 -92 callgsubr
          -5 -712 rmoveto
          101 100 55 79 51 hvcurveto
          -87 27 rlineto
          -53 callsubr
          -80 -36 61 77 hvcurveto
          18 vlineto
          -2 36 33 -1 28 hhcurveto
          197 96 56 108 94 -71 50 -107 -184 -140 -151 -170 -126 77 -95 132 hvcurveto
          hintmask 10111110
          -12 callsubr
        </CharString>
        <CharString name="ecircumflex">
          -34 callsubr
          279 607 -102 callsubr
          2 -645 -107 callgsubr
          endchar
        </CharString>
        <CharString name="edblgrave">
          -34 callsubr
          413 601 -95 callsubr
          12 -740 -107 callgsubr
          endchar
        </CharString>
        <CharString name="edieresis">
          -58 callsubr
          83 110 -48 callsubr
          315 615 -100 callgsubr
          -166 -625 -107 callgsubr
          endchar
        </CharString>
        <CharString name="edotaccent">
          -58 callsubr
          83 115 -98 callsubr
          77 164 -75 callsubr
          endchar
        </CharString>
        <CharString name="edotbelow">
          -89 -37 callgsubr
          63 81 153 72 155 81 -98 callsubr
          -86 -640 -88 callsubr
          endchar
        </CharString>
        <CharString name="egrave">
          -89 -10 81 153 72 155 81 198 -20 -98 callsubr
          4 150 -77 callgsubr
        </CharString>
        <CharString name="eight">
          3 callsubr
          68 -68 114 hintmask 1111001000000000
          222 -8 rmoveto
          149 144 101 145 66 -37 52 -45 24 hvcurveto
          hintmask 1110100010000000
          4 callgsubr
          hintmask 1111001000000000
          44 callsubr
          vhcurveto
          23 99 rmoveto
          36 callsubr
          -84 -85 -59 -74 hvcurveto
          69 327 rmoveto
          hintmask 1110010100000000
          -45 -46 28 52 37 callsubr
          hvcurveto
          endchar
        </CharString>
        <CharString name="eight.denominator">
          -235 -5 66 130 55 103 64 hstemhm
          -6 -27 callsubr
          hintmask 11110100
          133 -5 -32 callgsubr
          hintmask 11101001
          -62 callsubr
          hintmask 11110100
          -80 callsubr
          hintmask 11101010
          -57 callsubr
          endchar
        </CharString>
        <CharString name="eight.lnum">
          3 callsubr
          114 hintmask 11110010
          515 238 rmoveto
          66 -37 52 -45 24 vhcurveto
          hintmask 11101001
          4 callgsubr
          hintmask 11110010
          44 callsubr
          149 144 101 145 vhcurveto
          -111 -4 rmoveto
          -84 -85 -59 -74 36 callsubr
          vhcurveto
          hintmask 11100101
          -181 264 rmoveto
          37 callsubr
          -45 -46 28 52 vhcurveto
          endchar
        </CharString>
        <CharString name="eight.numerator">
          -236 311 67 130 55 103 64 hstemhm
          61 70 -15 67 144 67 -44 68 hintmask 11110100
          394 452 rmoveto
          40 -26 30 -37 16 vhcurveto
          hintmask 11101010
          47 17 40 33 47 vvcurveto
          58 -63 37 -65 -78 -96 -50 -73 -33 23 -24 29 -12 vhcurveto
          hintmask 11110100
          -54 -20 -53 -35 -63 vvcurveto
          -61 57 -48 83 98 95 60 81 vhcurveto
          -67 -1 rmoveto
          -43 -58 -30 -52 -43 -43 21 36 43 57 30 55 35 callsubr
          35 46 23 48 38 35 -17 -28 -36 -54 -22 -41 -36 -36 17 28 vhcurveto
          endchar
        </CharString>
        <CharString name="eightinferior">
          -235 -87 66 130 55 103 64 hstemhm
          -24 70 -15 67 144 68 -45 69 hintmask 11110100
          310 53 rmoveto
          41 -27 29 -37 17 vhcurveto
          hintmask 11101010
          47 16 41 33 47 vvcurveto
          58 -64 37 -65 -78 -96 -49 -73 -34 23 -23 29 -12 vhcurveto
          hintmask 11110100
          -54 -21 -53 -35 -63 vvcurveto
          -61 57 -47 83 98 96 59 81 vhcurveto
          -68 -1 rmoveto
          -43 -58 -30 -52 -43 -43 22 34 44 58 30 54 35 callsubr
          36 46 22 48 39 34 -17 -28 -36 -54 -22 -41 -36 -36 17 28 vhcurveto
          endchar
        </CharString>
        <CharString name="eightsuperior">
          -237 394 66 130 56 102 64 hstemhm
          78 69 -14 66 145 66 -44 68 hintmask 11110100
          410 534 rmoveto
          40 -25 30 -38 16 vhcurveto
          hintmask 11101010
          48 17 39 33 47 vvcurveto
          58 -63 37 -65 -77 -96 -49 -73 -34 23 -24 28 -12 vhcurveto
          hintmask 11110100
          -54 -20 -52 -35 -63 vvcurveto
          -61 56 -47 83 98 95 59 81 vhcurveto
          -66 -1 rmoveto
          -43 -59 -30 -52 -43 -43 22 35 43 57 30 55 44 41 -22 -35 vhcurveto
          hintmask 11101010
          -145 158 rmoveto
          35 46 22 48 39 34 -17 -28 -36 -53 -21 -42 -35 -37 16 29 vhcurveto
          endchar
        </CharString>
        <CharString name="einvertedbreve">
          -58 callsubr
          76 -27 callgsubr
          20 112 288 61 -61 102 hintmask 11110110
          246 49 callsubr
          hintmask 11101110
          -74 callgsubr
          hintmask 11110110
          -97 callgsubr
          -17 -618 rmoveto
          101 100 55 79 51 hvcurveto
          -87 27 rlineto
          -53 callsubr
          -80 -36 61 77 hvcurveto
          18 vlineto
          -2 36 33 -1 28 hhcurveto
          hintmask 11110101
          197 96 56 108 94 -71 50 -107 -184 -140 -151 -170 -126 77 -95 132 hvcurveto
          -12 callsubr
        </CharString>
        <CharString name="ellipsis">
          -93 0 128 hstem
          88 16 callgsubr
          256 hmoveto
          27 128 rlineto
          -91 hlineto
          -27 -128 rlineto
          255 16 callgsubr
          endchar
        </CharString>
        <CharString name="emacron">
          -58 callsubr
          110 70 -98 callsubr
          169 191 -66 callsubr
          endchar
        </CharString>
        <CharString name="emdash">
          246 224 99 hstem
          804 224 rmoveto
          21 99 rlineto
          -761 -30 callgsubr
          endchar
        </CharString>
        <CharString name="emspace">
          245 endchar
        </CharString>
        <CharString name="endash">
          11 callgsubr
        </CharString>
        <CharString name="eng">
          -60 -191 96 116 32 callgsubr
          244 -191 rmoveto
          90 91 74 106 23 hvcurveto
          70 330 rlineto
          7 33 5 30 28 vvcurveto
          71 -29 51 -87 -87 -86 -44 -70 -52 vhcurveto
          hintmask 11011000
          22 105 rlineto
          -99 hlineto
          -112 -523 rlineto
          45 callsubr
          hintmask 11101000
          71 36 76 52 58 hhcurveto
          41 23 -24 -16 callsubr
          -25 hvcurveto
          -66 -312 rlineto
          -45 -10 -40 -31 -35 hhcurveto
          -22 -21 7 16 -12 hvcurveto
          -65 -74 rlineto
          -31 27 39 -14 46 hhcurveto
          endchar
        </CharString>
        <CharString name="enspace">
          -68 endchar
        </CharString>
        <CharString name="eogonek">
          -89 -172 -21 184 80 153 72 155 81 hstemhm
          20 112 -16 70 234 102 hintmask 11110110
          198 -193 -19 callgsubr
          82 15 76 48 42 66 -87 27 rcurveline
          -53 callsubr
          hintmask 11111010
          -80 -36 61 77 hvcurveto
          18 vlineto
          -2 36 33 -1 28 hhcurveto
          197 96 56 108 94 -71 50 -107 -184 -140 -151 -170 -119 69 -92 119 -9 hvcurveto
          hintmask 11110110
          -63 -39 -29 -38 -37 -50 callsubr
          132 644 rmoveto
          55 35 -21 -45 -53 -48 -36 -141 -26 -28 1 2 -31 hvcurveto
          80 26 61 72 97 hhcurveto
          endchar
        </CharString>
        <CharString name="equal">
          -152 162 73 82 73 hstem
          389 162 rmoveto
          73 -309 -73 vlineto
          309 155 rmoveto
          73 -309 -73 vlineto
          endchar
        </CharString>
        <CharString name="estimated">
          -23 -10 41 220 44 196 41 hstem
          34 116 307 115 vstem
          303 31 rmoveto
          -61 -55 29 45 -37 hvcurveto
          146 422 vlineto
          155 -110 126 -159 -159 -110 -125 -147 -145 108 -125 161 102 70 36 47 48 vhcurveto
          -28 31 rlineto
          -39 -39 -60 -34 -93 hhcurveto
          460 vmoveto
          61 55 -30 -49 38 hvcurveto
          -117 -307 118 vlineto
          48 37 55 30 61 hhcurveto
          endchar
        </CharString>
        <CharString name="eth">
          -47 -10 94 300 89 257 -20 hstem
          15 114 296 132 vstem
          549 713 rmoveto
          -89 -49 -20 25 -24 22 -27 19 rlinecurve
          -145 hlineto
          53 -35 40 -35 30 -37 -95 -51 rcurveline
          23 -45 102 56 28 -45 15 -46 7 -48 rlinecurve
          4 -20 1 -22 -22 vvcurveto
          56 -22 -57 37 -71 hhcurveto
          -146 -141 -132 -150 -114 83 -87 123 175 161 150 234 80 -20 93 -48 77 hvcurveto
          83 44 rlineto
          -443 -463 rmoveto
          97 87 82 94 70 45 -51 -68 -95 -86 -86 -95 -69 -46 53 68 vhcurveto
          endchar
        </CharString>
        <CharString name="etilde">
          -58 callsubr
          83 -47 callsubr
          20 112 288 102 hintmask 11110111
          -103 callgsubr
          83 164 -89 callgsubr
          hintmask 11101011
          -93 callgsubr
          hintmask 11110111
          -56 callsubr
        </CharString>
        <CharString name="exclam">
          -360 0 137 580 -20 hstem
          182 253 rmoveto
          98 464 -84 callgsubr
          -98 -464 rlineto
          56 -253 rmoveto
          29 137 -84 callgsubr
          -29 -22 callsubr
          endchar
        </CharString>
        <CharString name="exclamdown">
          -361 17 -21 580 137 hstem
          115 460 rmoveto
          -98 -464 rlineto
          -67 callgsubr
          98 464 rlineto
          -56 253 rmoveto
          -29 -22 callsubr
          -67 callgsubr
          29 137 rlineto
          endchar
        </CharString>
        <CharString name="f">
          -287 -191 -21 637 85 137 93 hstem
          -18 -212 rmoveto
          -67 callgsubr
          135 637 rlineto
          126 hlineto
          19 85 rlineto
          -126 hlineto
          5 24 rlineto
          73 16 34 40 40 callsubr
          -32 -39 12 -39 hhcurveto
          -98 -82 -80 -129 -26 hvcurveto
          -4 -21 17 callgsubr
          endchar
        </CharString>
        <CharString name="f_f">
          -34 -28 callgsubr
          139 hlineto
          17 85 rlineto
          -138 hlineto
          6 24 rlineto
          55 14 34 57 60 hhcurveto
          31 18 -10 -10 15 hvcurveto
          40 82 rlineto
          12 -25 -30 20 -52 hhcurveto
          -59 -47 -26 -39 -38 50 callgsubr
          -74 -85 -100 -24 16 callsubr
          129 85 rmoveto
          2 10 rlineto
          49 10 30 40 25 callgsubr
        </CharString>
        <CharString name="f_f_i">
          135 -28 callgsubr
          152 -24 callsubr
          109 510 rlineto
          -263 hlineto
          6 24 rlineto
          56 14 37 56 67 hhcurveto
          43 43 -21 -25 23 hvcurveto
          62 82 rlineto
          30 -41 -55 28 -66 hhcurveto
          -67 -57 -26 -39 -42 50 callgsubr
          -76 -91 -94 -22 16 callsubr
          129 85 rmoveto
          2 10 rlineto
          46 9 31 43 25 callgsubr
        </CharString>
        <CharString name="f_f_l">
          216 0 91 -77 -21 432 85 99 94 -57 94 hstemhm
          575 122 -21 115 hintmask 01110100
          674 -7 rmoveto
          52 61 19 3 2 hvcurveto
          6 89 rlineto
          hintmask 10110100
          -2 -37 -13 -22 29 callgsubr
          hintmask 10101010
          4 16 2 17 14 vvcurveto
          81 -52 53 -114 -70 -59 -22 -43 -42 vhcurveto
          hintmask 10110100
          16 -32 -33 12 -45 hhcurveto
          -103 -80 -86 -99 -23 hvcurveto
          -2 -8 rlineto
          -66 hlineto
          -18 -85 rlineto
          65 -24 callgsubr
          133 -24 callgsubr
          89 hlineto
          17 85 rlineto
          -87 hlineto
          2 9 rlineto
          hintmask 10101010
          69 16 34 58 65 hhcurveto
          53 17 -32 -38 -12 -3 -13 -2 -13 hvcurveto
          -90 -419 rlineto
          hintmask 01110100
          -4 -19 -2 -11 -12 vvcurveto
          -48 33 -36 66 vhcurveto
          -428 517 rmoveto
          2 12 rlineto
          43 8 38 44 53 hhcurveto
          18 23 -3 -12 16 hvcurveto
          -10 -20 -10 -37 -5 -27 rrcurveto
          endchar
        </CharString>
        <CharString name="f_i">
          -106 21 -21 425 85 136 94 hstem
          27 hmoveto
          47 callgsubr
          152 -24 callsubr
          109 510 rlineto
          -262 hlineto
          5 24 rlineto
          56 12 40 56 64 hhcurveto
          46 41 -19 -27 24 hvcurveto
          62 82 rlineto
          30 -37 -52 28 -71 hhcurveto
          -126 -92 -100 -109 -22 hvcurveto
          -4 -21 17 callgsubr
          endchar
        </CharString>
        <CharString name="f_l">
          -26 0 91 -77 -21 432 85 136 94 hstemhm
          333 122 -21 115 hintmask 01111000
          431 -7 rmoveto
          54 60 19 3 2 hvcurveto
          5 89 rlineto
          hintmask 10111000
          -1 -36 -13 -23 29 callgsubr
          hintmask 10110100
          4 16 2 16 15 vvcurveto
          81 -52 53 -115 -125 -87 -75 -125 -28 vhcurveto
          -6 -30 rlineto
          -66 hlineto
          -18 -85 rlineto
          65 -24 callgsubr
          90 hlineto
          17 85 rlineto
          -88 hlineto
          3 13 rlineto
          72 15 37 51 64 hhcurveto
          52 17 -32 -38 -12 -3 -14 -2 -14 hvcurveto
          -91 -421 rlineto
          hintmask 01111000
          -4 -17 -1 -11 -10 vvcurveto
          -48 34 -36 64 vhcurveto
          endchar
        </CharString>
        <CharString name="five">
          -103 -149 97 273 96 153 101 hstem
          341 115 vstem
          155 -149 rmoveto
          159 142 119 164 108 -71 75 -108 -46 -39 -16 -25 -25 hvcurveto
          74 194 rlineto
          250 hlineto
          22 101 rlineto
          -331 hlineto
          -15 -32 -127 -328 -23 -55 rrcurveto
          97 hlineto
          42 33 49 23 46 hhcurveto
          60 39 -43 -63 -95 -77 -72 -88 -61 -51 38 56 -23 hvcurveto
          -78 -63 rlineto
          -78 23 72 -50 97 hhcurveto
          endchar
        </CharString>
        <CharString name="five.denominator">
          -259 -5 63 157 51 81 67 hstem
          243 69 vstem
          112 -5 rmoveto
          107 93 68 93 65 -51 45 -77 -34 -28 43 callgsubr
          67 rlineto
          -225 hlineto
          -20 -53 -59 -128 -26 -64 rrcurveto
          59 hlineto
          27 23 41 19 35 hhcurveto
          37 38 -21 -44 -57 -53 -35 -60 -49 -35 21 31 -18 52 callgsubr
          endchar
        </CharString>
        <CharString name="five.lnum">
          -91 -10 98 273 95 153 101 hstem
          376 116 vstem
          191 -10 rmoveto
          159 142 120 163 108 -71 75 -108 -46 -39 -15 -25 -26 hvcurveto
          74 193 rlineto
          250 hlineto
          22 101 rlineto
          -331 hlineto
          -14 -31 -127 -328 -24 -55 rrcurveto
          97 hlineto
          41 34 49 24 46 hhcurveto
          60 38 -44 -63 -94 -76 -72 -88 -61 -51 37 57 -23 hvcurveto
          -79 -63 rlineto
          -79 24 72 -50 97 hhcurveto
          endchar
        </CharString>
        <CharString name="five.numerator">
          -260 311 65 156 51 81 66 hstem
          310 69 vstem
          251 -60 callgsubr
          endchar
        </CharString>
        <CharString name="fiveeighths">
          241 30 callgsubr
          65 65 -27 64 119 51 81 66 hstemhm
          317 69 81 -27 callsubr
          hintmask 0111011110100000
          258 -60 callgsubr
          -123 -589 -88 callgsubr
          hintmask 1011011110100000
          513 -45 -32 callgsubr
          hintmask 1010111101001000
          -62 callsubr
          hintmask 1011011110100000
          -80 callsubr
          hintmask 1010111101010000
          -57 callsubr
          endchar
        </CharString>
        <CharString name="fiveinferior">
          -259 -87 63 157 51 81 66 hstem
          226 68 vstem
          167 184 rmoveto
          -34 -28 -9 -13 -20 hvcurveto
          47 103 rlineto
          177 -29 callsubr
          41 19 35 hhcurveto
          37 38 -22 -43 -57 -54 -35 -60 -48 -36 21 31 -17 52 callgsubr
          106 55 callsubr
        </CharString>
        <CharString name="fivesuperior">
          -260 394 64 156 51 81 66 hstem
          327 69 vstem
          269 665 rmoveto
          -34 -29 -9 -13 -19 hvcurveto
          47 103 rlineto
          176 -29 callsubr
          42 19 34 hhcurveto
          37 38 -22 -43 -57 -53 -34 -60 -48 -37 20 32 -17 hvcurveto
          -50 -43 rlineto
          -45 18 50 -28 66 hhcurveto
          107 55 callsubr
        </CharString>
        <CharString name="florin">
          -115 -191 96 472 85 185 93 hstem
          47 -191 rmoveto
          89 91 72 103 22 hvcurveto
          84 393 rlineto
          126 hlineto
          18 85 rlineto
          -126 hlineto
          16 72 rlineto
          74 16 33 39 40 callsubr
          -31 -40 12 -40 hhcurveto
          -97 -80 -81 -128 -27 hvcurveto
          -15 -69 -5 callgsubr
          66 hlineto
          -84 -396 rlineto
          -44 -9 -39 -32 -37 hhcurveto
          -21 -21 7 16 -13 -6 callsubr
          41 -14 45 hhcurveto
          endchar
        </CharString>
        <CharString name="four">
          -88 -106 -21 159 100 439 -20 hstem
          223 -127 rmoveto
          -67 callgsubr
          34 159 rlineto
          84 hlineto
          21 100 rlineto
          -84 hlineto
          94 439 rlineto
          -75 hlineto
          -417 -441 -21 -98 rlineto
          288 hlineto
          -155 100 rmoveto
          246 271 -58 -271 rlineto
          endchar
        </CharString>
        <CharString name="four.denominator">
          -248 0 162 -65 65 252 -20 hstemhm
          hintmask 10100000
          171 hmoveto
          66 hlineto
          hintmask 01100000
          -49 callsubr
          hintmask 10100000
          8 callgsubr
          endchar
        </CharString>
        <CharString name="four.lnum">
          -75 21 -21 172 99 439 -20 hstem
          371 hmoveto
          36 172 rlineto
          84 -78 callsubr
          -84 hlineto
          93 439 rlineto
          -75 hlineto
          -425 -440 -21 -98 rlineto
          297 hlineto
          -36 -172 rlineto
          -128 271 rmoveto
          255 272 -58 -272 rlineto
          endchar
        </CharString>
        <CharString name="four.numerator">
          -247 318 161 34 callgsubr
          305 318 rmoveto
          hintmask 01100000
          21 95 rlineto
          57 -12 callgsubr
          -58 hlineto
          54 251 rlineto
          -46 hlineto
          -286 42 callgsubr
          -95 rlineto
          72 328 rmoveto
          -35 -167 rlineto
          -149 hlineto
          endchar
        </CharString>
        <CharString name="fourinferior">
          -248 -82 162 34 callgsubr
          220 -82 rmoveto
          hintmask 01100000
          20 96 rlineto
          57 -12 callgsubr
          -58 hlineto
          54 251 rlineto
          -45 hlineto
          -287 42 callgsubr
          -96 rlineto
          73 329 55 callgsubr
        </CharString>
        <CharString name="foursuperior">
          -247 400 161 34 callgsubr
          323 400 rmoveto
          hintmask 01100000
          20 95 rlineto
          57 -12 callgsubr
          -57 hlineto
          53 251 rlineto
          -45 hlineto
          -286 -252 -14 -65 rlineto
          212 hlineto
          hintmask 10100000
          -21 -95 rlineto
          73 328 55 callgsubr
        </CharString>
        <CharString name="fraction">
          -450 15 -21 722 -20 hstem
          -206 -6 -88 callgsubr
          endchar
        </CharString>
        <CharString name="franc">
          -47 0 195 -79 79 111 93 212 99 hstemhm
          hintmask 10110000
          160 hmoveto
          hintmask 01110000
          25 116 rlineto
          109 hlineto
          17 79 rlineto
          -109 hlineto
          24 111 54 callgsubr
          44 212 rlineto
          338 hlineto
          22 99 rlineto
          -451 hlineto
          -110 -515 rlineto
          -80 hlineto
          -17 -79 rlineto
          80 hlineto
          hintmask 10110000
          -24 -116 rlineto
          endchar
        </CharString>
        <CharString name="g">
          -51 callgsubr
          hstemhm
          19 114 hintmask 11011000
          0 callgsubr
          hintmask 11101000
          -101 callgsubr
          endchar
        </CharString>
        <CharString name="gacute">
          -51 callgsubr
          227 49 callgsubr
          hintmask 11011100
          448 730 -96 callgsubr
          -174 -825 -72 callgsubr
          hintmask 11101100
          -101 callgsubr
          endchar
        </CharString>
        <CharString name="gbreve">
          -51 callgsubr
          105 -23 callsubr
          19 114 109 63 hintmask 11011011
          0 callgsubr
          hintmask 11101011
          -101 callgsubr
          96 575 -47 callgsubr
          hintmask 11100111
          -100 callsubr
          hintmask 11101011
          -57 callgsubr
        </CharString>
        <CharString name="gcircumflex">
          -51 callgsubr
          227 49 callgsubr
          hintmask 11011100
          266 607 -102 callsubr
          -51 -858 -72 callgsubr
          hintmask 11101100
          -101 callgsubr
          endchar
        </CharString>
        <CharString name="gcommaaccent">
          -51 callgsubr
          29 48 165 49 callgsubr
          hintmask 11011110
          361 745 rmoveto
          -50 -77 -19 -88 rlineto
          94 hlineto
          19 88 rlineto
          -32 hlineto
          39 77 rlineto
          -249 -968 -72 callgsubr
          64 -26 -50 44 -79 hhcurveto
          -159 -137 56 callsubr
          -114 65 -97 112 68 75 37 63 47 hvcurveto
          -16 -80 rlineto
          -107 -21 -84 -47 -85 hhcurveto
          -68 -56 30 56 -26 hvcurveto
          -74 -58 rlineto
          -70 36 60 -42 111 hhcurveto
          88 307 rmoveto
          -71 -47 62 78 hvcurveto
          hintmask 11100110
          100 84 114 102 57 50 -47 -66 10 vhcurveto
          -30 -22 callsubr
          -55 -27 -67 -49 -61 hhcurveto
          endchar
        </CharString>
        <CharString name="gdotaccent">
          -51 callgsubr
          112 115 -13 callsubr
          hintmask 11011100
          0 callgsubr
          hintmask 11101100
          -101 callgsubr
          141 531 -75 callsubr
          endchar
        </CharString>
        <CharString name="germandbls">
          -99 -6 101 -74 -21 345 100 175 94 hstemhm
          373 114 -86 110 hintmask 10111000
          170 -6 rmoveto
          168 5 149 80 172 vvcurveto
          73 -34 61 -66 17 vhcurveto
          hintmask 01110100
          60 19 64 79 80 vvcurveto
          82 -62 52 -91 -119 -104 -81 -113 -24 vhcurveto
          -111 -520 rlineto
          105 hlineto
          107 501 rlineto
          64 13 40 55 65 hhcurveto
          39 32 -22 -45 -60 -45 -48 -61 hvcurveto
          -19 hlineto
          -21 -100 rlineto
          20 hlineto
          hintmask 10111000
          58 40 -37 -62 -102 -79 -47 -102 -2 hvcurveto
          endchar
        </CharString>
        <CharString name="grave">
          -400 622 -21 129 -20 hstem
          124 601 -77 callgsubr
        </CharString>
        <CharString name="greater">
          -86 0 -21 559 -20 hstem
          500 284 rmoveto
          -421 254 rlineto
          -117 vlineto
          261 -162 -261 -158 rlineto
          -122 vlineto
          421 250 rlineto
          endchar
        </CharString>
        <CharString name="greaterequal">
          -142 40 89 447 -20 hstem
          74 40 rmoveto
          342 89 -342 hlineto
          3 57 rmoveto
          339 158 rlineto
          68 vlineto
          -339 164 rlineto
          -105 vlineto
          201 -90 -201 -87 rlineto
          endchar
        </CharString>
        <CharString name="guillemotleft">
          -33 -21 callgsubr
          246 -55 rmoveto
          209 -175 20 90 -135 115 184 119 19 91 -286 -185 rlineto
          endchar
        </CharString>
        <CharString name="guillemotright">
          -33 75 -21 415 -20 hstem
          559 284 rmoveto
          -207 185 -20 -91 134 -119 -183 -115 -19 -90 283 175 rlineto
          -246 55 0 callsubr
        </CharString>
        <CharString name="guilsinglleft">
          -291 -21 callgsubr
          endchar
        </CharString>
        <CharString name="guilsinglright">
          -291 75 -21 415 -20 hstem
          301 284 0 callsubr
        </CharString>
        <CharString name="h">
          -18 callsubr
          23 callsubr
          410 118 vstem
          0 vmoveto
          -82 callgsubr
          66 312 -84 callgsubr
          endchar
        </CharString>
        <CharString name="hbar">
          -18 callsubr
          64 68 -68 134 hstemhm
          410 118 hintmask 11101000
          63 596 rmoveto
          63 hlineto
          -126 -596 rlineto
          -82 callgsubr
          37 178 rlineto
          97 hlineto
          15 68 rlineto
          -97 hlineto
          hintmask 11011000
          14 66 -84 callgsubr
          hintmask 11101000
          -14 -66 rlineto
          -64 hlineto
          endchar
        </CharString>
        <CharString name="hcircumflex">
          -18 callsubr
          197 18 callsubr
          410 118 hintmask 11101000
          333 607 rmoveto
          88 62 62 -62 59 28 -72 94 rlineto
          -74 hlineto
          -111 -94 rlineto
          -285 -635 rmoveto
          -82 callgsubr
          hintmask 11011000
          66 312 -84 callgsubr
          endchar
        </CharString>
        <CharString name="hdotbelow">
          -60 -37 callgsubr
          94 2 callgsubr
          23 callsubr
          410 118 vstem
          0 vmoveto
          -82 callgsubr
          66 312 -84 callgsubr
          76 -919 -88 callsubr
          endchar
        </CharString>
        <CharString name="hungarumlaut">
          -297 624 -21 127 -20 hstem
          193 730 -67 callsubr
          endchar
        </CharString>
        <CharString name="hyphen">
          -230 224 99 hstem
          328 224 rmoveto
          21 99 rlineto
          -285 -30 callgsubr
          endchar
        </CharString>
        <CharString name="i">
          21 -60 callsubr
          endchar
        </CharString>
        <CharString name="iacute">
          -41 callsubr
          307 730 -96 callgsubr
          -196 -602 -44 callgsubr
        </CharString>
        <CharString name="ibreve">
          -40 callsubr
          105 -23 callsubr
          80 63 hintmask 11101000
          -63 callgsubr
          73 136 -47 callgsubr
          hintmask 11011000
          -100 callsubr
          hintmask 11101000
          -57 callgsubr
        </CharString>
        <CharString name="icircumflex">
          -41 callsubr
          108 607 -102 callsubr
          -56 -635 -44 callgsubr
        </CharString>
        <CharString name="idblgrave">
          -41 callsubr
          244 601 -95 callsubr
          -48 -730 -44 callgsubr
        </CharString>
        <CharString name="idieresis">
          50 callsubr
          143 615 -100 callgsubr
          -223 -615 -44 callgsubr
        </CharString>
        <CharString name="idotbelow">
          -37 callgsubr
          94 -60 callsubr
          -90 -919 -88 callsubr
          endchar
        </CharString>
        <CharString name="igrave">
          21 -21 523 -20 227 -20 -33 callgsubr
          44 78 -77 callgsubr
        </CharString>
        <CharString name="iinvertedbreve">
          -40 callsubr
          105 -27 callgsubr
          244 61 hintmask 11101000
          70 49 callsubr
          hintmask 11011000
          -74 callgsubr
          hintmask 11101000
          -97 callgsubr
          -70 -608 -44 callgsubr
        </CharString>
        <CharString name="ij">
          -151 -191 96 116 -60 callsubr
          -6 -921 rmoveto
          90 91 74 106 23 hvcurveto
          113 534 -84 callgsubr
          -115 -542 rlineto
          -44 -9 -40 -32 -36 hhcurveto
          -21 -21 7 16 -13 -6 callsubr
          40 -14 46 hhcurveto
          225 800 rmoveto
          -67 callgsubr
          26 -31 callsubr
          endchar
        </CharString>
        <CharString name="imacron">
          -40 callsubr
          139 70 -33 callgsubr
          215 119 -66 callsubr
          endchar
        </CharString>
        <CharString name="infinity">
          70 177 85 178 86 hstem
          53 85 446 85 vstem
          217 526 rmoveto
          -93 -71 -78 -96 -96 81 -79 83 80 38 38 43 28 hvcurveto
          -43 29 38 -38 75 hhcurveto
          93 71 78 96 96 -64 79 -99 -79 -36 -42 -48 -30 hvcurveto
          48 -30 -37 42 -77 hhcurveto
          4 -264 rmoveto
          -40 -43 27 63 62 43 26 40 55 26 -41 -49 25 hvcurveto
          -48 -25 -27 -40 -54 hhcurveto
          280 hmoveto
          -53 -27 38 46 -23 hvcurveto
          51 22 25 43 56 hhcurveto
          40 43 -26 -62 -63 -43 -27 -40 hvcurveto
          endchar
        </CharString>
        <CharString name="integral">
          -300 -167 89 809 89 hstemhm
          100 108 -67 104 hintmask 11010000
          139 23 rmoveto
          1 -20 1 -23 -1 vvcurveto
          -35 -21 -22 -33 -14 -20 5 8 -17 vhcurveto
          -22 -78 rlineto
          -14 33 48 -10 35 hhcurveto
          73 42 40 69 4 -1 29 -2 31 hvcurveto
          hintmask 11100000
          -34 618 rlineto
          -2 32 -1 23 10 vvcurveto
          28 21 14 33 15 20 -5 -8 18 vhcurveto
          22 78 rlineto
          14 -34 -48 10 -36 hhcurveto
          -74 -42 -37 -58 -7 3 -37 2 -37 hvcurveto
          endchar
        </CharString>
        <CharString name="iogonek">
          -167 -21 209 2 callsubr
          86 hstemhm
          -55 70 vstemhm
          0 vmoveto
          44 -1 callgsubr
          67 38 vhcurveto
          -64 callgsubr
          18 86 rmoveto
          -67 callgsubr
          hintmask 11110000
          25 -31 callsubr
          endchar
        </CharString>
        <CharString name="itilde">
          -40 callsubr
          112 -47 callsubr
          hintmask 11101000
          -63 callgsubr
          132 27 callsubr
          hintmask 11010000
          -93 callgsubr
          hintmask 11101000
          -56 callsubr
        </CharString>
        <CharString name="j">
          -389 -191 96 618 -20 106 121 hstem
          -90 -191 rmoveto
          90 91 74 106 23 hvcurveto
          113 534 -84 callgsubr
          -115 -542 rlineto
          -44 -9 -40 -32 -36 hhcurveto
          -21 -21 7 16 -13 -6 callsubr
          40 -14 46 hhcurveto
          225 800 rmoveto
          -67 callgsubr
          26 -31 callsubr
          endchar
        </CharString>
        <CharString name="j.alt">
          -192 -21 822 115 hstem
          -45 -213 rmoveto
          -67 callgsubr
          155 730 -84 callgsubr
          20 92 rmoveto
          -67 callgsubr
          24 115 rlineto
          -109 hlineto
          endchar
        </CharString>
        <CharString name="jcircumflex">
          -191 96 618 -20 227 -43 callgsubr
          197 798 -62 callgsubr
        </CharString>
        <CharString name="k">
          -83 21 38 callsubr
          0 vmoveto
          -67 callgsubr
          50 234 rlineto
          113 42 97 93 79 hhcurveto
          27 19 -13 -32 -61 -65 -62 -119 -26 hvcurveto
          113 -246 rlineto
          -20 callsubr
          -107 213 rlineto
          104 46 56 77 86 vvcurveto
          66 -35 43 -72 -90 -76 -62 -82 -59 vhcurveto
          73 343 -84 callgsubr
          endchar
        </CharString>
        <CharString name="kcommaaccent">
          -83 -192 -21 234 38 callsubr
          196 -91 callsubr
          -145 213 rmoveto
          -67 callgsubr
          50 234 rlineto
          113 42 97 93 79 hhcurveto
          27 19 -13 -32 -61 -65 -62 -119 -26 hvcurveto
          113 -246 rlineto
          -20 callsubr
          -107 213 rlineto
          104 46 56 77 86 vvcurveto
          66 -35 43 -72 -90 -76 -62 -82 -59 vhcurveto
          73 343 -84 callgsubr
          endchar
        </CharString>
        <CharString name="kgreenlandic">
          -106 21 -21 522 18 callsubr
          hintmask 11000000
          0 vmoveto
          -67 callgsubr
          34 159 97 82 104 -241 rlineto
          -20 callsubr
          -139 303 237 219 rlineto
          -118 hlineto
          -276 -255 rlineto
          hintmask 10100000
          55 256 -84 callgsubr
          endchar
        </CharString>
        <CharString name="l">
          -340 -8 97 641 -20 -19 callsubr
          116 -8 -90 callgsubr
          endchar
        </CharString>
        <CharString name="l.alt">
          -387 21 -21 730 -20 hstem
          4 hmoveto
          -67 callgsubr
          155 730 -84 callgsubr
          endchar
        </CharString>
        <CharString name="lacute">
          -340 -8 97 641 -20 181 -20 -19 callsubr
          342 891 -96 callgsubr
          -115 -771 -90 callgsubr
          endchar
        </CharString>
        <CharString name="lcaron">
          -347 -8 97 641 -20 -19 callsubr
          360 -48 callgsubr
          -178 -628 -90 callgsubr
          endchar
        </CharString>
        <CharString name="lcommaaccent">
          -340 -3 callgsubr
          40 0 97 641 -20 hstemhm
          21 119 hintmask 11011000
          77 -91 callsubr
          90 205 rmoveto
          34 50 10 14 34 hvcurveto
          4 86 rlineto
          hintmask 10111000
          -7 -18 -22 -6 -15 hhcurveto
          -27 -16 16 26 6 1 7 2 7 hvcurveto
          122 579 rlineto
          -109 hlineto
          -131 -619 rlineto
          -3 -12 -1 -12 -10 vvcurveto
          -54 34 -31 61 vhcurveto
          endchar
        </CharString>
        <CharString name="ldot">
          -277 -8 97 178 137 326 -20 -19 callsubr
          116 -8 -90 callgsubr
          220 275 -25 callsubr
        </CharString>
        <CharString name="less">
          -85 0 -21 559 -20 hstem
          30 229 rmoveto
          420 -250 rlineto
          122 vlineto
          -261 158 261 162 rlineto
          117 vlineto
          -420 -254 rlineto
          endchar
        </CharString>
        <CharString name="lessequal">
          -166 40 89 447 -20 hstem
          393 40 rmoveto
          89 -343 -89 vlineto
          304 vmoveto
          340 -158 rlineto
          108 vlineto
          -201 87 201 90 rlineto
          105 vlineto
          -340 -164 rlineto
          endchar
        </CharString>
        <CharString name="lira">
          -137 -15 94 -67 67 -67 85 133 67 53 67 208 90 hstemhm
          124 98 hintmask 01011110
          58 350 rmoveto
          96 hlineto
          2 -15 2 -16 -22 vvcurveto
          -111 hlineto
          -14 -67 rlineto
          111 hlineto
          -21 -51 -44 -48 -74 -60 9 -79 rcurveline
          12 40 47 8 33 hhcurveto
          hintmask 10011110
          60 48 -27 57 hhcurveto
          36 43 11 18 34 hvcurveto
          -8 82 rlineto
          -11 -33 -23 -6 -23 hhcurveto
          hintmask 00111110
          -44 -35 18 -48 hhcurveto
          -22 -24 -4 -7 -28 hvcurveto
          65 59 35 43 16 42 rrcurveto
          133 hlineto
          14 67 rlineto
          -133 hlineto
          1 5 0 6 6 vvcurveto
          12 -1 12 -2 12 vhcurveto
          147 hlineto
          14 67 rlineto
          -174 hlineto
          -9 32 -8 30 29 vvcurveto
          65 53 52 59 51 callgsubr
          -30 -63 40 -74 hhcurveto
          -118 -113 -93 -114 -30 6 -30 8 -31 hvcurveto
          -66 hlineto
          endchar
        </CharString>
        <CharString name="logicalnot">
          -54 134 -21 175 99 hstem
          80 387 rmoveto
          -21 -99 rlineto
          357 hlineto
          -37 -175 rlineto
          94 hlineto
          58 274 rlineto
          endchar
        </CharString>
        <CharString name="lozenge">
          -91 21 -21 730 -20 hstem
          225 730 rmoveto
          -186 -364 186 -366 rlineto
          120 hlineto
          186 366 -186 364 rlineto
          -52 -652 rmoveto
          -147 297 138 274 149 -295 rlineto
          endchar
        </CharString>
        <CharString name="lslash">
          -313 -8 97 641 -20 hstem
          46 120 -120 216 vstem
          29 276 rmoveto
          64 38 -43 -203 rlineto
          -2 -12 -2 -12 -10 vvcurveto
          -54 35 -31 61 34 49 10 14 35 vhcurveto
          4 86 rlineto
          -7 -18 -23 -6 -14 hhcurveto
          -28 -15 16 26 9 3 12 3 15 hvcurveto
          47 222 123 74 -17 60 -89 -53 55 260 -84 callgsubr
          -71 -335 -97 -58 rlineto
          endchar
        </CharString>
        <CharString name="m">
          253 -4 callsubr
          -9 -20 hstemhm
          397 120 207 119 hintmask 11011000
          0 vmoveto
          45 callsubr
          73 36 64 50 57 hhcurveto
          40 23 -24 -53 -18 -2 -20 -6 -26 hvcurveto
          -62 -293 rlineto
          -67 callgsubr
          65 310 rlineto
          72 37 64 52 57 hhcurveto
          41 23 -25 -16 callsubr
          -24 hvcurveto
          -62 -293 rlineto
          -67 callgsubr
          68 319 rlineto
          7 35 4 29 24 vvcurveto
          73 -30 52 -87 -78 -73 -42 -77 -58 vhcurveto
          74 -3 -38 45 -80 hhcurveto
          -77 -79 -43 -71 -51 hvcurveto
          hintmask 10111000
          -21 callsubr
        </CharString>
        <CharString name="macron">
          -241 642 70 hstem
          358 642 -66 callsubr
          endchar
        </CharString>
        <CharString name="minus">
          -84 271 89 hstem
          479 271 rmoveto
          89 -403 -89 vlineto
          endchar
        </CharString>
        <CharString name="mu">
          -15 39 callsubr
          159 224 hintmask 11011000
          -36 -68 callsubr
          64 298 -84 callgsubr
          endchar
        </CharString>
        <CharString name="multiply">
          -155 117 -21 354 -20 hstem
          301 274 rmoveto
          106 107 -69 69 -106 -107 -106 106 -70 -68 106 -107 -109 -109 69 -69 109 109 110 -109 70 68 rlineto
          endchar
        </CharString>
        <CharString name="n">
          -60 21 43 callsubr
          hintmask 11010000
          0 vmoveto
          45 callsubr
          -99 callgsubr
          hintmask 10110000
          -21 callsubr
        </CharString>
        <CharString name="nacute">
          -9 callgsubr
          227 22 callsubr
          hintmask 11011000
          497 730 -96 callgsubr
          -386 -602 rmoveto
          45 callsubr
          -99 callgsubr
          hintmask 10111000
          -21 callsubr
        </CharString>
        <CharString name="napostrophe">
          -9 callgsubr
          227 22 callsubr
          hintmask 11011000
          37 26 callsubr
          29 -620 rmoveto
          45 callsubr
          -99 callgsubr
          hintmask 10111000
          -21 callsubr
        </CharString>
        <CharString name="ncaron">
          -9 callgsubr
          29 75 123 22 callsubr
          hintmask 10111100
          306 607 -92 callgsubr
          -228 -702 rmoveto
          45 callsubr
          hintmask 11001100
          -99 callgsubr
          hintmask 10111100
          -21 callsubr
        </CharString>
        <CharString name="ncommaaccent">
          -60 -192 -21 234 32 callgsubr
          189 -91 callsubr
          -138 213 rmoveto
          45 callsubr
          -99 callgsubr
          hintmask 11011000
          -21 callsubr
        </CharString>
        <CharString name="ndotaccent">
          -9 callgsubr
          112 115 7 callgsubr
          hintmask 11011000
          390 615 -75 callsubr
          -291 -615 rmoveto
          45 callsubr
          -99 callgsubr
          hintmask 10111000
          -21 callsubr
        </CharString>
        <CharString name="nine">
          -60 -154 96 145 88 302 94 hstem
          35 106 285 103 vstem
          172 -154 rmoveto
          211 146 227 268 143 -71 87 -121 -157 -145 -133 -156 -111 75 -84 114 70 65 38 59 40 hvcurveto
          -153 -35 -78 -89 -92 hhcurveto
          -61 -47 35 56 -16 hvcurveto
          -79 -68 rlineto
          -75 30 65 -44 86 hhcurveto
          80 329 rmoveto
          -65 -46 54 69 95 90 84 85 65 45 -56 -69 -94 -86 -83 -88 hvcurveto
          endchar
        </CharString>
        <CharString name="nine.denominator">
          -228 -5 63 77 59 161 62 hstem
          22 65 208 62 vstem
          124 -5 rmoveto
          138 95 121 158 89 -50 54 -84 -106 -95 -76 -90 -66 53 -50 83 44 51 19 30 26 hvcurveto
          -80 -18 -55 -46 -66 hhcurveto
          -44 -35 19 30 -12 hvcurveto
          -50 -45 rlineto
          -43 20 47 -24 58 hhcurveto
          50 199 rmoveto
          -50 -37 30 39 48 60 44 61 51 36 -32 -39 -48 -59 -42 -62 hvcurveto
          endchar
        </CharString>
        <CharString name="nine.lnum">
          -42 -10 97 144 89 302 93 hstem
          74 108 285 102 vstem
          74 426 rmoveto
          -110 75 -85 115 69 67 38 59 39 vhcurveto
          -153 -35 -78 -88 -93 hhcurveto
          -59 -47 35 56 -17 hvcurveto
          -79 -68 rlineto
          -76 30 65 -44 86 hhcurveto
          211 146 229 266 144 -71 86 -121 -157 -146 -132 -157 hvcurveto
          282 196 rmoveto
          66 45 -56 -69 -95 -88 -82 -86 -66 -45 54 69 94 89 85 85 hvcurveto
          endchar
        </CharString>
        <CharString name="nine.numerator">
          -228 307 63 78 59 161 62 hstem
          88 65 209 62 vstem
          88 565 rmoveto
          -67 54 -50 83 44 51 19 31 26 vhcurveto
          -81 -18 -55 -47 -66 hhcurveto
          -45 -34 20 30 -13 hvcurveto
          -49 -45 rlineto
          -43 20 47 -25 58 hhcurveto
          138 95 122 159 88 -51 54 -84 -106 -95 -76 -89 hvcurveto
          187 103 rmoveto
          50 37 -32 -39 -49 -59 -41 -62 -50 -38 31 38 49 60 43 62 hvcurveto
          endchar
        </CharString>
        <CharString name="nineinferior">
          -228 -87 63 76 59 162 61 hstem
          4 65 209 62 vstem
          4 169 rmoveto
          -66 54 -51 83 44 51 20 30 26 vhcurveto
          -80 -18 -56 -46 -65 hhcurveto
          -45 -34 19 30 -13 hvcurveto
          -50 -46 rlineto
          -42 20 48 -24 58 hhcurveto
          139 94 121 158 89 -51 53 -84 -105 -96 -75 -90 hvcurveto
          187 104 rmoveto
          50 37 -33 -38 -48 -59 -43 -62 -50 -38 31 39 48 60 44 62 hvcurveto
          endchar
        </CharString>
        <CharString name="ninesuperior">
          -228 390 63 77 59 162 61 hstem
          105 66 209 61 vstem
          105 647 rmoveto
          -66 55 -51 82 44 52 20 30 25 vhcurveto
          -80 -18 -54 -47 -67 hhcurveto
          -44 -35 19 30 -12 hvcurveto
          -49 -45 rlineto
          -43 20 47 -24 57 hhcurveto
          138 95 122 158 88 -51 54 -83 -106 -96 -75 -90 hvcurveto
          187 104 rmoveto
          51 37 -33 -39 -48 -60 -42 -62 -50 -37 31 38 49 60 44 61 hvcurveto
          endchar
        </CharString>
        <CharString name="notequal">
          -154 63 -21 122 73 78 73 123 -20 hstem
          79 315 rmoveto
          147 hlineto
          -41 -78 rlineto
          -106 -73 67 hlineto
          -51 -98 44 -24 64 122 rlineto
          185 73 -147 hlineto
          41 78 rlineto
          106 73 -67 hlineto
          52 99 -44 24 -65 -123 rlineto
          -185 hlineto
          endchar
        </CharString>
        <CharString name="ntilde">
          -9 callgsubr
          112 66 -23 67 5 22 callsubr
          hintmask 11010110
          0 vmoveto
          45 callsubr
          -99 callgsubr
          hintmask 10110110
          22 105 rlineto
          -99 hlineto
          283 27 callsubr
          hintmask 11001010
          -93 callgsubr
          hintmask 11010110
          -56 callsubr
        </CharString>
        <CharString name="numbersign">
          44 21 -21 194 84 158 78 196 -20 hstem
          687 514 rmoveto
          -115 hlineto
          87 196 rlineto
          -89 hlineto
          -86 -196 rlineto
          -132 hlineto
          87 196 rlineto
          -89 hlineto
          -87 -196 rlineto
          -137 hlineto
          -17 -78 rlineto
          -20 callsubr
          -68 -158 rlineto
          -127 hlineto
          -18 -84 rlineto
          107 hlineto
          -87 -194 rlineto
          90 hlineto
          86 194 rlineto
          131 hlineto
          -86 -194 rlineto
          89 hlineto
          86 194 rlineto
          145 hlineto
          17 84 rlineto
          -124 hlineto
          68 158 rlineto
          134 hlineto
          -422 -158 rmoveto
          68 158 rlineto
          131 hlineto
          -68 -158 rlineto
          endchar
        </CharString>
        <CharString name="o">
          -52 -44 callsubr
          5 callgsubr
          -76 callsubr
          endchar
        </CharString>
        <CharString name="oacute">
          -59 callgsubr
          474 730 -96 callgsubr
          -139 -612 rmoveto
          -106 callsubr
          endchar
        </CharString>
        <CharString name="obreve">
          -52 -44 callsubr
          76 -23 callsubr
          19 114 124 63 111 115 hintmask 11101110
          -76 callsubr
          117 575 -47 callgsubr
          hintmask 11011110
          -100 callsubr
          hintmask 11101110
          -57 callgsubr
        </CharString>
        <CharString name="ocircumflex">
          -59 callgsubr
          275 607 -102 callsubr
          1 -645 rmoveto
          -106 callsubr
          endchar
        </CharString>
        <CharString name="odblgrave">
          -59 callgsubr
          411 601 -95 callsubr
          9 -740 rmoveto
          -106 callsubr
          endchar
        </CharString>
        <CharString name="odieresis">
          -52 -44 callsubr
          83 110 5 callgsubr
          319 615 -100 callgsubr
          -175 -625 rmoveto
          -106 callsubr
          endchar
        </CharString>
        <CharString name="odotbelow">
          -52 -37 callgsubr
          63 -35 callgsubr
          5 callgsubr
          241 -54 callsubr
          83 179 rmoveto
          -106 callsubr
          endchar
        </CharString>
        <CharString name="oe">
          338 -10 79 -79 94 141 70 143 94 -81 81 hstemhm
          48 callsubr
          103 305 107 hintmask 10110111
          224 -10 rmoveto
          83 76 47 87 71 hvcurveto
          -84 35 60 -50 84 hhcurveto
          98 101 53 81 54 hvcurveto
          -86 27 rlineto
          -48 -27 -62 -34 -58 hhcurveto
          -71 -48 55 74 9 0 9 2 9 hvcurveto
          394 hlineto
          6 12 10 27 48 vvcurveto
          131 -76 89 -127 -90 -79 -48 -90 -64 vhcurveto
          87 -22 -61 51 -88 hhcurveto
          -168 -152 -146 -179 -125 79 -92 126 hvcurveto
          hintmask 01110111
          21 94 rmoveto
          -68 -44 58 78 118 92 100 95 68 43 -59 -79 -117 -90 -99 -96 hvcurveto
          303 211 rmoveto
          hintmask 10101111
          91 24 73 65 78 hhcurveto
          69 47 -51 -77 -9 -1 -10 -1 -9 hvcurveto
          endchar
        </CharString>
        <CharString name="ogonek">
          -372 -167 -21 208 -20 hstem
          35 70 vstem
          117 20 callsubr
          -29 20 rlineto
          -93 -47 -43 -46 -45 -50 callsubr
          endchar
        </CharString>
        <CharString name="ograve">
          -59 callgsubr
          -76 callsubr
          88 517 -77 callgsubr
        </CharString>
        <CharString name="ohungarumlaut">
          -59 callgsubr
          392 730 -67 callsubr
          -205 -613 rmoveto
          -106 callsubr
          endchar
        </CharString>
        <CharString name="oinvertedbreve">
          -52 -44 callsubr
          76 -27 callgsubr
          19 114 286 61 -49 115 hintmask 11101100
          245 49 callsubr
          hintmask 11011100
          -74 callgsubr
          hintmask 11101100
          -97 callgsubr
          -21 -618 rmoveto
          hintmask 11101010
          -106 callsubr
          endchar
        </CharString>
        <CharString name="omacron">
          -52 -44 callsubr
          110 70 5 callgsubr
          503 642 -66 callsubr
          3 -652 rmoveto
          -106 callsubr
          endchar
        </CharString>
        <CharString name="one">
          -179 0 99 274 103 95 -20 hstem
          1 hmoveto
          369 -78 callsubr
          -121 hlineto
          100 472 rlineto
          -113 hlineto
          -19 -13 -110 -76 -51 hhcurveto
          -22 -103 rlineto
          50 92 44 31 29 hvcurveto
          -74 -349 rlineto
          -135 hlineto
          endchar
        </CharString>
        <CharString name="one.denominator">
          -329 0 65 353 -20 hstem
          -16 hmoveto
          240 hlineto
          13 65 rlineto
          -83 hlineto
          75 353 rlineto
          -67 hlineto
          -3 -1 -69 -54 -47 hhcurveto
          -14 -66 rlineto
          36 61 31 18 18 hvcurveto
          -59 -279 rlineto
          -90 hlineto
          endchar
        </CharString>
        <CharString name="one.lnum">
          -186 0 99 420 102 96 -20 hstem
          1 hmoveto
          363 -78 callsubr
          -120 hlineto
          131 618 rlineto
          -112 hlineto
          -4 -3 -102 -92 -68 hhcurveto
          -22 -102 rlineto
          51 93 55 31 27 hvcurveto
          -108 -506 rlineto
          -130 hlineto
          endchar
        </CharString>
        <CharString name="one.numerator">
          -356 313 66 352 -20 hstem
          206 379 -81 callsubr
          endchar
        </CharString>
        <CharString name="oneeighth">
          223 30 callgsubr
          67 66 -30 64 318 -20 hstemhm
          451 -27 callsubr
          hintmask 0111011010000000
          109 -6 -88 callgsubr
          148 339 -81 callsubr
          hintmask 1011011010000000
          306 -384 -32 callgsubr
          hintmask 1010110100100000
          -62 callsubr
          hintmask 1011011010000000
          -80 callsubr
          hintmask 1010110101000000
          -57 callsubr
          endchar
        </CharString>
        <CharString name="onehalf">
          223 0 65 -50 -21 319 66 -26 65 313 -20 hstemhm
          744 74 hintmask 10011100
          442 hmoveto
          313 hlineto
          15 65 rlineto
          -211 hlineto
          7 33 27 38 73 24 rrcurveto
          98 33 54 37 86 vvcurveto
          62 -41 40 -81 -92 -66 -46 -22 -21 vhcurveto
          31 -49 rlineto
          23 25 44 29 56 hhcurveto
          47 24 -20 -31 -65 -76 -17 -68 -27 hvcurveto
          -94 -38 -43 -48 -21 -107 rrcurveto
          hintmask 01101100
          -346 -6 -88 callgsubr
          160 339 -81 callsubr
          endchar
        </CharString>
        <CharString name="oneinferior">
          -328 -82 65 353 -20 hstem
          137 -17 rmoveto
          75 353 rlineto
          -68 hlineto
          -3 -1 -69 -54 -46 hhcurveto
          -15 -67 rlineto
          36 61 32 18 19 hvcurveto
          -60 -279 rlineto
          -89 hlineto
          -14 -65 rlineto
          240 hlineto
          13 65 rlineto
          endchar
        </CharString>
        <CharString name="onequarter">
          193 0 162 -147 -21 103 65 151 66 352 -20 hstemhm
          hintmask 10011000
          605 hmoveto
          66 hlineto
          hintmask 01111000
          -49 callsubr
          hintmask 10011000
          8 callgsubr
          hintmask 01111000
          -512 -168 -88 callgsubr
          125 339 -81 callsubr
          endchar
        </CharString>
        <CharString name="onesuperior">
          -356 395 66 352 -20 hstem
          224 461 rmoveto
          75 352 rlineto
          -68 hlineto
          -3 -1 -61 -53 -40 hhcurveto
          -14 -67 rlineto
          31 53 32 18 17 hvcurveto
          -59 -279 rlineto
          -75 hlineto
          -15 -66 rlineto
          211 -12 callgsubr
          endchar
        </CharString>
        <CharString name="onethird">
          222 -5 67 -47 -21 189 61 69 66 -22 62 312 -20 hstemhm
          714 17 callsubr
          hintmask 0111011000000000
          98 -6 -88 callgsubr
          160 339 -81 callsubr
          hintmask 1011010100000000
          302 -384 14 callsubr
          hintmask 1010110010000000
          -65 callgsubr
          hintmask 1011011000000000
          -45 callsubr
        </CharString>
        <CharString name="oogonek">
          -52 -172 -21 184 93 354 94 -13 callsubr
          -21 70 249 115 hintmask 11101100
          194 -193 rmoveto
          -61 callgsubr
          28 27 29 66 38 vhcurveto
          156 26 115 143 149 vvcurveto
          120 -73 99 -134 vhcurveto
          hintmask 11110100
          -179 -141 -157 -167 -113 64 -95 120 -9 hvcurveto
          hintmask 11101100
          -62 -39 -29 -38 -37 -50 callsubr
          51 277 rmoveto
          hintmask 11110100
          -68 -44 58 80 117 94 99 92 68 44 -59 -80 -117 -93 -98 -93 hvcurveto
          endchar
        </CharString>
        <CharString name="ordfeminine">
          -213 344 60 -41 -21 178 49 84 59 hstemhm
          70 81 177 82 hintmask 01111100
          163 342 rmoveto
          49 50 22 43 40 hvcurveto
          -3 -14 -1 -8 -5 vvcurveto
          hintmask 10111100
          -23 16 -13 33 9 12 1 3 13 vhcurveto
          16 73 rlineto
          -13 1 -5 4 11 vvcurveto
          3 0 3 1 4 vhcurveto
          25 118 rlineto
          3 15 2 14 13 vvcurveto
          68 -46 37 -80 -49 -48 -15 -31 -51 vhcurveto
          14 -53 rlineto
          26 43 36 14 36 hhcurveto
          41 22 -20 -36 -6 -1 -8 -2 -8 hvcurveto
          -5 -22 rlineto
          10 -21 -28 6 -32 hhcurveto
          -93 -76 -57 -79 hvcurveto
          hintmask 01111100
          -52 37 -39 56 vhcurveto
          hintmask 10111100
          37 62 rmoveto
          -29 -20 20 27 41 41 28 51 23 26 -4 -10 17 hvcurveto
          -9 -43 rlineto
          -31 -6 -54 -28 -40 hhcurveto
          endchar
        </CharString>
        <CharString name="ordmasculine">
          -205 342 72 225 73 hstem
          81 86 189 85 vstem
          222 342 rmoveto
          126 93 109 112 82 -49 67 -91 -125 -95 -107 -115 -80 49 -68 92 hvcurveto
          15 72 rmoveto
          -42 -28 36 51 76 58 62 60 43 28 -37 -50 -75 -59 -63 -60 hvcurveto
          endchar
        </CharString>
        <CharString name="oslash">
          53 callsubr
          hstemhm
          19 114 299 114 hintmask 01101100
          -1 -3 rmoveto
          64 hlineto
          34 34 rlineto
          hintmask 10011100
          -14 callgsubr
          hintmask 01101100
          13 callsubr
          hintmask 10101100
          -53 callgsubr
          endchar
        </CharString>
        <CharString name="oslashacute">
          53 callsubr
          224 49 callgsubr
          299 114 hintmask 01101110
          -1 -3 rmoveto
          64 hlineto
          34 34 rlineto
          hintmask 10011110
          -14 callgsubr
          hintmask 01101110
          13 callsubr
          hintmask 10101110
          -53 callgsubr
          340 508 -49 callgsubr
        </CharString>
        <CharString name="otilde">
          -52 -44 callsubr
          83 -47 callsubr
          25 callsubr
          hintmask 11101110
          -76 callsubr
          168 531 -89 callgsubr
          hintmask 11010110
          -93 callgsubr
          hintmask 11101110
          -56 callsubr
        </CharString>
        <CharString name="p">
          -28 -192 -21 203 94 35 callgsubr
          hstemhm
          454 115 hintmask 11101000
          -45 -213 rmoveto
          -67 callgsubr
          66 311 rlineto
          -64 21 53 -44 79 hhcurveto
          152 133 156 169 119 -69 98 -114 -75 -71 -41 -62 -52 hvcurveto
          hintmask 11011000
          13 callgsubr
          -97 hlineto
          157 -439 rmoveto
          -59 -45 50 64 -12 hvcurveto
          30 137 rlineto
          hintmask 11101000
          58 28 73 45 53 hhcurveto
          73 45 -62 -78 -104 -86 -110 -100 hvcurveto
          endchar
        </CharString>
        <CharString name="paragraph">
          -20 -59 -21 296 84 326 84 hstem
          63 95 vstem
          63 404 rmoveto
          -113 66 -73 115 -2 vhcurveto
          -64 -296 rlineto
          94 hlineto
          64 296 rlineto
          54 hlineto
          -63 -296 rlineto
          94 hlineto
          150 706 rlineto
          67 hlineto
          18 84 rlineto
          -266 hlineto
          -202 -127 -121 -185 hvcurveto
          95 15 rmoveto
          113 68 91 105 3 vhcurveto
          -70 -326 rlineto
          -59 4 -44 40 75 vvcurveto
          251 -119 rmoveto
          -54 hlineto
          70 326 rlineto
          54 hlineto
          endchar
        </CharString>
        <CharString name="parenleft">
          -343 -26 -21 797 -20 hstem
          39 103 vstem
          39 262 rmoveto
          -101 27 -116 39 -92 vhcurveto
          90 41 rlineto
          -33 88 -20 105 83 vvcurveto
          153 119 181 89 110 vhcurveto
          -76 36 rlineto
          -131 -167 -104 -145 -176 vvcurveto
          endchar
        </CharString>
        <CharString name="parenright">
          -344 -26 -21 797 -20 hstem
          167 105 vstem
          272 432 rmoveto
          101 -28 116 -36 101 vhcurveto
          -92 -36 rlineto
          21 -54 30 -127 -109 vvcurveto
          -148 -85 -135 -117 -147 vhcurveto
          73 -41 rlineto
          127 151 107 155 173 vvcurveto
          endchar
        </CharString>
        <CharString name="partialdiff">
          -69 -10 90 270 86 186 93 hstemhm
          27 105 272 122 -101 101 hintmask 11110100
          252 -10 rmoveto
          164 110 143 261 223 -80 98 -148 -78 -74 -27 -48 -47 hvcurveto
          61 -65 rlineto
          28 25 55 19 49 hhcurveto
          110 26 -106 -93 -25 -2 -23 -2 -20 hvcurveto
          50 -21 -54 31 -69 hhcurveto
          -133 -117 -110 -129 -116 94 -91 131 hvcurveto
          4 90 rmoveto
          -70 -54 55 69 80 69 66 78 hvcurveto
          hintmask 11111000
          70 55 -53 -70 -78 -70 -69 -78 hvcurveto
          endchar
        </CharString>
        <CharString name="percent">
          98 39 callgsubr
          91 79 154 79 -50 78 155 78 hintmask 11111101
          215 423 rmoveto
          96 92 80 94 69 -50 54 -75 32 callsubr
          -23 32 41 56 49 54 47 34 24 -32 -41 -57 -49 -53 -48 hvcurveto
          250 -490 rmoveto
          96 91 80 94 69 -49 54 -75 hvcurveto
          hintmask 11111011
          32 callsubr
          -24 32 41 57 49 53 47 34 25 -32 -41 -57 -50 -53 -47 hvcurveto
          -421 -53 -88 callgsubr
          endchar
        </CharString>
        <CharString name="period">
          -422 0 128 hstem
          88 16 callgsubr
          endchar
        </CharString>
        <CharString name="periodcentered">
          -423 243 137 hstem
          138 243 -25 callsubr
        </CharString>
        <CharString name="perthousand">
          454 39 callgsubr
          96 79 154 79 -50 78 155 78 43 79 155 78 hintmask 1111110111000000
          223 423 rmoveto
          93 92 80 94 69 -49 54 -77 -93 -93 -80 -95 -68 50 -54 77 hvcurveto
          11 57 rmoveto
          -35 -24 32 40 57 49 54 46 35 24 -32 -40 -58 -49 -53 -46 hvcurveto
          250 -490 rmoveto
          94 91 80 95 68 -49 54 -76 hvcurveto
          hintmask 1111101111000000
          -94 -92 -80 -94 -69 49 3 callgsubr
          344 -57 rmoveto
          93 92 80 95 68 -49 54 -76 -93 -94 -80 -94 -69 50 3 callgsubr
          -777 -53 rmoveto
          330 348 331 329 -42 45 -322 -343 -338 -333 rlineto
          endchar
        </CharString>
        <CharString name="pi">
          68 -8 97 -68 -21 425 97 hstemhm
          132 107 158 107 hintmask 10111000
          515 -8 rmoveto
          35 48 10 14 33 hvcurveto
          -16 86 rlineto
          -7 -17 -22 -6 -15 hhcurveto
          -36 -21 23 39 hvcurveto
          274 104 97 -554 -97 78 vlineto
          hintmask 01111000
          -425 107 425 158 -314 vlineto
          hintmask 10111000
          -75 45 -44 73 vhcurveto
          endchar
        </CharString>
        <CharString name="plus">
          -213 211 -21 121 88 121 -20 hstem
          170 100 vstem
          270 399 rmoveto
          121 -100 -121 -111 -88 111 -121 100 121 110 88 vlineto
          endchar
        </CharString>
        <CharString name="plusminus">
          -137 40 89 199 89 131 -20 hstem
          187 99 vstem
          408 40 rmoveto
          89 -343 -89 vlineto
          221 377 rmoveto
          131 -99 -131 -121 -89 121 -132 99 132 122 89 vlineto
          endchar
        </CharString>
        <CharString name="product">
          138 -69 -21 703 97 hstem
          154 107 287 107 vstem
          548 -90 rmoveto
          107 703 80 97 -661 -97 80 -703 107 703 287 hlineto
          endchar
        </CharString>
        <CharString name="q">
          -29 -191 -21 202 94 35 callgsubr
          hstemhm
          19 115 hintmask 11011000
          189 -10 rmoveto
          74 69 37 71 55 hvcurveto
          -48 -230 rlineto
          -2 -6 -1 -6 -5 vvcurveto
          -38 30 -25 42 16 22 1 3 18 vhcurveto
          13 callgsubr
          -18 1 -8 6 15 vvcurveto
          4 1 5 1 5 vhcurveto
          128 601 -15 callsubr
          hvcurveto
          59 94 -16 callgsubr
        </CharString>
        <CharString name="q.alt">
          -29 -192 -21 203 94 35 callgsubr
          hstemhm
          19 115 hintmask 11011000
          321 -213 rmoveto
          -67 callgsubr
          157 736 -15 callsubr
          74 69 37 71 55 hvcurveto
          -139 -14 -16 callgsubr
        </CharString>
        <CharString name="question">
          -168 0 126 503 90 hstem
          381 100 vstem
          201 221 rmoveto
          16 75 57 28 56 29 rrcurveto
          83 43 68 46 123 vvcurveto
          106 -76 48 -83 -86 -89 -47 -82 -51 vhcurveto
          62 -49 rlineto
          44 31 52 44 58 hhcurveto
          45 37 -29 -52 -94 -91 -34 -68 -38 hvcurveto
          -70 -39 -28 -53 -15 -69 rrcurveto
          47 -221 rmoveto
          26 126 rlineto
          -91 hlineto
          -27 -126 rlineto
          endchar
        </CharString>
        <CharString name="questiondown">
          -173 -213 90 503 126 hstem
          -38 100 vstem
          242 285 rmoveto
          -16 -75 -57 -28 -56 -29 rrcurveto
          -83 -43 -68 -46 -123 vvcurveto
          -106 76 -48 83 86 89 47 82 51 vhcurveto
          -62 49 rlineto
          -44 -31 -52 -44 -58 hhcurveto
          -45 -37 29 52 94 91 34 68 38 hvcurveto
          70 39 28 53 15 69 rrcurveto
          -47 221 rmoveto
          -26 -126 rlineto
          91 hlineto
          27 126 rlineto
          endchar
        </CharString>
        <CharString name="quotedbl">
          -283 501 220 hstem
          197 501 rmoveto
          54 callsubr
          227 hmoveto
          54 callsubr
          endchar
        </CharString>
        <CharString name="quotedblbase">
          -246 -102 -21 123 129 hstem
          49 -123 rmoveto
          -10 callgsubr
          35 hlineto
          -47 -123 rlineto
          220 hmoveto
          -10 callgsubr
          34 hlineto
          -47 -123 rlineto
          endchar
        </CharString>
        <CharString name="quotedblleft">
          -257 488 124 -124 242 hstemhm
          hintmask 10000000
          10 callsubr
          hintmask 01000000
          45 118 rlineto
          90 hmoveto
          -57 -117 -26 -125 rlineto
          108 hlineto
          hintmask 10000000
          26 124 rlineto
          -33 hlineto
          hintmask 01000000
          45 118 rlineto
          endchar
        </CharString>
        <CharString name="quotedblright">
          -265 501 242 -124 124 hstemhm
          hintmask 10000000
          325 33 callgsubr
          hintmask 01000000
          -26 -124 rlineto
          34 hlineto
          hintmask 10000000
          -45 -118 rlineto
          -90 hmoveto
          57 117 26 125 rlineto
          -108 hlineto
          hintmask 01000000
          -26 -124 rlineto
          33 hlineto
          hintmask 10000000
          -45 -118 rlineto
          endchar
        </CharString>
        <CharString name="quoteleft">
          -409 488 242 hstem
          10 callsubr
          45 118 rlineto
          endchar
        </CharString>
        <CharString name="quoteright">
          -417 501 242 hstem
          173 33 callgsubr
          -26 -124 rlineto
          34 hlineto
          -45 -118 rlineto
          endchar
        </CharString>
        <CharString name="quotesinglbase">
          -403 -102 -21 144 -21 129 -20 hstem
          49 -123 rmoveto
          -10 callgsubr
          35 hlineto
          -47 -123 rlineto
          endchar
        </CharString>
        <CharString name="quotesingle">
          -415 500 221 hstem
          197 500 rmoveto
          47 221 rlineto
          -94 hlineto
          -47 -221 rlineto
          endchar
        </CharString>
        <CharString name="r">
          6 callsubr
          hstemhm
          hintmask 11000000
          0 vmoveto
          -85 callgsubr
          hintmask 10100000
          -13 callgsubr
        </CharString>
        <CharString name="racute">
          6 callsubr
          -15 callgsubr
          hstemhm
          hintmask 11010000
          389 730 -96 callgsubr
          -278 -602 rmoveto
          -85 callgsubr
          hintmask 10110000
          -13 callgsubr
        </CharString>
        <CharString name="radical">
          -180 21 -21 790 -20 hstem
          16 293 rmoveto
          92 hlineto
          85 -293 rlineto
          126 hlineto
          152 790 rlineto
          -101 hlineto
          -112 -702 -65 283 rlineto
          -177 hlineto
          endchar
        </CharString>
        <CharString name="rcaron">
          -268 -40 callsubr
          23 81 123 -20 hstem
          219 607 -92 callgsubr
          -141 -702 rmoveto
          -85 callgsubr
          -13 callgsubr
        </CharString>
        <CharString name="rcommaaccent">
          -268 -3 callgsubr
          48 428 98 -3 -20 hstemhm
          hintmask 11100000
          19 -91 callsubr
          32 213 rmoveto
          -85 callgsubr
          hintmask 11010000
          -13 callgsubr
        </CharString>
        <CharString name="rdblgrave">
          6 callsubr
          -15 callgsubr
          hstemhm
          hintmask 11010000
          321 601 -95 callsubr
          -125 -730 rmoveto
          -85 callgsubr
          hintmask 10110000
          -13 callgsubr
        </CharString>
        <CharString name="rdotbelow">
          -268 -37 callgsubr
          94 -21 428 98 -3 -20 hstemhm
          hintmask 11100000
          0 vmoveto
          -85 callgsubr
          hintmask 11010000
          26 117 rlineto
          -102 hlineto
          -45 -712 -88 callsubr
          endchar
        </CharString>
        <CharString name="registered">
          218 -7 43 97 224 -69 69 149 71 94 44 hstemhm
          63 49 166 79 174 78 154 49 hintmask 1101111110000000
          436 -7 rmoveto
          215 37 callgsubr
          -215 -215 36 callgsubr
          215 hvcurveto
          43 vmoveto
          -188 -136 139 180 178 136 138 188 188 139 -138 -179 -188 -143 -130 -184 hvcurveto
          -158 97 rmoveto
          79 hlineto
          hintmask 1011111110000000
          155 83 vlineto
          hintmask 1101111110000000
          98 -155 rlineto
          89 hlineto
          -106 169 rlineto
          52 17 36 54 59 vvcurveto
          71 -58 74 -80 vhcurveto
          -193 hlineto
          79 -220 rmoveto
          149 106 vlineto
          38 30 -27 -47 -45 -24 -30 -41 hvcurveto
          endchar
        </CharString>
        <CharString name="ring">
          -389 584 36 74 36 hstem
          57 50 78 48 vstem
          57 643 -89 callsubr
          endchar
        </CharString>
        <CharString name="rinvertedbreve">
          6 callsubr
          176 51 hstemhm
          320 61 hintmask 11011000
          146 49 callsubr
          44 10 22 27 40 hhcurveto
          29 13 -14 -30 -9 -1 -8 -1 -10 hvcurveto
          59 hlineto
          2 9 2 9 9 vvcurveto
          53 -37 42 -57 -66 -60 -52 -70 -15 vhcurveto
          -146 -608 rmoveto
          -85 callgsubr
          hintmask 10111000
          -13 callgsubr
        </CharString>
        <CharString name="s">
          46 callgsubr
          hstem
          -11 callgsubr
          vstem
          181 -10 -94 callgsubr
          endchar
        </CharString>
        <CharString name="s_t">
          176 -10 80 -80 103 -80 -21 446 85 -69 69 9 -20 177 52 hstemhm
          53 103 155 106 -33 48 71 119 -13 112 hintmask 0100101110100000
          183 -10 rmoveto
          121 113 68 118 81 -53 21 -90 19 hvcurveto
          -75 16 -43 8 50 vvcurveto
          58 55 25 57 41 46 -13 -42 41 vhcurveto
          59 68 rlineto
          hintmask 1001001101010000
          -7 11 -16 42 45 vvcurveto
          68 36 56 83 42 16 -15 -44 -25 -5 -34 -10 -48 vhcurveto
          -5 callsubr
          66 hlineto
          -66 -311 rlineto
          hintmask 0011001110100000
          -4 -19 -3 -16 -15 vvcurveto
          -59 44 -26 57 51 57 22 13 31 vhcurveto
          -3 87 rlineto
          hintmask 0101001110100000
          -7 -16 -32 -14 -28 hhcurveto
          -25 -17 12 26 5 1 4 1 6 hvcurveto
          62 292 rlineto
          107 hlineto
          18 85 rlineto
          -107 hlineto
          hintmask 1000011101010000
          9 47 8 41 30 vvcurveto
          64 -30 36 -100 -154 -53 -86 -87 -24 4 -23 5 -20 vhcurveto
          23 -31 -49 8 -35 hhcurveto
          -105 -120 -70 -118 -84 60 -17 91 -22 hvcurveto
          hintmask 0101001110100000
          65 -15 42 -11 -45 vvcurveto
          -52 -56 -28 -59 -56 -56 23 44 -50 vhcurveto
          -58 -75 rlineto
          -40 44 80 -32 83 hhcurveto
          endchar
        </CharString>
        <CharString name="sacute">
          46 callgsubr
          23 callsubr
          -11 callgsubr
          vstem
          416 730 -96 callgsubr
          -124 -612 -94 callgsubr
          endchar
        </CharString>
        <CharString name="scaron">
          46 callgsubr
          0 75 19 callgsubr
          -11 callgsubr
          hintmask 10111100
          259 607 -92 callgsubr
          -712 vmoveto
          139 99 78 111 -6 callgsubr
          hvcurveto
          -65 17 -26 13 33 vvcurveto
          hintmask 11011100
          57 48 28 58 49 47 -19 -39 38 vhcurveto
          61 66 rlineto
          45 -42 -60 25 -74 hhcurveto
          -125 -108 -75 -117 -62 46 -25 102 -29 hvcurveto
          71 -20 34 -14 -36 vvcurveto
          11 callsubr
        </CharString>
        <CharString name="schwa">
          -62 -10 81 156 70 153 82 hstem
          8 110 304 115 vstem
          216 -10 rmoveto
          182 139 156 167 121 -75 98 -132 -107 -97 -57 -77 -51 hvcurveto
          88 -27 rlineto
          47 29 61 32 55 hhcurveto
          66 48 -49 -76 -9 -1 -10 -1 -9 hvcurveto
          -394 hlineto
          -12 -30 -6 -39 -31 vvcurveto
          -117 74 -90 134 vhcurveto
          18 81 rmoveto
          -69 -47 51 76 10 0 9 2 10 hvcurveto
          288 hlineto
          -91 -25 -72 -65 -77 hhcurveto
          endchar
        </CharString>
        <CharString name="scircumflex">
          46 callgsubr
          23 callsubr
          -11 callgsubr
          vstem
          232 607 -102 callsubr
          1 -645 -94 callgsubr
          endchar
        </CharString>
        <CharString name="sdotbelow">
          -157 -37 callgsubr
          63 80 384 78 hstem
          -11 callgsubr
          vstem
          181 -10 -94 callgsubr
          3 -179 -88 callsubr
          endchar
        </CharString>
        <CharString name="section">
          -128 -88 105 351 89 160 98 hstemhm
          70 106 -86 113 105 118 -82 107 hintmask 11101010
          406 208 rmoveto
          19 19 26 46 50 vvcurveto
          98 -87 34 -83 2 vhcurveto
          -45 1 -33 13 45 vvcurveto
          62 56 39 56 43 37 -18 -37 11 vhcurveto
          94 40 rlineto
          49 -22 -42 64 -107 hhcurveto
          -118 -121 -96 -119 -36 9 -31 12 -14 hvcurveto
          hintmask 11110100
          -15 -19 -26 -36 -55 vvcurveto
          -83 59 -50 103 -7 vhcurveto
          36 -3 40 -6 -45 vvcurveto
          -62 -62 -36 -55 -45 -35 18 44 -32 vhcurveto
          -85 -68 rlineto
          -39 25 58 -60 97 hhcurveto
          98 154 68 161 30 -7 24 -13 13 hvcurveto
          -230 101 rmoveto
          29 16 27 15 14 vhcurveto
          -7 12 24 -4 23 hhcurveto
          hintmask 11110010
          36 42 -16 -47 -26 -15 -29 -19 -14 hvcurveto
          -38 18 -96 -20 75 vvcurveto
          endchar
        </CharString>
        <CharString name="semicolon">
          -411 -76 -21 488 38 callgsubr
          -90 hlineto
          -27 -127 rlineto
          -41 -488 rmoveto
          56 103 26 28 callgsubr
        </CharString>
        <CharString name="servicemark">
          102 416 56 -40 -21 245 54 5 -20 hstemhm
          123 72 69 74 hintmask 10101100
          553 542 rmoveto
          -26 168 rlineto
          -106 hlineto
          -62 -294 rlineto
          72 hlineto
          43 198 32 -156 rlineto
          60 hlineto
          99 156 -42 -198 rlineto
          72 hlineto
          63 294 rlineto
          -107 hlineto
          -289 -28 rmoveto
          hintmask 10011100
          20 -28 -34 13 -41 hhcurveto
          -75 -61 -41 -67 -40 28 -18 56 -15 hvcurveto
          43 -12 14 -8 -15 vvcurveto
          -18 -18 -9 -33 -39 -35 16 18 -19 vhcurveto
          -42 -54 rlineto
          hintmask 01101100
          -25 30 45 -16 47 hhcurveto
          78 60 35 70 44 -32 20 -58 14 hvcurveto
          -41 10 -12 9 12 vvcurveto
          20 17 11 34 33 27 -15 -16 17 vhcurveto
          endchar
        </CharString>
        <CharString name="seven">
          -104 -106 -21 609 101 hstem
          -31 -127 rmoveto
          19 callsubr
        </CharString>
        <CharString name="seven.denominator">
          -271 21 -21 347 67 hstem
          -13 hmoveto
          74 hlineto
          321 414 rlineto
          -334 hlineto
          -14 -67 rlineto
          230 hlineto
          endchar
        </CharString>
        <CharString name="seven.lnum">
          -105 21 -21 609 101 hstem
          1 hmoveto
          19 callsubr
        </CharString>
        <CharString name="seven.numerator">
          -271 339 -21 346 66 hstem
          53 318 15 callgsubr
          -14 -66 rlineto
          230 hlineto
          endchar
        </CharString>
        <CharString name="seveneighths">
          211 30 callgsubr
          103 64 251 66 hstemhm
          439 -27 callsubr
          hintmask 0111110100000000
          65 -6 -88 callgsubr
          hintmask 1011110100000000
          555 -45 -32 callgsubr
          hintmask 1011101001000000
          -62 callsubr
          hintmask 1011110100000000
          -80 callsubr
          hintmask 1011101010000000
          -57 callsubr
          -563 72 15 callgsubr
          -14 -66 rlineto
          230 hlineto
          endchar
        </CharString>
        <CharString name="seveninferior">
          -270 -61 -21 347 66 hstem
          -31 -82 rmoveto
          75 hlineto
          321 413 rlineto
          -334 hlineto
          -15 -66 rlineto
          230 hlineto
          endchar
        </CharString>
        <CharString name="sevensuperior">
          -269 421 -21 346 66 hstem
          71 400 15 callgsubr
          -13 -66 rlineto
          229 hlineto
          endchar
        </CharString>
        <CharString name="six">
          -74 callsubr
        </CharString>
        <CharString name="six.denominator">
          -229 -5 61 162 58 77 64 hstem
          8 60 210 65 vstem
          142 -5 rmoveto
          106 95 75 89 66 -53 51 -84 -43 -51 -19 -31 -26 hvcurveto
          81 18 54 46 67 hhcurveto
          43 36 -19 -30 13 hvcurveto
          48 46 rlineto
          43 -19 -48 31 callsubr
          hvcurveto
          15 61 rmoveto
          -50 -39 32 39 49 60 42 63 51 36 -31 -39 -49 -60 -43 -61 hvcurveto
          endchar
        </CharString>
        <CharString name="six.lnum">
          -74 callsubr
        </CharString>
        <CharString name="six.numerator">
          -228 307 62 162 58 78 63 hstem
          75 61 209 65 vstem
          410 473 rmoveto
          66 -54 50 -83 -44 -51 -18 -31 -26 vhcurveto
          80 19 54 47 67 hhcurveto
          43 36 -20 -29 12 hvcurveto
          49 45 rlineto
          43 -20 -47 24 -57 hhcurveto
          -139 -94 -122 -159 -88 49 -54 84 107 95 76 90 hvcurveto
          -187 -104 rmoveto
          -50 -37 32 40 48 58 42 63 52 36 -30 -40 -48 -60 -44 -62 hvcurveto
          endchar
        </CharString>
        <CharString name="sixinferior">
          -229 -87 60 163 58 77 63 hstem
          -9 60 209 65 vstem
          325 77 rmoveto
          66 -53 51 -83 -43 -52 -19 -31 -25 vhcurveto
          81 18 53 46 68 hhcurveto
          42 37 -19 -30 12 hvcurveto
          48 46 rlineto
          42 -19 -47 24 -57 hhcurveto
          -138 -95 -121 -158 -90 50 -52 83 107 94 75 89 hvcurveto
          -185 -104 rmoveto
          -51 -38 33 39 48 59 43 64 51 35 -31 -39 -49 -59 -44 -61 hvcurveto
          endchar
        </CharString>
        <CharString name="sixsuperior">
          -228 390 61 162 58 78 63 hstem
          92 61 210 65 vstem
          428 555 rmoveto
          66 -55 50 -83 -43 -52 -18 -31 -25 vhcurveto
          80 18 55 47 66 hhcurveto
          43 36 -20 -29 13 hvcurveto
          48 45 rlineto
          43 -20 -47 31 callsubr
          106 96 75 90 hvcurveto
          -187 -104 rmoveto
          -50 -38 32 40 48 59 42 63 51 37 -30 -40 -48 -61 -44 -61 hvcurveto
          endchar
        </CharString>
        <CharString name="slash">
          25 9 callgsubr
          589 710 rmoveto
          -615 -710 rlineto
          122 hlineto
          615 710 rlineto
          endchar
        </CharString>
        <CharString name="space">
          -392 endchar
        </CharString>
        <CharString name="sterling">
          -127 -15 94 -67 67 -67 85 197 84 247 90 hstemhm
          121 99 -65 97 hintmask 01011010
          54 294 rmoveto
          101 hlineto
          -3 -77 -44 -62 -105 -84 8 -79 rcurveline
          12 40 48 8 32 hhcurveto
          hintmask 10011100
          61 47 -27 58 hhcurveto
          36 43 11 18 34 hvcurveto
          -9 82 rlineto
          -11 -33 -23 -6 -23 hhcurveto
          hintmask 00111010
          -44 -34 18 -49 hhcurveto
          -22 -23 -4 -7 -28 hvcurveto
          98 90 28 52 4 66 rrcurveto
          150 hlineto
          18 84 rlineto
          -174 hlineto
          hintmask 10011100
          -10 48 -16 42 40 vvcurveto
          65 52 52 60 51 callgsubr
          -31 -62 40 -75 hhcurveto
          -117 -114 -93 -114 -43 14 -43 10 -44 hvcurveto
          -74 hlineto
          endchar
        </CharString>
        <CharString name="summation">
          -15 0 97 526 87 hstem
          547 710 rmoveto
          -468 -71 hlineto
          211 -283 -218 -280 rlineto
          -76 487 97 -359 4 vlineto
          205 268 -186 250 rlineto
          4 328 vlineto
          endchar
        </CharString>
        <CharString name="t">
          -279 -8 101 345 85 172 22 callgsubr
          148 -8 -10 callsubr
          -92 callsubr
          -60 44 -26 57 vhcurveto
          endchar
        </CharString>
        <CharString name="t.alt">
          -284 21 -21 423 100 172 -20 hstem
          37 hmoveto
          112 hlineto
          90 423 rlineto
          117 hlineto
          21 100 rlineto
          -117 hlineto
          37 172 rlineto
          -113 hlineto
          -36 -172 rlineto
          -74 hlineto
          -21 -100 rlineto
          74 hlineto
          endchar
        </CharString>
        <CharString name="tbar">
          -279 -8 101 187 67 91 85 172 -20 hstemhm
          48 120 -120 238 hintmask 11111000
          22 280 rmoveto
          65 hlineto
          -36 -169 rlineto
          -2 -12 -1 -11 -10 vvcurveto
          -60 43 -26 58 53 55 16 19 32 vhcurveto
          -5 87 rlineto
          -7 -14 -32 -14 -29 hhcurveto
          -24 -17 12 28 6 1 7 2 13 hvcurveto
          26 121 rlineto
          108 hlineto
          15 67 rlineto
          -109 hlineto
          20 91 rlineto
          108 hlineto
          17 85 rlineto
          -107 hlineto
          hintmask 11110100
          37 172 -84 callgsubr
          -37 -172 -5 callgsubr
          66 hlineto
          -20 -91 rlineto
          -65 hlineto
          endchar
        </CharString>
        <CharString name="tcaron">
          -279 -8 101 345 85 207 22 callgsubr
          388 -48 callgsubr
          -174 -628 -10 callsubr
          -92 callsubr
          -60 44 -26 57 vhcurveto
          endchar
        </CharString>
        <CharString name="tdotbelow">
          -279 -37 callgsubr
          65 101 345 85 172 22 callgsubr
          155 -54 callsubr
          93 181 -10 callsubr
          -92 callsubr
          -60 44 -26 57 vhcurveto
          endchar
        </CharString>
        <CharString name="thorn">
          -57 -192 -21 192 100 358 99 174 -20 hstem
          430 114 vstem
          -45 -213 rmoveto
          -1 callsubr
          8 39 46 218 0 vvcurveto
          -33 13 30 -32 72 hhcurveto
          180 127 190 152 110 -64 105 -124 -66 -45 -32 -39 -33 hvcurveto
          0 43 205 9 40 vhcurveto
          -113 hlineto
          105 -631 rmoveto
          -63 -45 42 40 6 1 3 1 4 hvcurveto
          35 166 rlineto
          53 37 49 44 56 hhcurveto
          68 35 -62 -76 -111 -74 -109 -100 hvcurveto
          endchar
        </CharString>
        <CharString name="three">
          -106 -147 100 236 86 204 97 hstemhm
          327 114 -62 62 -62 121 hintmask 11101000
          153 -147 rmoveto
          167 121 100 144 72 -37 55 -63 12 hvcurveto
          hintmask 11100100
          89 15 70 89 90 vvcurveto
          88 -68 58 -110 -97 -98 -43 -64 -50 vhcurveto
          52 -75 rlineto
          54 41 57 31 62 hhcurveto
          54 36 -25 -48 -73 -61 -58 -96 hvcurveto
          -28 hlineto
          -19 -86 rlineto
          26 hlineto
          hintmask 11110000
          84 42 -38 -60 -88 -58 -50 -98 -72 -39 30 49 -20 hvcurveto
          -82 -76 rlineto
          -66 31 68 -37 96 hhcurveto
          endchar
        </CharString>
        <CharString name="three.denominator">
          -248 -5 67 26 callgsubr
          245 17 callsubr
          hintmask 11101000
          118 -5 14 callsubr
          hintmask 11100100
          -65 callgsubr
          hintmask 11110000
          -45 callsubr
        </CharString>
</ttFont>
